{
.appVersion = "3151";
.formatVersion = 3;
classes = (
{
code = "
zero one two three four five six seven eight nine
";
name = FIG_TAB_LINING;
},
{
code = "
zero.taboldstyle one.taboldstyle two.taboldstyle three.taboldstyle
four.taboldstyle five.taboldstyle six.taboldstyle seven.taboldstyle
eight.taboldstyle nine.taboldstyle
";
name = FIG_TAB_OLDSTYLE;
},
{
code = "
zero.fitted one.fitted two.fitted three.fitted four.fitted five.fitted
six.fitted seven.fitted eight.fitted nine.fitted
";
name = FIG_FIT_LINING;
},
{
code = "
zerooldstyle oneoldstyle twooldstyle threeoldstyle fouroldstyle
fiveoldstyle sixoldstyle sevenoldstyle eightoldstyle nineoldstyle
";
name = FIG_FIT_OLDSTYLE;
},
{
code = "
@FIG_TAB_LINING @FIG_FIT_LINING @FIG_FIT_OLDSTYLE @FIG_TAB_OLDSTYLE
";
name = FIGURES;
},
{
code = "
zerosuperior onesuperior twosuperior threesuperior foursuperior
fivesuperior sixsuperior sevensuperior eightsuperior ninesuperior
";
name = FIG_SUPERIOR;
},
{
code = "
zeroinferior oneinferior twoinferior threeinferior fourinferior
fiveinferior sixinferior seveninferior eightinferior nineinferior
";
name = FIG_INFERIOR;
},
{
code = "
zero.numerator one.numerator two.numerator three.numerator four.numerator
five.numerator six.numerator seven.numerator eight.numerator nine.numerator
";
name = FIG_NUMERATOR;
},
{
code = "
zero.denominator one.denominator two.denominator three.denominator
four.denominator five.denominator six.denominator seven.denominator
eight.denominator nine.denominator
";
name = FIG_DENOMINATOR;
},
{
code = "
cent dollar sterling florin yen Euro 
";
name = CURRENCY_TAB_LINING;
},
{
code = "
cent.fitted dollar.fitted sterling.fitted florin.fitted
yen.fitted Euro.fitted 
";
name = CURRENCY_FIT_LINING;
},
{
code = " fraction slash ";
name = FRACTION;
}
);
customParameters = (
{
name = vendorID;
value = "1BOU";
},
{
name = panose;
value = (
0,
0,
0,
0,
0,
0,
0,
0,
0,
0
);
},
{
name = unicodeRanges;
value = (
0,
1,
2,
3,
5,
6,
13,
24,
29,
31,
32,
33,
35,
36,
37,
38,

glyphs = (
{
glyphname = .notdef;
layers = (
{
layerId = m01;
shapes = (
{
closed = 1;
nodes = (
(125,724,l),
(125,-161,l),
(354,-161,l),
(354,724,l)
);
},
{
closed = 1;
nodes = (
(385,-187,l),
(94,-187,l),
(94,750,l),
(385,750,l)
);
}
);
width = 498;
}
);
note = ".notdef";
},
{
glyphname = exclam;
kernLeft = exclam;
layers = (
{
layerId = m01;
shapes = (
{
closed = 1;
nodes = (
(164,157,ls),
(164,147,o),
(159,141,o),
(151,141,cs),
(143,141,o),
(138,147,o),
(138,157,cs),
(133,589,ls),
(132,604,o),
(139,612,o),
(151,612,cs),
(163,612,o),
(169,604,o),
(169,589,cs)
);
},
{
closed = 1;
nodes = (
(167,65,o),
(176,52,o),
(176,28,cs),
(176,5,o),
(167,-8,o),
(151,-8,cs),
(135,-8,o),
(126,5,o),
(126,28,cs),
(126,52,o),
(135,65,o),
(151,65,cs)
);
}
);
width = 302;
}
);
note = exclam;
unicode = 33;
},
{
glyphname = quotedbl;
kernLeft = quotedbl;
kernRight = quotedbl;
layers = (
{
layerId = m01;
shapes = (
{
closed = 1;
nodes = (
(42,597,o),
(48,604,o),
(58,604,cs),
(67,604,o),
(73,597,o),
(73,585,cs),
(67,390,ls),
(67,383,o),
(63,379,o),
(58,379,cs),
(52,379,o),
(48,383,o),
(48,390,cs),
(42,585,ls)
);
},
{
closed = 1;
nodes = (
(161,390,ls),
(161,383,o),
(158,379,o),
(152,379,cs),
(146,379,o),
(142,383,o),
(142,390,cs),
(136,585,ls),
(136,597,o),
(142,604,o),
(152,604,cs),
(161,604,o),
(167,597,o),
(167,587,cs)
);
}
);
width = 209;
}
);
note = quotedbl;
unicode = 34;
},
{
glyphname = numbersign;
layers = (
{
layerId = m01;
shapes = (
{
closed = 1;
nodes = (
(408,411,ls),
(419,411,o),
(426,406,o),
(426,397,cs),
(426,388,o),
(419,383,o),
(408,383,cs),
(92,383,ls),
(81,383,o),
(75,388,o),
(75,397,cs),
(75,406,o),
(81,411,o),
(92,411,cs)
);
},
{
closed = 1;
nodes = (
(389,264,ls),
(400,264,o),
(406,259,o),
(406,250,cs),
(406,241,o),
(400,236,o),
(389,236,cs),
(73,236,ls),
(62,236,o),
(56,241,o),
(56,250,cs),
(56,259,o),
(62,264,o),
(73,264,cs)
);
},
{
closed = 1;
nodes = (
(186,539,ls),
(187,550,o),
(193,556,o),
(202,556,cs),
(212,556,o),
(218,549,o),
(218,540,cs),
(218,538,o),
(218,536,o),
(217,535,c),
(166,94,ls),
(165,83,o),
(159,77,o),
(150,77,cs),
(140,77,o),
(134,84,o),
(134,93,cs),
(134,95,o),
(134,97,o),
(135,98,c)
);
},
{
closed = 1;
nodes = (
(316,539,ls),
(318,550,o),
(323,556,o),
(332,556,cs),
(342,556,o),
(348,549,o),
(348,540,cs),
(348,538,o),
(348,536,o),
(348,535,cs),
(296,94,ls),
(295,83,o),
(289,77,o),
(281,77,cs),
(271,77,o),
(265,84,o),
(265,93,cs),
(265,95,o),
(265,97,o),
(265,98,cs)
);
}
);
width = 480;
}
);
note = numbersign;
unicode = 35;
},
{
glyphname = dollar;
layers = (
{
layerId = m01;
shapes = (
{
closed = 1;
nodes = (
(265,662,ls),
(266,673,o),
(271,678,o),
(279,678,cs),
(288,678,o),
(293,672,o),
(293,663,cs),
(293,661,o),
(293,660,o),
(293,659,cs),
(196,-71,ls),
(194,-81,o),
(189,-86,o),
(181,-86,cs),
(173,-86,o),
(167,-80,o),
(167,-71,cs),
(167,-70,o),
(167,-68,o),
(168,-64,cs)
);
},
{
closed = 1;
nodes = (
(119,374,o),
(96,403,o),
(96,472,cs),
(96,558,o),
(149,605,o),
(246,605,cs),
(283,605,o),
(323,595,o),
(346,582,cs),
(356,575,o),
(363,569,o),
(363,562,cs),
(363,554,o),
(355,546,o),
(346,546,cs),
(343,546,o),
(338,548,o),
(331,553,cs),
(306,569,o),
(278,577,o),
(246,577,cs),
(169,577,o),
(129,542,o),
(129,474,cs),
(129,404,o),
(175,378,o),
(227,349,cs),
(268,325,o),
(311,301,o),
(345,268,cs),
(375,239,o),
(390,200,o),
(390,150,cs),
(390,48,o),
(327,-10,o),
(216,-10,cs),
(158,-10,o),
(119,3,o),
(80,37,cs),
(74,42,o),
(72,46,o),
(72,52,cs),
(72,61,o),
(79,68,o),
(88,68,cs),
(93,68,o),
(97,66,o),
(103,60,cs),
(130,33,o),
(170,18,o),
(216,18,cs),
(307,18,o),
(357,64,o),
(357,149,cs),
(357,185,o),
(346,217,o),
(327,238,cs),
(307,260,o),
(307,260,o),
(218,314,cs)
);
}
);
width = 480;
}
);
note = dollar;
unicode = 36;
},
{
glyphname = percent;
layers = (
{
layerId = m01;
shapes = (
{
closed = 1;
nodes = (
(50,557,o),
(82,602,o),
(154,602,cs),
(225,602,o),
(257,557,o),
(257,458,cs),
(257,420,ls),
(257,320,o),
(225,275,o),
(154,275,cs),
(82,275,o),
(50,320,o),
(50,420,cs),
(50,458,ls)
);
},
{
closed = 1;
nodes = (
(231,538,o),
(205,579,o),
(154,579,cs),
(102,579,o),
(76,538,o),
(76,458,cs),
(76,420,ls),
(80,331,o),
(101,298,o),
(154,298,cs),
(205,298,o),
(231,339,o),
(231,420,cs),
(231,458,ls)
);
},
{
closed = 1;
nodes = (
(435,592,ls),
(438,600,o),
(442,603,o),
(448,603,cs),
(456,603,o),
(462,597,o),
(462,590,cs),
(462,588,o),
(461,584,o),
(460,581,cs),
(201,4,ls),
(197,-4,o),
(193,-7,o),
(187,-7,cs),
(179,-7,o),
(173,-1,o),
(173,6,cs),
(173,8,o),
(174,12,o),
(175,15,cs)
);
},
{
closed = 1;
nodes = (
(585,138,ls),
(585,39,o),
(553,-6,o),
(482,-6,cs),
(410,-6,o),
(378,39,o),
(378,138,cs),
(378,176,ls),
(378,276,o),
(410,321,o),
(482,321,cs),
(553,321,o),
(585,276,o),
(585,176,cs)
);
},
{
closed = 1;
nodes = (
(408,50,o),
(429,17,o),
(482,17,cs),
(533,17,o),
(559,58,o),
(559,138,cs),
(559,176,ls),
(559,257,o),
(533,298,o),
(482,298,cs),
(430,298,o),
(404,257,o),
(404,176,cs),
(404,138,ls)
);
}
);
width = 635;
}
);
note = percent;
unicode = 37;
},
{
glyphname = ampersand;
layers = (
{
layerId = m01;
shapes = (
{
closed = 1;
nodes = (
(459,22,ls),
(462,17,o),
(464,13,o),
(464,9,cs),
(464,1,o),
(457,-6,o),
(448,-6,cs),
(442,-6,o),
(438,-3,o),
(433,3,cs),
(391,60,l),
(354,13,o),
(298,-12,o),
(228,-12,cs),
(121,-12,o),
(58,50,o),
(58,156,cs),
(58,259,o),
(105,299,o),
(187,338,c),
(146,403,o),
(135,433,o),
(135,474,cs),
(135,560,o),
(178,609,o),
(252,609,cs),
(324,609,o),
(366,566,o),
(366,493,cs),
(366,422,o),
(321,366,o),
(233,327,c),
(392,112,l),
(427,184,o),
(446,258,o),
(460,381,cs),
(462,401,o),
(466,407,o),
(478,407,cs),
(488,407,o),
(495,400,o),
(495,390,cs),
(495,354,o),
(469,234,o),
(445,161,cs),
(437,137,o),
(425,109,o),
(412,86,c)
);
},
{
closed = 1;
nodes = (
(297,385,o),
(333,429,o),
(333,492,cs),
(333,549,o),
(304,581,o),
(252,581,cs),
(197,581,o),
(168,545,o),
(168,478,cs),
(168,436,o),
(178,411,o),
(217,352,c)
);
},
{
closed = 1;
nodes = (
(123,282,o),
(91,239,o),
(91,166,cs),
(91,70,o),
(144,16,o),
(237,16,cs),
(295,16,o),
(339,37,o),
(375,82,c),
(203,314,l)
);
}
);
width = 544;
}
);
note = ampersand;
unicode = 38;
},
{
glyphname = quotesingle;
kernLeft = quotedbl;
kernRight = quotedbl;
layers = (
{
layerId = m01;
shapes = (
{
closed = 1;
nodes = (
(38,597,o),
(44,604,o),
(54,604,cs),
(63,604,o),
(69,597,o),
(69,585,cs),
(63,390,ls),
(63,383,o),
(59,379,o),
(54,379,cs),
(48,379,o),
(44,383,o),
(44,390,cs),
(38,585,ls)
);
}
);
width = 107;
}
);
note = quotesingle;
unicode = 39;
},
{
glyphname = parenleft;
layers = (
{
layerId = m01;
shapes = (
{
closed = 1;
nodes = (
(108,395,o),
(142,510,o),
(217,615,cs),
(238,645,o),
(247,654,o),
(254,654,cs),
(262,654,o),
(268,648,o),
(268,640,cs),
(268,637,o),
(267,634,o),
(262,628,cs),
(177,522,o),
(141,381,o),
(141,248,cs),
(141,114,o),
(177,-26,o),
(262,-132,cs),
(267,-138,o),
(268,-141,o),
(268,-144,cs),
(268,-152,o),
(262,-158,o),
(254,-158,cs),
(245,-158,o),
(232,-143,o),
(206,-103,cs),
(138,0,o),
(108,108,o),
(108,248,cs)
);
}
);
width = 296;
}
);
note = parenleft;
unicode = 40;
},
{
glyphname = parenright;
layers = (
{
layerId = m01;
shapes = (
{
closed = 1;
nodes = (
(155,395,o),
(114,525,o),
(34,628,cs),
(29,634,o),
(28,637,o),
(28,640,cs),
(28,648,o),
(34,654,o),
(42,654,cs),
(50,654,o),
(63,640,o),
(90,599,cs),
(158,497,o),
(188,388,o),
(188,248,cs),
(188,101,o),
(154,-14,o),
(79,-119,cs),
(56,-151,o),
(49,-158,o),
(42,-158,cs),
(34,-158,o),
(28,-152,o),
(28,-144,cs),
(28,-141,o),
(29,-138,o),
(34,-132,cs),
(114,-29,o),
(155,101,o),
(155,248,cs)
);
}
);
width = 296;
}
);
note = parenright;
unicode = 41;
},
{
glyphname = asterisk;
layers = (
{
layerId = m01;
shapes = (
{
closed = 1;
nodes = (
(215,648,ls),
(215,649,o),
(215,650,o),
(215,650,c),
(215,663,o),
(222,671,o),
(233,671,cs),
(245,671,o),
(252,663,o),
(252,650,c),
(252,650,o),
(252,649,o),
(252,648,cs),
(246,535,l),
(360,576,ls),
(364,577,o),
(368,578,o),
(371,578,cs),
(379,578,o),
(387,570,o),
(387,561,cs),
(387,552,o),
(381,546,o),
(370,543,cs),
(251,517,l),
(331,421,ls),
(335,416,o),
(337,410,o),
(337,406,cs),
(337,397,o),
(329,389,o),
(320,389,cs),
(313,389,o),
(308,392,o),
(303,400,cs),
(234,505,l),
(163,400,ls),
(158,392,o),
(154,389,o),
(147,389,cs),
(138,389,o),
(130,397,o),
(130,406,cs),
(130,410,o),
(132,416,o),
(136,421,cs),
(216,517,l),
(97,543,ls),
(86,546,o),
(80,552,o),
(80,561,cs),
(80,570,o),
(88,578,o),
(96,578,cs),
(99,578,o),
(103,577,o),
(107,576,cs),
(221,535,l)
);
}
);
width = 468;
}
);
note = asterisk;
unicode = 42;
},
{
glyphname = plus;
layers = (
{
layerId = m01;
shapes = (
{
closed = 1;
nodes = (
(223,447,ls),
(223,460,o),
(229,467,o),
(239,467,cs),
(249,467,o),
(255,460,o),
(255,447,cs),
(255,308,l),
(410,308,ls),
(421,308,o),
(427,303,o),
(427,294,cs),
(427,285,o),
(421,280,o),
(410,280,cs),
(255,280,l),
(255,143,ls),
(255,130,o),
(249,123,o),
(239,123,cs),
(229,123,o),
(223,130,o),
(223,143,cs),
(223,280,l),
(70,280,ls),
(59,280,o),
(53,285,o),
(53,294,cs),
(53,303,o),
(59,308,o),
(70,308,cs),
(223,308,l)
);
}
);
width = 480;
}
);
note = plus;
unicode = 43;
},
{
glyphname = comma;
kernLeft = comma;
kernRight = comma;
layers = (
{
layerId = m01;
shapes = (
{
closed = 1;
nodes = (
(56,2,o),
(49,12,o),
(49,29,cs),
(49,52,o),
(59,65,o),
(76,65,cs),
(93,65,o),
(101,53,o),
(101,26,cs),
(101,-8,o),
(95,-34,o),
(70,-99,cs),
(67,-108,o),
(63,-111,o),
(56,-111,cs),
(49,-111,o),
(43,-105,o),
(43,-98,cs),
(43,-95,o),
(43,-94,o),
(46,-86,cs),
(54,-66,o),
(63,-33,o),
(70,-3,c)
);
}
);
width = 153;
}
);
note = comma;
unicode = 44;
},
{
glyphname = hyphen;
kernLeft = hyphen;
kernRight = hyphen;
layers = (
{
layerId = m01;
shapes = (
{
closed = 1;
nodes = (
(229,288,ls),
(240,288,o),
(246,283,o),
(246,274,cs),
(246,265,o),
(240,260,o),
(229,260,cs),
(47,260,ls),
(36,260,o),
(30,265,o),
(30,274,cs),
(30,283,o),
(36,288,o),
(47,288,cs)
);
}
);
width = 276;
}
);
note = hyphen;
unicode = 45;
},
{
glyphname = period;
kernLeft = comma;
kernRight = comma;
layers = (
{
layerId = m01;
shapes = (
{
closed = 1;
nodes = (
(93,65,o),
(102,52,o),
(102,28,cs),
(102,5,o),
(93,-8,o),
(77,-8,cs),
(61,-8,o),
(52,5,o),
(52,28,cs),
(52,52,o),
(61,65,o),
(77,65,cs)
);
}
);
width = 154;
}
);
note = period;
unicode = 46;
},
{
glyphname = slash;
layers = (
{
layerId = m01;
shapes = (
{
closed = 1;
nodes = (
(181,590,ls),
(184,600,o),
(189,604,o),
(196,604,cs),
(204,604,o),
(211,598,o),
(211,590,cs),
(211,588,o),
(211,584,o),
(210,581,cs),
(37,6,ls),
(34,-3,o),
(29,-8,o),
(22,-8,cs),
(14,-8,o),
(7,-1,o),
(7,6,cs),
(7,9,o),
(8,12,o),
(8,15,c)
);
}
);
width = 218;
}
);
note = slash;
unicode = 47;
},
{
glyphname = zero;
layers = (
{
layerId = m01;
shapes = (
{
closed = 1;
nodes = (
(68,538,o),
(112,606,o),
(240,606,cs),
(368,606,o),
(412,539,o),
(412,342,cs),
(412,253,ls),
(412,58,o),
(368,-10,o),
(240,-10,cs),
(112,-10,o),
(68,58,o),
(68,253,cs),
(68,343,ls)
);
},
{
closed = 1;
nodes = (
(102,171,o),
(109,126,o),
(123,89,cs),
(142,43,o),
(182,18,o),
(240,18,cs),
(303,18,o),
(343,45,o),
(361,101,cs),
(372,136,o),
(380,197,o),
(380,253,cs),
(380,343,ls),
(380,407,o),
(371,472,o),
(357,507,cs),
(338,554,o),
(298,578,o),
(240,578,cs),
(177,578,o),
(137,551,o),
(119,494,cs),
(108,461,o),
(100,398,o),
(100,343,cs),
(100,253,ls)
);
}
);
width = 480;
}
);
note = zero;
unicode = 48;
},
{
glyphname = one;
layers = (
{
layerId = m01;
shapes = (
{
closed = 1;
nodes = (
(102,502,ls),
(98,500,o),
(95,499,o),
(92,499,cs),
(85,499,o),
(79,506,o),
(79,513,cs),
(79,519,o),
(82,523,o),
(90,527,cs),
(243,601,l),
(248,601,ls),
(264,601,o),
(271,593,o),
(271,577,cs),
(271,12,ls),
(271,-1,o),
(265,-8,o),
(255,-8,cs),
(245,-8,o),
(239,-1,o),
(239,12,cs),
(239,566,l)
);
}
);
width = 480;
}
);
note = one;
unicode = 49;
},
{
glyphname = two;
layers = (
{
layerId = m01;
shapes = (
{
closed = 1;
nodes = (
(382,28,ls),
(393,28,o),
(399,23,o),
(399,14,cs),
(399,5,o),
(393,0,o),
(382,0,cs),
(96,0,ls),
(86,0,o),
(80,5,o),
(80,13,cs),
(80,19,o),
(80,19,o),
(149,109,cs),
(309,315,o),
(347,384,o),
(347,469,cs),
(347,541,o),
(310,578,o),
(238,578,cs),
(197,578,o),
(164,567,o),
(128,541,cs),
(116,532,o),
(113,530,o),
(108,530,cs),
(100,530,o),
(93,537,o),
(93,546,cs),
(93,554,o),
(101,562,o),
(123,575,cs),
(160,596,o),
(196,606,o),
(240,606,cs),
(325,606,o),
(380,566,o),
(380,476,cs),
(380,395,o),
(351,332,o),
(251,196,cs),
(213,143,o),
(181,101,o),
(124,28,c)
);
}
);
width = 480;
}
);
note = two;
unicode = 50;
},
{
glyphname = three;
layers = (
{
layerId = m01;
shapes = (
{
closed = 1;
nodes = (
(362,306,o),
(390,256,o),
(390,166,cs),
(390,45,o),
(332,-10,o),
(211,-10,cs),
(141,-10,o),
(71,15,o),
(71,39,cs),
(71,48,o),
(79,56,o),
(88,56,cs),
(92,56,o),
(96,54,o),
(101,50,cs),
(127,29,o),
(167,18,o),
(213,18,cs),
(309,18,o),
(357,67,o),
(357,166,cs),
(357,259,o),
(310,304,o),
(213,304,cs),
(176,304,ls),
(164,304,o),
(158,309,o),
(158,318,cs),
(158,327,o),
(164,332,o),
(176,332,cs),
(206,332,ls),
(287,332,o),
(335,380,o),
(335,460,cs),
(335,538,o),
(298,578,o),
(225,578,cs),
(182,578,o),
(147,566,o),
(112,540,cs),
(107,537,o),
(103,535,o),
(99,535,cs),
(91,535,o),
(84,542,o),
(84,551,cs),
(84,560,o),
(93,568,o),
(115,580,cs),
(147,597,o),
(183,606,o),
(222,606,cs),
(320,606,o),
(368,559,o),
(368,462,cs),
(368,389,o),
(338,343,o),
(275,321,c)
);
}
);
width = 480;
}
);
note = three;
unicode = 51;
},
{
glyphname = four;
layers = (
{
layerId = m01;
shapes = (
{
closed = 1;
nodes = (
(54,159,ls),
(42,159,o),
(36,164,o),
(36,173,cs),
(36,176,o),
(37,179,o),
(40,184,cs),
(296,596,ls),
(302,605,o),
(307,608,o),
(315,608,cs),
(327,608,o),
(334,600,o),
(334,585,cs),
(334,187,l),
(423,187,ls),
(434,187,o),
(440,182,o),
(440,173,cs),
(440,164,o),
(434,159,o),
(423,159,cs),
(334,159,l),
(334,12,ls),
(334,-1,o),
(328,-8,o),
(318,-8,cs),
(308,-8,o),
(302,-1,o),
(302,12,cs),
(302,159,l)
);
},
{
closed = 1;
nodes = (
(302,546,l),
(77,187,l),
(302,187,l)
);
}
);
width = 480;
}
);
note = four;
unicode = 52;
},
{
glyphname = five;
layers = (
{
layerId = m01;
shapes = (
{
closed = 1;
nodes = (
(146,326,l),
(185,349,o),
(213,357,o),
(256,357,cs),
(358,357,o),
(400,306,o),
(400,186,cs),
(400,50,o),
(344,-10,o),
(218,-10,cs),
(148,-10,o),
(76,13,o),
(76,35,cs),
(76,44,o),
(84,52,o),
(94,52,cs),
(97,52,o),
(104,49,o),
(113,44,cs),
(141,26,o),
(173,18,o),
(211,18,cs),
(320,18,o),
(367,67,o),
(367,180,cs),
(367,263,o),
(348,329,o),
(252,329,cs),
(213,329,o),
(188,320,o),
(143,291,cs),
(138,287,o),
(134,286,o),
(131,286,cs),
(120,286,o),
(114,294,o),
(115,306,cs),
(126,572,ls),
(127,589,o),
(134,596,o),
(151,596,cs),
(349,596,ls),
(361,596,o),
(367,591,o),
(367,582,cs),
(367,573,o),
(361,568,o),
(349,568,cs),
(157,568,l)
);
}
);
width = 480;
}
);
note = five;
unicode = 53;
},
{
glyphname = six;
layers = (
{
layerId = m01;
shapes = (
{
closed = 1;
nodes = (
(148,345,o),
(188,363,o),
(249,363,cs),
(354,363,o),
(408,301,o),
(408,180,cs),
(408,50,o),
(355,-10,o),
(241,-10,cs),
(87,-10,o),
(79,96,o),
(79,223,cs),
(79,320,o),
(87,408,o),
(102,467,cs),
(125,563,o),
(180,606,o),
(280,606,cs),
(308,606,o),
(339,602,o),
(356,597,cs),
(363,594,o),
(367,590,o),
(367,583,cs),
(367,575,o),
(360,568,o),
(353,568,cs),
(351,568,o),
(348,569,o),
(344,569,c),
(322,575,o),
(302,578,o),
(279,578,cs),
(201,578,o),
(154,542,o),
(135,468,cs),
(125,425,o),
(120,388,o),
(114,303,c)
);
},
{
closed = 1;
nodes = (
(160,335,o),
(112,281,o),
(112,179,cs),
(112,82,o),
(138,18,o),
(244,18,cs),
(347,18,o),
(375,80,o),
(375,176,cs),
(375,266,o),
(349,335,o),
(250,335,cs)
);
}
);
width = 480;
}
);
note = six;
unicode = 54;
},
{
glyphname = seven;
layers = (
{
layerId = m01;
shapes = (
{
closed = 1;
nodes = (
(90,568,ls),
(79,568,o),
(73,573,o),
(73,582,cs),
(73,591,o),
(79,596,o),
(90,596,cs),
(388,596,ls),
(398,596,o),
(401,592,o),
(402,583,c),
(401,578,o),
(400,575,o),
(399,571,cs),
(182,7,ls),
(178,-3,o),
(173,-7,o),
(165,-7,cs),
(157,-7,o),
(149,0,o),
(149,8,cs),
(149,11,o),
(150,15,o),
(151,19,c),
(364,568,l)
);
}
);
width = 480;
}
);
note = seven;
unicode = 55;
},
{
glyphname = eight;
layers = (
{
layerId = m01;
shapes = (
{
closed = 1;
nodes = (
(107,339,o),
(84,379,o),
(84,452,cs),
(84,558,o),
(133,606,o),
(240,606,cs),
(347,606,o),
(396,558,o),
(396,453,cs),
(396,379,o),
(373,339,o),
(317,313,c),
(387,289,o),
(417,242,o),
(417,155,cs),
(417,40,o),
(364,-10,o),
(239,-10,cs),
(116,-10,o),
(62,40,o),
(62,155,cs),
(62,242,o),
(92,289,o),
(162,313,c)
);
},
{
closed = 1;
nodes = (
(156,578,o),
(117,538,o),
(117,452,cs),
(117,366,o),
(156,326,o),
(240,326,cs),
(324,326,o),
(363,366,o),
(363,452,cs),
(363,538,o),
(324,578,o),
(240,578,cs)
);
},
{
closed = 1;
nodes = (
(144,298,o),
(95,250,o),
(95,155,cs),
(95,58,o),
(137,18,o),
(240,18,cs),
(342,18,o),
(384,58,o),
(384,155,cs),
(384,250,o),
(335,298,o),
(239,298,cs)
);
}
);
width = 480;
}
);
note = eight;
unicode = 56;
},
{
glyphname = nine;
layers = (
{
layerId = m01;
shapes = (
{
closed = 1;
nodes = (
(332,251,o),
(292,233,o),
(231,233,cs),
(126,233,o),
(72,295,o),
(72,416,cs),
(72,546,o),
(125,606,o),
(239,606,cs),
(363,606,o),
(401,551,o),
(401,373,cs),
(401,276,o),
(393,188,o),
(378,129,cs),
(355,33,o),
(300,-10,o),
(200,-10,cs),
(172,-10,o),
(141,-6,o),
(124,-1,cs),
(117,2,o),
(113,6,o),
(113,13,cs),
(113,21,o),
(120,28,o),
(127,28,cs),
(129,28,o),
(132,27,o),
(136,27,c),
(158,21,o),
(178,18,o),
(201,18,cs),
(279,18,o),
(326,54,o),
(345,128,cs),
(355,171,o),
(360,208,o),
(366,293,c)
);
},
{
closed = 1;
nodes = (
(320,261,o),
(368,315,o),
(368,417,cs),
(368,514,o),
(342,578,o),
(236,578,cs),
(133,578,o),
(105,516,o),
(105,420,cs),
(105,330,o),
(131,261,o),
(230,261,cs)
);
}
);
width = 480;
}
);
note = nine;
unicode = 57;
},
{
glyphname = colon;
layers = (
{
layerId = m01;
shapes = (
{
closed = 1;
nodes = (
(113,65,o),
(122,52,o),
(122,28,cs),
(122,5,o),
(113,-8,o),
(97,-8,cs),
(81,-8,o),
(72,5,o),
(72,28,cs),
(72,52,o),
(81,65,o),
(97,65,cs)
);
},
{
closed = 1;
nodes = (
(113,384,o),
(122,371,o),
(122,348,cs),
(122,324,o),
(113,311,o),
(97,311,cs),
(81,311,o),
(72,324,o),
(72,348,cs),
(72,371,o),
(81,384,o),
(97,384,cs)
);
}
);
width = 194;
}
);
note = colon;
unicode = 58;
},
{
glyphname = semicolon;
layers = (
{
layerId = m01;
shapes = (
{
closed = 1;
nodes = (
(113,384,o),
(122,371,o),
(122,348,cs),
(122,324,o),
(113,311,o),
(98,311,cs),
(82,311,o),
(73,324,o),
(73,348,cs),
(73,371,o),
(82,384,o),
(98,384,cs)
);
},
{
closed = 1;
nodes = (
(77,2,o),
(70,12,o),
(70,29,cs),
(70,52,o),
(80,65,o),
(97,65,cs),
(114,65,o),
(122,53,o),
(122,26,cs),
(122,-8,o),
(116,-34,o),
(91,-99,cs),
(88,-108,o),
(84,-111,o),
(77,-111,cs),
(70,-111,o),
(64,-105,o),
(64,-98,cs),
(64,-95,o),
(64,-94,o),
(67,-86,cs),
(75,-66,o),
(84,-33,o),
(91,-3,c)
);
}
);
width = 194;
}
);
note = semicolon;
unicode = 59;
},
{
glyphname = less;
layers = (
{
layerId = m01;
shapes = (
{
closed = 1;
nodes = (
(403,149,ls),
(411,145,o),
(414,140,o),
(414,134,cs),
(414,126,o),
(407,119,o),
(400,119,cs),
(397,119,o),
(393,120,o),
(389,122,cs),
(73,285,ls),
(67,288,o),
(65,291,o),
(65,295,cs),
(65,300,o),
(67,303,o),
(73,306,cs),
(389,469,ls),
(393,471,o),
(397,472,o),
(400,472,cs),
(407,472,o),
(414,465,o),
(414,457,cs),
(414,450,o),
(411,446,o),
(403,442,cs),
(118,295,l)
);
}
);
width = 480;
}
);
note = less;
unicode = 60;
},
{
glyphname = equal;
layers = (
{
layerId = m01;
shapes = (
{
closed = 1;
nodes = (
(409,357,ls),
(420,357,o),
(426,352,o),
(426,343,cs),
(426,334,o),
(420,329,o),
(409,329,cs),
(70,329,ls),
(59,329,o),
(53,334,o),
(53,343,cs),
(53,352,o),
(59,357,o),
(70,357,cs)
);
},
{
closed = 1;
nodes = (
(409,260,ls),
(420,260,o),
(426,255,o),
(426,246,cs),
(426,237,o),
(420,232,o),
(409,232,cs),
(70,232,ls),
(59,232,o),
(53,237,o),
(53,246,cs),
(53,255,o),
(59,260,o),
(70,260,cs)
);
}
);
width = 480;
}
);
note = equal;
unicode = 61;
},
{
glyphname = greater;
layers = (
{
layerId = m01;
shapes = (
{
closed = 1;
nodes = (
(77,442,ls),
(69,446,o),
(66,450,o),
(66,457,cs),
(66,465,o),
(73,472,o),
(80,472,cs),
(83,472,o),
(87,471,o),
(91,469,cs),
(407,306,ls),
(413,303,o),
(415,300,o),
(415,295,cs),
(415,291,o),
(413,288,o),
(407,285,cs),
(91,122,ls),
(87,120,o),
(83,119,o),
(80,119,cs),
(73,119,o),
(66,126,o),
(66,134,cs),
(66,140,o),
(69,145,o),
(77,149,cs),
(362,295,l)
);
}
);
width = 480;
}
);
note = greater;
unicode = 62;
},
{
glyphname = question;
kernLeft = question;
layers = (
{
layerId = m01;
shapes = (
{
closed = 1;
nodes = (
(179,65,o),
(188,52,o),
(188,28,cs),
(188,5,o),
(179,-8,o),
(163,-8,cs),
(147,-8,o),
(138,5,o),
(138,28,cs),
(138,52,o),
(147,65,o),
(163,65,cs)
);
},
{
closed = 1;
nodes = (
(149,275,o),
(154,286,o),
(224,356,cs),
(270,402,o),
(283,430,o),
(283,480,cs),
(283,553,o),
(250,588,o),
(180,588,cs),
(139,588,o),
(99,576,o),
(64,553,cs),
(61,551,o),
(56,549,o),
(53,549,cs),
(45,549,o),
(38,556,o),
(38,564,cs),
(38,570,o),
(41,574,o),
(46,578,cs),
(83,603,o),
(128,616,o),
(179,616,cs),
(269,616,o),
(316,573,o),
(316,490,cs),
(316,427,o),
(299,390,o),
(245,338,cs),
(184,278,o),
(178,267,o),
(178,201,cs),
(178,159,ls),
(178,148,o),
(173,141,o),
(164,141,cs),
(154,141,o),
(149,148,o),
(149,159,cs),
(149,207,ls)
);
}
);
width = 365;
}
);
note = question;
unicode = 63;
},
{
glyphname = at;
layers = (
{
layerId = m01;
shapes = (
{
closed = 1;
nodes = (
(434,433,o),
(438,437,o),
(445,437,cs),
(453,437,o),
(459,431,o),
(459,423,cs),
(459,422,o),
(459,419,o),
(458,417,c),
(424,228,ls),
(418,198,o),
(417,191,o),
(417,181,cs),
(417,149,o),
(429,135,o),
(457,135,cs),
(523,135,o),
(564,196,o),
(564,294,cs),
(564,355,ls),
(564,507,o),
(487,578,o),
(335,578,cs),
(170,578,o),
(91,496,o),
(91,322,cs),
(91,217,ls),
(91,55,o),
(156,-13,o),
(312,-13,cs),
(381,-13,o),
(435,-3,o),
(480,19,cs),
(494,25,o),
(499,27,o),
(502,27,cs),
(510,27,o),
(518,20,o),
(518,12,cs),
(518,6,o),
(515,1,o),
(509,-1,c),
(456,-28,o),
(389,-41,o),
(310,-41,cs),
(136,-41,o),
(60,36,o),
(60,214,cs),
(60,317,ls),
(60,513,o),
(148,606,o),
(333,606,cs),
(510,606,o),
(595,525,o),
(595,355,cs),
(595,301,ls),
(595,177,o),
(544,107,o),
(453,107,cs),
(410,107,o),
(390,127,o),
(390,170,c),
(363,122,o),
(334,103,o),
(289,103,cs),
(231,103,o),
(198,144,o),
(198,218,cs),
(198,268,o),
(213,332,o),
(233,370,cs),
(256,415,o),
(293,438,o),
(340,438,cs),
(376,438,o),
(399,427,o),
(422,397,c)
);
},
{
closed = 1;
nodes = (
(399,393,o),
(375,410,o),
(340,410,cs),
(301,410,o),
(274,387,o),
(254,339,cs),
(240,305,o),
(231,257,o),
(231,218,cs),
(231,160,o),
(251,131,o),
(291,131,cs),
(344,131,o),
(385,182,o),
(398,264,cs),
(413,356,l)
);
}
);
width = 655;
}
);
note = at;
unicode = 64;
},
{
glyphname = A;
kernLeft = A;
kernRight = A;
layers = (
{
layerId = m01;
shapes = (
{
closed = 1;
nodes = (
(104,156,l),
(49,7,ls),
(45,-3,o),
(40,-8,o),
(32,-8,cs),
(24,-8,o),
(16,-1,o),
(16,8,cs),
(16,11,o),
(17,14,o),
(18,18,cs),
(228,589,ls),
(232,599,o),
(237,604,o),
(245,604,cs),
(253,604,o),
(259,600,o),
(262,589,c),
(473,18,ls),
(474,14,o),
(475,10,o),
(475,7,cs),
(475,-1,o),
(467,-8,o),
(459,-8,cs),
(451,-8,o),
(446,-3,o),
(442,7,cs),
(387,156,l)
);
},
{
closed = 1;
nodes = (
(245,541,l),
(113,184,l),
(377,184,l)
);
}
);
width = 490;
}
);
note = A;
unicode = 65;
},
{
glyphname = B;
layers = (
{
layerId = m01;
shapes = (
{
closed = 1;
nodes = (
(412,303,o),
(436,246,o),
(436,163,cs),
(436,27,o),
(366,0,o),
(247,0,cs),
(115,0,ls),
(98,0,o),
(91,7,o),
(91,24,cs),
(91,572,ls),
(91,589,o),
(98,596,o),
(115,596,cs),
(247,596,ls),
(368,596,o),
(417,556,o),
(417,458,cs),
(417,386,o),
(386,337,o),
(329,318,c)
);
},
{
closed = 1;
nodes = (
(224,332,ls),
(323,332,o),
(384,351,o),
(384,462,cs),
(384,558,o),
(316,568,o),
(239,568,cs),
(123,568,l),
(123,332,l)
);
},
{
closed = 1;
nodes = (
(238,28,ls),
(340,28,o),
(403,43,o),
(403,160,cs),
(403,282,o),
(338,304,o),
(231,304,cs),
(123,304,l),
(123,28,l)
);
}
);
width = 489;
}
);
note = B;
unicode = 66;
},
{
glyphname = C;
kernLeft = C;
layers = (
{
layerId = m01;
shapes = (
{
closed = 1;
nodes = (
(90,257,ls),
(90,142,o),
(113,18,o),
(254,18,cs),
(301,18,o),
(341,31,o),
(375,59,cs),
(385,67,o),
(388,69,o),
(393,69,cs),
(402,69,o),
(410,61,o),
(410,52,cs),
(410,47,o),
(408,42,o),
(403,38,cs),
(368,7,o),
(314,-10,o),
(254,-10,cs),
(84,-10,o),
(58,120,o),
(58,260,cs),
(58,336,ls),
(58,478,o),
(87,606,o),
(256,606,cs),
(314,606,o),
(366,589,o),
(400,560,cs),
(405,556,o),
(407,551,o),
(407,546,cs),
(407,537,o),
(399,529,o),
(390,529,cs),
(385,529,o),
(382,531,o),
(372,539,cs),
(339,566,o),
(302,578,o),
(255,578,cs),
(112,578,o),
(90,455,o),
(90,339,cs)
);
}
);
width = 421;
}
);
note = C;
unicode = 67;
},
{
glyphname = D;
layers = (
{
layerId = m01;
shapes = (
{
closed = 1;
nodes = (
(91,572,ls),
(91,589,o),
(98,596,o),
(115,596,cs),
(249,596,ls),
(409,596,o),
(466,524,o),
(466,326,cs),
(466,270,ls),
(466,71,o),
(409,0,o),
(249,0,cs),
(115,0,ls),
(98,0,o),
(91,7,o),
(91,24,cs)
);
},
{
closed = 1;
nodes = (
(249,28,ls),
(407,28,o),
(434,127,o),
(434,267,cs),
(434,329,ls),
(434,468,o),
(407,568,o),
(249,568,cs),
(123,568,l),
(123,28,l)
);
}
);
width = 524;
}
);
note = D;
unicode = 68;
},
{
glyphname = E;
layers = (
{
layerId = m01;
shapes = (
{
closed = 1;
nodes = (
(123,327,l),
(348,327,ls),
(359,327,o),
(365,322,o),
(365,313,cs),
(365,304,o),
(359,299,o),
(348,299,cs),
(123,299,l),
(123,28,l),
(396,28,ls),
(407,28,o),
(413,23,o),
(413,14,cs),
(413,5,o),
(407,0,o),
(396,0,cs),
(115,0,ls),
(98,0,o),
(91,7,o),
(91,24,cs),
(91,572,ls),
(91,589,o),
(98,596,o),
(115,596,cs),
(384,596,ls),
(395,596,o),
(401,591,o),
(401,582,cs),
(401,573,o),
(395,568,o),
(384,568,cs),
(123,568,l)
);
}
);
width = 445;
}
);
note = E;
unicode = 69;
},
{
glyphname = F;
kernRight = F;
layers = (
{
layerId = m01;
shapes = (
{
closed = 1;
nodes = (
(123,326,l),
(342,326,ls),
(353,326,o),
(359,321,o),
(359,312,cs),
(359,303,o),
(353,298,o),
(342,298,cs),
(123,298,l),
(123,12,ls),
(123,-1,o),
(117,-8,o),
(107,-8,cs),
(97,-8,o),
(91,-1,o),
(91,12,cs),
(91,572,ls),
(91,589,o),
(98,596,o),
(115,596,cs),
(377,596,ls),
(388,596,o),
(394,591,o),
(394,582,cs),
(394,573,o),
(388,568,o),
(377,568,cs),
(123,568,l)
);
}
);
width = 401;
}
);
note = F;
unicode = 70;
},
{
glyphname = G;
kernLeft = C;
layers = (
{
layerId = m01;
shapes = (
{
closed = 1;
nodes = (
(395,251,l),
(283,251,ls),
(272,251,o),
(266,256,o),
(266,265,cs),
(266,274,o),
(272,279,o),
(283,279,cs),
(403,279,ls),
(411,279,o),
(418,277,o),
(422,273,cs),
(425,269,o),
(427,263,o),
(427,255,cs),
(427,35,ls),
(427,21,o),
(423,14,o),
(413,10,cs),
(388,-1,o),
(323,-10,o),
(265,-10,cs),
(177,-10,o),
(120,18,o),
(88,78,cs),
(70,113,o),
(58,184,o),
(58,260,cs),
(58,336,ls),
(58,424,o),
(72,496,o),
(97,532,cs),
(130,580,o),
(185,606,o),
(257,606,cs),
(315,606,o),
(362,591,o),
(401,560,cs),
(406,556,o),
(408,551,o),
(408,546,cs),
(408,537,o),
(400,529,o),
(391,529,cs),
(386,529,o),
(383,531,o),
(373,539,cs),
(339,566,o),
(304,578,o),
(256,578,cs),
(189,578,o),
(141,550,o),
(115,496,cs),
(101,467,o),
(90,397,o),
(90,339,cs),
(90,257,ls),
(90,232,o),
(93,195,o),
(98,163,cs),
(114,60,o),
(164,18,o),
(272,18,cs),
(320,18,o),
(353,23,o),
(395,35,c)
);
}
);
width = 496;
}
);
note = G;
unicode = 71;
},
{
glyphname = H;
layers = (
{
layerId = m01;
shapes = (
{
closed = 1;
nodes = (
(428,327,l),
(428,584,ls),
(428,597,o),
(434,604,o),
(444,604,cs),
(454,604,o),
(460,597,o),
(460,584,cs),
(460,12,ls),
(460,-1,o),
(454,-8,o),
(444,-8,cs),
(434,-8,o),
(428,-1,o),
(428,12,cs),
(428,299,l),
(123,299,l),
(123,12,ls),
(123,-1,o),
(117,-8,o),
(107,-8,cs),
(97,-8,o),
(91,-1,o),
(91,12,cs),
(91,584,ls),
(91,597,o),
(97,604,o),
(107,604,cs),
(117,604,o),
(123,597,o),
(123,584,cs),
(123,327,l)
);
}
);
width = 551;
}
);
note = H;
unicode = 72;
},
{
glyphname = I;
layers = (
{
layerId = m01;
shapes = (
{
closed = 1;
nodes = (
(98,584,ls),
(98,597,o),
(104,604,o),
(114,604,cs),
(124,604,o),
(130,597,o),
(130,584,cs),
(130,12,ls),
(130,-1,o),
(124,-8,o),
(114,-8,cs),
(104,-8,o),
(98,-1,o),
(98,12,cs)
);
}
);
width = 228;
}
);
note = I;
unicode = 73;
},
{
glyphname = J;
kernLeft = J;
layers = (
{
layerId = m01;
shapes = (
{
closed = 1;
nodes = (
(140,93,ls),
(140,-14,o),
(134,-60,o),
(115,-91,cs),
(100,-115,o),
(61,-135,o),
(33,-135,cs),
(24,-135,o),
(18,-129,o),
(18,-120,cs),
(18,-116,o),
(19,-113,o),
(22,-110,cs),
(25,-108,o),
(30,-106,o),
(39,-104,cs),
(94,-92,o),
(108,-52,o),
(108,94,cs),
(108,584,ls),
(108,597,o),
(114,604,o),
(124,604,cs),
(134,604,o),
(140,597,o),
(140,584,cs)
);
}
);
width = 236;
}
);
note = J;
unicode = 74;
},
{
glyphname = K;
kernRight = K;
layers = (
{
layerId = m01;
shapes = (
{
closed = 1;
nodes = (
(387,595,ls),
(392,600,o),
(396,602,o),
(400,602,cs),
(408,602,o),
(415,595,o),
(415,587,cs),
(415,583,o),
(413,579,o),
(408,574,cs),
(164,324,l),
(430,23,ls),
(435,18,o),
(437,14,o),
(437,10,cs),
(437,1,o),
(430,-6,o),
(421,-6,cs),
(416,-6,o),
(411,-4,o),
(406,2,cs),
(126,319,l),
(126,12,ls),
(126,-1,o),
(120,-8,o),
(110,-8,cs),
(100,-8,o),
(94,-1,o),
(94,12,cs),
(94,584,ls),
(94,597,o),
(100,604,o),
(110,604,cs),
(120,604,o),
(126,597,o),
(126,584,cs),
(126,326,l)
);
}
);
width = 450;
}
);
note = K;
unicode = 75;
},
{
glyphname = L;
kernRight = L;
layers = (
{
layerId = m01;
shapes = (
{
closed = 1;
nodes = (
(364,28,ls),
(375,28,o),
(381,23,o),
(381,14,cs),
(381,5,o),
(375,0,o),
(364,0,cs),
(118,0,ls),
(101,0,o),
(94,7,o),
(94,24,cs),
(94,584,ls),
(94,597,o),
(100,604,o),
(110,604,cs),
(120,604,o),
(126,597,o),
(126,584,cs),
(126,28,l)
);
}
);
width = 390;
}
);
note = L;
unicode = 76;
},
{
glyphname = M;
layers = (
{
layerId = m01;
shapes = (
{
closed = 1;
nodes = (
(108,12,ls),
(107,-1,o),
(101,-8,o),
(91,-8,cs),
(80,-8,o),
(74,-1,o),
(74,11,cs),
(74,12,o),
(74,13,o),
(74,14,cs),
(107,583,ls),
(108,596,o),
(115,604,o),
(126,604,cs),
(134,604,o),
(140,599,o),
(144,589,cs),
(329,123,l),
(514,589,ls),
(518,599,o),
(524,604,o),
(532,604,cs),
(543,604,o),
(550,596,o),
(551,583,cs),
(584,14,ls),
(584,13,o),
(584,12,o),
(584,11,cs),
(584,-1,o),
(578,-8,o),
(567,-8,cs),
(557,-8,o),
(551,-1,o),
(550,12,cs),
(521,514,l),
(337,57,ls),
(335,53,o),
(333,51,o),
(329,51,cs),
(325,51,o),
(323,53,o),
(321,57,cs),
(137,514,l)
);
}
);
width = 657;
}
);
note = M;
unicode = 77;
},
{
glyphname = N;
layers = (
{
layerId = m01;
shapes = (
{
closed = 1;
nodes = (
(449,584,ls),
(449,597,o),
(455,604,o),
(465,604,cs),
(475,604,o),
(481,597,o),
(481,584,cs),
(481,13,ls),
(481,0,o),
(475,-7,o),
(464,-7,cs),
(457,-7,o),
(453,-4,o),
(448,4,cs),
(126,544,l),
(126,12,ls),
(126,-1,o),
(120,-8,o),
(110,-8,cs),
(100,-8,o),
(94,-1,o),
(94,12,cs),
(94,577,ls),
(94,593,o),
(102,603,o),
(116,603,cs),
(125,603,o),
(131,599,o),
(137,588,cs),
(449,64,l)
);
}
);
width = 575;
}
);
note = N;
unicode = 78;
},
{
glyphname = O;
kernLeft = C;
layers = (
{
layerId = m01;
shapes = (
{
closed = 1;
nodes = (
(466,260,ls),
(466,112,o),
(436,-10,o),
(262,-10,cs),
(87,-10,o),
(58,113,o),
(58,260,cs),
(58,336,ls),
(58,484,o),
(88,606,o),
(262,606,cs),
(437,606,o),
(466,483,o),
(466,336,cs)
);
},
{
closed = 1;
nodes = (
(96,133,o),
(107,18,o),
(262,18,cs),
(411,18,o),
(434,134,o),
(434,257,cs),
(434,339,ls),
(434,463,o),
(410,578,o),
(262,578,cs),
(113,578,o),
(90,462,o),
(90,339,cs),
(90,257,l)
);
}
);
width = 524;
}
);
note = O;
unicode = 79;
},
{
glyphname = P;
kernRight = P;
layers = (
{
layerId = m01;
shapes = (
{
closed = 1;
nodes = (
(123,12,ls),
(123,-1,o),
(117,-8,o),
(107,-8,cs),
(97,-8,o),
(91,-1,o),
(91,12,cs),
(91,572,ls),
(91,589,o),
(98,596,o),
(115,596,cs),
(235,596,ls),
(367,596,o),
(421,548,o),
(421,431,cs),
(421,310,o),
(363,262,o),
(214,262,cs),
(123,262,l)
);
},
{
closed = 1;
nodes = (
(218,290,ls),
(347,290,o),
(388,324,o),
(388,431,cs),
(388,534,o),
(351,568,o),
(239,568,cs),
(123,568,l),
(123,290,l)
);
}
);
width = 478;
}
);
note = P;
unicode = 80;
},
{
glyphname = Q;
kernLeft = C;
layers = (
{
layerId = m01;
shapes = (
{
closed = 1;
nodes = (
(366,34,l),
(508,-22,o),
(512,-27,o),
(512,-34,cs),
(512,-42,o),
(505,-49,o),
(498,-49,cs),
(495,-49,o),
(491,-48,o),
(487,-46,cs),
(340,19,l)
);
},
{
closed = 1;
nodes = (
(466,260,ls),
(466,112,o),
(436,-10,o),
(262,-10,cs),
(87,-10,o),
(58,113,o),
(58,260,cs),
(58,336,ls),
(58,484,o),
(88,606,o),
(262,606,cs),
(437,606,o),
(466,483,o),
(466,336,cs)
);
},
{
closed = 1;
nodes = (
(96,133,o),
(107,18,o),
(262,18,cs),
(411,18,o),
(434,134,o),
(434,257,cs),
(434,339,ls),
(434,463,o),
(410,578,o),
(262,578,cs),
(113,578,o),
(90,462,o),
(90,339,cs),
(90,257,l)
);
}
);
width = 525;
}
);
note = Q;
unicode = 81;
},
{
glyphname = R;
kernRight = R;
layers = (
{
layerId = m01;
shapes = (
{
closed = 1;
nodes = (
(123,12,ls),
(123,-1,o),
(117,-8,o),
(107,-8,cs),
(97,-8,o),
(91,-1,o),
(91,12,cs),
(91,572,ls),
(91,589,o),
(98,596,o),
(115,596,cs),
(235,596,ls),
(367,596,o),
(421,548,o),
(421,431,cs),
(421,341,o),
(388,292,o),
(316,273,c),
(330,261,o),
(341,243,o),
(357,206,cs),
(437,21,ls),
(439,17,o),
(440,13,o),
(440,9,cs),
(440,1,o),
(432,-7,o),
(422,-7,cs),
(414,-7,o),
(408,-3,o),
(404,7,cs),
(325,195,ls),
(314,222,o),
(300,245,o),
(290,253,cs),
(279,261,o),
(271,262,o),
(236,262,cs),
(123,262,l)
);
},
{
closed = 1;
nodes = (
(218,290,ls),
(347,290,o),
(388,324,o),
(388,431,cs),
(388,534,o),
(351,568,o),
(239,568,cs),
(123,568,l),
(123,290,l)
);
}
);
width = 488;
}
);
note = R;
unicode = 82;
},
{
glyphname = S;
kernRight = S;
layers = (
{
layerId = m01;
shapes = (
{
closed = 1;
nodes = (
(74,373,o),
(51,403,o),
(51,472,cs),
(51,559,o),
(104,606,o),
(201,606,cs),
(255,606,o),
(318,582,o),
(318,562,cs),
(318,554,o),
(310,546,o),
(301,546,cs),
(298,546,o),
(293,548,o),
(286,553,cs),
(260,570,o),
(233,578,o),
(200,578,cs),
(124,578,o),
(84,542,o),
(84,474,cs),
(84,396,o),
(141,373,o),
(200,338,cs),
(280,290,o),
(345,255,o),
(345,150,cs),
(345,48,o),
(282,-10,o),
(171,-10,cs),
(113,-10,o),
(74,3,o),
(35,37,cs),
(29,42,o),
(27,46,o),
(27,52,cs),
(27,61,o),
(34,68,o),
(43,68,cs),
(49,68,o),
(52,66,o),
(58,60,cs),
(85,33,o),
(125,18,o),
(171,18,cs),
(262,18,o),
(312,64,o),
(312,149,cs),
(312,242,o),
(243,272,o),
(173,314,cs)
);
}
);
width = 390;
}
);
note = S;
unicode = 83;
},
{
glyphname = T;
kernLeft = T;
kernRight = T;
layers = (
{
layerId = m01;
shapes = (
{
closed = 1;
nodes = (
(27,568,ls),
(16,568,o),
(10,573,o),
(10,582,cs),
(10,591,o),
(16,596,o),
(27,596,cs),
(391,596,ls),
(402,596,o),
(408,591,o),
(408,582,cs),
(408,573,o),
(402,568,o),
(391,568,cs),
(225,568,l),
(225,12,ls),
(225,-1,o),
(219,-8,o),
(209,-8,cs),
(199,-8,o),
(193,-1,o),
(193,12,cs),
(193,568,l)
);
}
);
width = 418;
}
);
note = T;
unicode = 84;
},
{
glyphname = U;
layers = (
{
layerId = m01;
shapes = (
{
closed = 1;
nodes = (
(431,103,o),
(424,67,o),
(403,40,cs),
(376,5,o),
(334,-10,o),
(260,-10,cs),
(180,-10,o),
(134,8,o),
(110,51,cs),
(95,77,o),
(89,112,o),
(89,180,cs),
(89,584,ls),
(89,597,o),
(95,604,o),
(105,604,cs),
(115,604,o),
(121,597,o),
(121,584,cs),
(121,189,ls),
(121,124,o),
(128,84,o),
(142,63,cs),
(164,32,o),
(200,18,o),
(260,18,cs),
(325,18,o),
(364,35,o),
(383,72,cs),
(394,92,o),
(399,132,o),
(399,189,cs),
(399,584,ls),
(399,597,o),
(405,604,o),
(415,604,cs),
(425,604,o),
(431,597,o),
(431,584,cs),
(431,180,ls)
);
}
);
width = 520;
}
);
note = U;
unicode = 85;
},
{
glyphname = V;
kernLeft = V;
kernRight = V;
layers = (
{
layerId = m01;
shapes = (
{
closed = 1;
nodes = (
(388,589,ls),
(391,599,o),
(396,604,o),
(403,604,cs),
(412,604,o),
(419,597,o),
(419,589,cs),
(419,586,o),
(419,583,o),
(418,580,cs),
(235,4,ls),
(233,-4,o),
(229,-8,o),
(222,-8,cs),
(216,-8,o),
(212,-4,o),
(209,4,cs),
(27,580,ls),
(26,583,o),
(25,587,o),
(25,589,cs),
(25,597,o),
(32,604,o),
(41,604,cs),
(48,604,o),
(53,599,o),
(56,589,cs),
(222,73,l)
);
}
);
width = 445;
}
);
note = V;
unicode = 86;
},
{
glyphname = W;
kernLeft = V;
kernRight = V;
layers = (
{
layerId = m01;
shapes = (
{
closed = 1;
nodes = (
(326,590,ls),
(329,600,o),
(333,604,o),
(340,604,cs),
(348,604,o),
(352,600,o),
(355,590,cs),
(493,88,l),
(611,588,ls),
(613,599,o),
(618,604,o),
(627,604,cs),
(636,604,o),
(643,597,o),
(643,589,cs),
(643,586,o),
(643,583,o),
(642,581,c),
(507,4,l),
(506,-4,o),
(502,-8,o),
(495,-8,cs),
(489,-8,o),
(485,-4,o),
(483,4,cs),
(340,521,l),
(198,4,ls),
(196,-4,o),
(192,-8,o),
(186,-8,cs),
(179,-8,o),
(175,-4,o),
(173,4,cs),
(39,581,l),
(38,583,o),
(38,586,o),
(38,589,cs),
(38,597,o),
(45,604,o),
(54,604,cs),
(62,604,o),
(68,599,o),
(70,588,cs),
(188,88,l)
);
}
);
width = 681;
}
);
note = W;
unicode = 87;
},
{
glyphname = X;
kernLeft = X;
kernRight = X;
layers = (
{
layerId = m01;
shapes = (
{
closed = 1;
nodes = (
(60,577,ls),
(57,582,o),
(56,586,o),
(56,589,cs),
(56,596,o),
(63,603,o),
(71,603,cs),
(78,603,o),
(82,600,o),
(86,592,cs),
(226,346,l),
(368,592,ls),
(372,600,o),
(376,603,o),
(383,603,cs),
(391,603,o),
(398,596,o),
(398,589,cs),
(398,586,o),
(397,582,o),
(394,577,cs),
(244,313,l),
(410,19,ls),
(413,14,o),
(414,10,o),
(414,7,cs),
(414,0,o),
(407,-7,o),
(399,-7,cs),
(392,-7,o),
(388,-4,o),
(384,4,cs),
(224,285,l),
(52,3,ls),
(47,-4,o),
(43,-7,o),
(37,-7,cs),
(29,-7,o),
(22,0,o),
(22,7,cs),
(22,10,o),
(23,15,o),
(26,19,cs),
(206,319,l)
);
}
);
width = 444;
}
);
note = X;
unicode = 88;
},
{
glyphname = Y;
kernLeft = Y;
kernRight = Y;
layers = (
{
layerId = m01;
shapes = (
{
closed = 1;
nodes = (
(35,579,ls),
(33,583,o),
(32,586,o),
(32,589,cs),
(32,596,o),
(39,603,o),
(47,603,cs),
(54,603,o),
(59,600,o),
(63,592,cs),
(213,278,l),
(362,591,ls),
(366,600,o),
(371,603,o),
(378,603,cs),
(386,603,o),
(393,596,o),
(393,589,cs),
(393,586,o),
(392,582,o),
(390,578,cs),
(229,239,l),
(229,12,ls),
(229,-1,o),
(223,-8,o),
(213,-8,cs),
(203,-8,o),
(197,-1,o),
(197,12,cs),
(197,239,l)
);
}
);
width = 425;
}
);
note = Y;
unicode = 89;
},
{
glyphname = Z;
kernLeft = Z;
kernRight = Z;
layers = (
{
layerId = m01;
shapes = (
{
closed = 1;
nodes = (
(69,568,ls),
(59,568,o),
(52,573,o),
(52,582,cs),
(52,591,o),
(59,596,o),
(69,596,cs),
(350,596,ls),
(366,596,o),
(371,590,o),
(370,582,cs),
(369,574,o),
(364,565,o),
(359,557,cs),
(65,28,l),
(378,28,ls),
(389,28,o),
(395,23,o),
(395,14,cs),
(395,5,o),
(389,0,o),
(378,0,cs),
(48,0,ls),
(37,0,o),
(30,0,o),
(30,12,cs),
(30,15,o),
(31,22,o),
(35,33,c),
(332,568,l)
);
}
);
width = 420;
}
);
note = Z;
unicode = 90;
},
{
glyphname = bracketleft;
layers = (
{
layerId = m01;
shapes = (
{
closed = 1;
nodes = (
(162,-125,l),
(245,-125,ls),
(256,-125,o),
(262,-130,o),
(262,-139,cs),
(262,-148,o),
(256,-153,o),
(245,-153,cs),
(154,-153,ls),
(137,-153,o),
(130,-146,o),
(130,-129,cs),
(130,624,ls),
(130,641,o),
(137,648,o),
(154,648,cs),
(245,648,ls),
(256,648,o),
(262,643,o),
(262,634,cs),
(262,625,o),
(256,620,o),
(245,620,cs),
(162,620,l)
);
}
);
width = 296;
}
);
note = bracketleft;
unicode = 91;
},
{
glyphname = backslash;
layers = (
{
layerId = m01;
shapes = (
{
closed = 1;
nodes = (
(8,581,ls),
(7,584,o),
(7,588,o),
(7,590,cs),
(7,598,o),
(14,604,o),
(22,604,cs),
(29,604,o),
(34,600,o),
(37,590,cs),
(210,15,ls),
(211,12,o),
(211,9,o),
(211,6,cs),
(211,-1,o),
(204,-8,o),
(196,-8,cs),
(189,-8,o),
(184,-3,o),
(181,6,cs)
);
}
);
width = 218;
}
);
note = backslash;
unicode = 92;
},
{
glyphname = bracketright;
layers = (
{
layerId = m01;
shapes = (
{
closed = 1;
nodes = (
(134,620,l),
(51,620,ls),
(40,620,o),
(34,625,o),
(34,634,cs),
(34,643,o),
(40,648,o),
(51,648,cs),
(142,648,ls),
(159,648,o),
(166,641,o),
(166,624,cs),
(166,-129,ls),
(166,-146,o),
(159,-153,o),
(142,-153,cs),
(51,-153,ls),
(40,-153,o),
(34,-148,o),
(34,-139,cs),
(34,-130,o),
(40,-125,o),
(51,-125,cs),
(134,-125,l)
);
}
);
width = 296;
}
);
note = bracketright;
unicode = 93;
},
{
glyphname = asciicircum;
layers = (
{
layerId = m01;
shapes = (
{
closed = 1;
nodes = (
(100,315,ls),
(96,307,o),
(91,304,o),
(85,304,cs),
(76,304,o),
(69,311,o),
(69,318,cs),
(69,321,o),
(70,325,o),
(72,330,cs),
(217,604,ls),
(221,611,o),
(225,614,o),
(231,614,cs),
(237,614,o),
(241,611,o),
(245,604,cs),
(390,330,ls),
(392,325,o),
(393,321,o),
(393,318,cs),
(393,311,o),
(386,304,o),
(378,304,cs),
(371,304,o),
(367,307,o),
(363,315,cs),
(231,565,l)
);
}
);
width = 463;
}
);
note = asciicircum;
unicode = 94;
},
{
glyphname = underscore;
layers = (
{
layerId = m01;
shapes = (
{
closed = 1;
nodes = (
(384,-78,ls),
(394,-78,o),
(400,-83,o),
(400,-91,cs),
(400,-99,o),
(394,-104,o),
(384,-104,cs),
(0,-104,ls),
(-10,-104,o),
(-16,-99,o),
(-16,-91,cs),
(-16,-83,o),
(-10,-78,o),
(0,-78,cs)
);
}
);
width = 384;
}
);
note = underscore;
unicode = 95;
},
{
glyphname = grave;
layers = (
{
layerId = m01;
shapes = (
{
closed = 1;
nodes = (
(114,533,o),
(111,539,o),
(111,544,cs),
(111,555,o),
(120,564,o),
(131,564,cs),
(139,564,o),
(145,560,o),
(151,550,cs),
(194,476,ls),
(196,473,o),
(197,470,o),
(197,468,cs),
(197,462,o),
(191,457,o),
(185,457,cs),
(181,457,o),
(178,459,o),
(175,463,cs),
(119,527,ls)
);
}
);
width = 333;
}
);
note = grave;
unicode = 96;
},
{
glyphname = a;
kernLeft = a;
kernRight = a;
layers = (
{
layerId = m01;
shapes = (
{
closed = 1;
nodes = (
(295,247,ls),
(295,329,o),
(273,356,o),
(205,356,cs),
(162,356,o),
(125,343,o),
(100,318,cs),
(95,314,o),
(92,312,o),
(87,312,cs),
(79,312,o),
(72,319,o),
(72,327,cs),
(72,332,o),
(74,336,o),
(78,340,cs),
(112,370,o),
(152,384,o),
(201,384,cs),
(256,384,o),
(294,368,o),
(312,338,cs),
(324,318,o),
(328,292,o),
(328,226,cs),
(328,10,ls),
(328,-1,o),
(323,-8,o),
(313,-8,cs),
(304,-8,o),
(299,-2,o),
(297,42,c),
(268,7,o),
(225,-10,o),
(165,-10,cs),
(86,-10,o),
(46,27,o),
(46,98,cs),
(46,145,o),
(63,180,o),
(98,202,cs),
(126,220,o),
(174,229,o),
(249,229,cs),
(262,229,o),
(273,229,o),
(295,228,c)
);
},
{
closed = 1;
nodes = (
(277,200,o),
(258,200,o),
(239,200,cs),
(119,199,o),
(79,173,o),
(79,95,cs),
(79,42,o),
(107,18,o),
(167,18,cs),
(218,18,o),
(296,38,o),
(296,101,cs),
(296,199,l)
);
}
);
width = 402;
}
);
note = a;
unicode = 97;
},
{
glyphname = b;
kernRight = b;
layers = (
{
layerId = m01;
shapes = (
{
closed = 1;
nodes = (
(128,361,o),
(175,384,o),
(232,384,cs),
(325,384,o),
(370,329,o),
(370,214,cs),
(370,170,ls),
(370,50,o),
(321,-10,o),
(223,-10,cs),
(164,-10,o),
(129,8,o),
(108,49,c),
(105,-2,o),
(100,-8,o),
(91,-8,cs),
(82,-8,o),
(77,-2,o),
(77,9,cs),
(77,609,ls),
(77,622,o),
(83,629,o),
(93,629,cs),
(103,629,o),
(109,622,o),
(109,609,cs),
(109,324,l)
);
},
{
closed = 1;
nodes = (
(113,54,o),
(141,18,o),
(221,18,cs),
(301,18,o),
(338,64,o),
(338,163,cs),
(338,209,ls),
(338,311,o),
(306,356,o),
(233,356,cs),
(150,356,o),
(109,308,o),
(109,209,cs),
(109,165,ls)
);
}
);
width = 421;
}
);
note = b;
unicode = 98;
},
{
glyphname = c;
kernLeft = c;
kernRight = c;
layers = (
{
layerId = m01;
shapes = (
{
closed = 1;
nodes = (
(51,327,o),
(102,384,o),
(202,384,cs),
(245,384,o),
(274,373,o),
(304,346,cs),
(310,341,o),
(313,336,o),
(313,331,cs),
(313,322,o),
(306,315,o),
(297,315,cs),
(292,315,o),
(288,317,o),
(283,322,cs),
(261,345,o),
(236,356,o),
(201,356,cs),
(121,356,o),
(83,309,o),
(83,209,cs),
(83,165,ls),
(83,65,o),
(121,18,o),
(202,18,cs),
(238,18,o),
(271,29,o),
(295,50,cs),
(302,56,o),
(305,58,o),
(310,58,cs),
(318,58,o),
(325,51,o),
(325,43,cs),
(325,37,o),
(322,33,o),
(313,26,cs),
(282,2,o),
(245,-10,o),
(201,-10,cs),
(102,-10,o),
(51,48,o),
(51,160,cs),
(51,214,ls)
);
}
);
width = 353;
}
);
note = c;
unicode = 99;
},
{
glyphname = d;
kernLeft = c;
layers = (
{
layerId = m01;
shapes = (
{
closed = 1;
nodes = (
(312,609,ls),
(312,622,o),
(318,629,o),
(328,629,cs),
(338,629,o),
(344,622,o),
(344,609,cs),
(344,10,ls),
(344,-2,o),
(339,-8,o),
(330,-8,cs),
(321,-8,o),
(316,-2,o),
(313,49,c),
(289,8,o),
(253,-10,o),
(193,-10,cs),
(94,-10,o),
(51,44,o),
(51,170,cs),
(51,206,ls),
(51,326,o),
(98,384,o),
(195,384,cs),
(251,384,o),
(292,364,o),
(312,326,c)
);
},
{
closed = 1;
nodes = (
(309,264,o),
(304,288,o),
(291,310,cs),
(273,340,o),
(240,356,o),
(197,356,cs),
(119,356,o),
(83,307,o),
(83,201,cs),
(83,163,ls),
(83,62,o),
(117,18,o),
(195,18,cs),
(275,18,o),
(312,65,o),
(312,165,cs),
(312,209,ls)
);
}
);
width = 421;
}
);
note = d;
unicode = 100;
},
{
glyphname = e;
kernLeft = c;
kernRight = e;
layers = (
{
layerId = m01;
shapes = (
{
closed = 1;
nodes = (
(83,165,ls),
(83,63,o),
(120,18,o),
(205,18,cs),
(248,18,o),
(283,29,o),
(315,53,cs),
(319,56,o),
(323,58,o),
(327,58,cs),
(335,58,o),
(342,51,o),
(342,42,cs),
(342,36,o),
(339,32,o),
(329,25,cs),
(295,2,o),
(253,-10,o),
(203,-10,cs),
(100,-10,o),
(51,45,o),
(51,160,cs),
(51,214,ls),
(51,328,o),
(102,384,o),
(204,384,cs),
(254,384,o),
(290,371,o),
(314,344,cs),
(338,316,o),
(349,273,o),
(349,213,cs),
(349,199,o),
(340,192,o),
(325,192,cs),
(83,192,l)
);
},
{
closed = 1;
nodes = (
(313,317,o),
(281,356,o),
(203,356,cs),
(123,356,o),
(87,315,o),
(83,220,c),
(316,220,l)
);
}
);
width = 397;
}
);
note = e;
unicode = 101;
},
{
glyphname = f;
kernLeft = f;
kernRight = f;
layers = (
{
layerId = m01;
shapes = (
{
closed = 1;
nodes = (
(97,445,ls),
(97,531,o),
(100,629,o),
(211,629,cs),
(259,629,o),
(309,608,o),
(309,588,cs),
(309,580,o),
(302,573,o),
(294,573,cs),
(281,573,o),
(258,601,o),
(211,601,cs),
(150,601,o),
(129,562,o),
(129,446,cs),
(129,374,l),
(249,374,ls),
(260,374,o),
(266,369,o),
(266,360,cs),
(266,351,o),
(260,346,o),
(249,346,cs),
(129,346,l),
(129,12,ls),
(129,-1,o),
(123,-8,o),
(113,-8,cs),
(103,-8,o),
(97,-1,o),
(97,12,cs),
(97,346,l),
(24,346,ls),
(13,346,o),
(7,351,o),
(7,360,cs),
(7,369,o),
(13,374,o),
(24,374,cs),
(97,374,l)
);
}
);
width = 269;
}
);
note = f;
unicode = 102;
},
{
glyphname = g;
kernLeft = c;
layers = (
{
layerId = m01;
shapes = (
{
closed = 1;
nodes = (
(288,7,o),
(252,-10,o),
(194,-10,cs),
(94,-10,o),
(51,44,o),
(51,170,cs),
(51,206,ls),
(51,326,o),
(98,384,o),
(196,384,cs),
(252,384,o),
(291,365,o),
(312,326,c),
(314,376,o),
(320,382,o),
(329,382,cs),
(338,382,o),
(344,375,o),
(344,364,cs),
(344,11,ls),
(344,-81,o),
(337,-120,o),
(315,-151,cs),
(288,-189,o),
(243,-208,o),
(181,-208,cs),
(130,-208,o),
(91,-195,o),
(59,-167,cs),
(55,-164,o),
(53,-160,o),
(53,-155,cs),
(53,-147,o),
(60,-140,o),
(68,-140,cs),
(72,-140,o),
(76,-142,o),
(80,-145,cs),
(106,-168,o),
(141,-180,o),
(183,-180,cs),
(307,-180,o),
(312,-87,o),
(312,11,cs),
(312,46,l)
);
},
{
closed = 1;
nodes = (
(309,288,o),
(293,356,o),
(197,356,cs),
(119,356,o),
(83,307,o),
(83,201,cs),
(83,163,ls),
(83,62,o),
(117,18,o),
(195,18,cs),
(275,18,o),
(312,64,o),
(312,165,cs),
(312,209,ls)
);
}
);
width = 421;
}
);
note = g;
unicode = 103;
},
{
glyphname = h;
kernLeft = h;
layers = (
{
layerId = m01;
shapes = (
{
closed = 1;
nodes = (
(134,367,o),
(173,384,o),
(231,384,cs),
(302,384,o),
(343,356,o),
(358,298,cs),
(362,280,o),
(365,247,o),
(365,205,cs),
(365,12,ls),
(365,-1,o),
(359,-8,o),
(349,-8,cs),
(339,-8,o),
(333,-1,o),
(333,12,cs),
(333,202,ls),
(333,250,o),
(329,285,o),
(321,303,cs),
(306,338,o),
(275,356,o),
(232,356,cs),
(188,356,o),
(149,341,o),
(130,316,cs),
(115,295,o),
(109,264,o),
(109,202,cs),
(109,12,ls),
(109,-1,o),
(103,-8,o),
(93,-8,cs),
(83,-8,o),
(77,-1,o),
(77,12,cs),
(77,609,ls),
(77,622,o),
(83,629,o),
(93,629,cs),
(103,629,o),
(109,622,o),
(109,609,cs),
(109,331,l)
);
}
);
width = 439;
}
);
note = h;
unicode = 104;
},
{
glyphname = i;
layers = (
{
layerId = m01;
shapes = (
{
closed = 1;
nodes = (
(115,541,o),
(123,529,o),
(123,507,cs),
(123,484,o),
(115,472,o),
(100,472,cs),
(85,472,o),
(77,484,o),
(77,507,cs),
(77,529,o),
(85,541,o),
(100,541,cs)
);
},
{
closed = 1;
nodes = (
(84,362,ls),
(84,375,o),
(90,382,o),
(100,382,cs),
(110,382,o),
(116,375,o),
(116,362,cs),
(116,12,ls),
(116,-1,o),
(110,-8,o),
(100,-8,cs),
(90,-8,o),
(84,-1,o),
(84,12,cs)
);
}
);
width = 200;
}
);
note = i;
unicode = 105;
},
{
glyphname = j;
layers = (
{
layerId = m01;
shapes = (
{
closed = 1;
nodes = (
(118,-102,o),
(111,-141,o),
(89,-169,cs),
(76,-185,o),
(47,-200,o),
(28,-200,cs),
(21,-200,o),
(15,-194,o),
(15,-186,cs),
(15,-178,o),
(19,-174,o),
(32,-171,cs),
(73,-160,o),
(86,-118,o),
(86,2,cs),
(86,362,ls),
(86,375,o),
(92,382,o),
(102,382,cs),
(112,382,o),
(118,375,o),
(118,362,cs),
(118,-6,ls)
);
},
{
closed = 1;
nodes = (
(116,541,o),
(124,529,o),
(124,507,cs),
(124,484,o),
(116,472,o),
(101,472,cs),
(86,472,o),
(78,484,o),
(78,507,cs),
(78,529,o),
(86,541,o),
(101,541,cs)
);
}
);
width = 201;
}
);
note = j;
unicode = 106;
},
{
glyphname = k;
kernRight = k;
layers = (
{
layerId = m01;
shapes = (
{
closed = 1;
nodes = (
(295,374,ls),
(299,377,o),
(303,379,o),
(306,379,cs),
(314,379,o),
(320,373,o),
(320,365,cs),
(320,361,o),
(317,357,o),
(312,353,cs),
(142,212,l),
(334,22,ls),
(339,17,o),
(341,13,o),
(341,9,cs),
(341,1,o),
(334,-6,o),
(326,-6,cs),
(322,-6,o),
(318,-4,o),
(313,1,cs),
(109,203,l),
(109,12,ls),
(109,-1,o),
(103,-8,o),
(93,-8,cs),
(83,-8,o),
(77,-1,o),
(77,12,cs),
(77,609,ls),
(77,622,o),
(83,629,o),
(93,629,cs),
(103,629,o),
(109,622,o),
(109,609,cs),
(109,219,l)
);
}
);
width = 372;
}
);
note = k;
unicode = 107;
},
{
glyphname = l;
layers = (
{
layerId = m01;
shapes = (
{
closed = 1;
nodes = (
(144,-8,o),
(120,5,o),
(106,25,cs),
(89,50,o),
(82,92,o),
(82,169,cs),
(82,609,ls),
(82,622,o),
(88,629,o),
(98,629,cs),
(108,629,o),
(114,622,o),
(114,609,cs),
(114,172,ls),
(114,60,o),
(125,30,o),
(170,21,cs),
(179,19,o),
(184,14,o),
(184,6,cs),
(184,-2,o),
(178,-8,o),
(169,-8,cs)
);
}
);
width = 203;
}
);
note = l;
unicode = 108;
},
{
glyphname = m;
kernLeft = m;
layers = (
{
layerId = m01;
shapes = (
{
closed = 1;
nodes = (
(135,368,o),
(170,384,o),
(223,384,cs),
(284,384,o),
(322,361,o),
(338,313,c),
(363,362,o),
(403,384,o),
(467,384,cs),
(535,384,o),
(574,357,o),
(588,298,cs),
(593,279,o),
(595,250,o),
(595,205,cs),
(595,12,ls),
(595,-1,o),
(589,-8,o),
(579,-8,cs),
(569,-8,o),
(563,-1,o),
(563,12,cs),
(563,202,ls),
(563,250,o),
(559,285,o),
(552,303,cs),
(537,338,o),
(509,356,o),
(468,356,cs),
(426,356,o),
(390,341,o),
(373,316,cs),
(358,294,o),
(352,263,o),
(352,205,cs),
(352,12,ls),
(352,-1,o),
(346,-8,o),
(336,-8,cs),
(326,-8,o),
(320,-1,o),
(320,12,cs),
(320,202,ls),
(320,250,o),
(316,285,o),
(309,303,cs),
(294,338,o),
(265,356,o),
(225,356,cs),
(183,356,o),
(147,341,o),
(130,315,cs),
(115,294,o),
(109,263,o),
(109,202,cs),
(109,12,ls),
(109,-1,o),
(103,-8,o),
(93,-8,cs),
(83,-8,o),
(77,-1,o),
(77,12,cs),
(77,364,ls),
(77,375,o),
(82,382,o),
(92,382,cs),
(101,382,o),
(107,376,o),
(109,332,c)
);
}
);
width = 669;
}
);
note = m;
unicode = 109;
},
{
glyphname = n;
kernLeft = m;
layers = (
{
layerId = m01;
shapes = (
{
closed = 1;
nodes = (
(134,367,o),
(173,384,o),
(231,384,cs),
(302,384,o),
(343,356,o),
(358,298,cs),
(362,280,o),
(365,247,o),
(365,205,cs),
(365,12,ls),
(365,-1,o),
(359,-8,o),
(349,-8,cs),
(339,-8,o),
(333,-1,o),
(333,12,cs),
(333,202,ls),
(333,250,o),
(329,285,o),
(321,303,cs),
(306,338,o),
(275,356,o),
(232,356,cs),
(188,356,o),
(149,341,o),
(131,316,cs),
(115,293,o),
(109,263,o),
(109,202,cs),
(109,12,ls),
(109,-1,o),
(103,-8,o),
(93,-8,cs),
(83,-8,o),
(77,-1,o),
(77,12,cs),
(77,364,ls),
(77,375,o),
(82,382,o),
(92,382,cs),
(101,382,o),
(107,376,o),
(109,330,c)
);
}
);
width = 439;
}
);
note = n;
unicode = 110;
},
{
glyphname = o;
kernLeft = c;
kernRight = b;
layers = (
{
layerId = m01;
shapes = (
{
closed = 1;
nodes = (
(51,331,o),
(99,384,o),
(204,384,cs),
(309,384,o),
(357,331,o),
(357,214,cs),
(357,160,ls),
(357,43,o),
(309,-10,o),
(204,-10,cs),
(99,-10,o),
(51,43,o),
(51,160,cs),
(51,214,ls)
);
},
{
closed = 1;
nodes = (
(325,310,o),
(287,356,o),
(204,356,cs),
(121,356,o),
(83,310,o),
(83,209,cs),
(83,165,ls),
(87,57,o),
(119,18,o),
(204,18,cs),
(287,18,o),
(325,64,o),
(325,165,cs),
(325,209,ls)
);
}
);
width = 408;
}
);
note = o;
unicode = 111;
},
{
glyphname = p;
kernRight = b;
layers = (
{
layerId = m01;
shapes = (
{
closed = 1;
nodes = (
(134,364,o),
(175,384,o),
(233,384,cs),
(326,384,o),
(370,330,o),
(370,214,cs),
(370,170,ls),
(370,48,o),
(323,-10,o),
(222,-10,cs),
(166,-10,o),
(124,11,o),
(109,47,c),
(109,-188,ls),
(109,-201,o),
(103,-208,o),
(93,-208,cs),
(83,-208,o),
(77,-201,o),
(77,-188,cs),
(77,364,ls),
(77,375,o),
(83,382,o),
(92,382,cs),
(101,382,o),
(107,375,o),
(108,324,c)
);
},
{
closed = 1;
nodes = (
(113,54,o),
(141,18,o),
(221,18,cs),
(301,18,o),
(338,64,o),
(338,163,cs),
(338,209,ls),
(338,311,o),
(306,356,o),
(233,356,cs),
(150,356,o),
(109,308,o),
(109,209,cs),
(109,165,ls)
);
}
);
width = 421;
}
);
note = p;
unicode = 112;
},
{
glyphname = q;
kernLeft = c;
layers = (
{
layerId = m01;
shapes = (
{
closed = 1;
nodes = (
(287,6,o),
(252,-10,o),
(194,-10,cs),
(94,-10,o),
(51,44,o),
(51,170,cs),
(51,206,ls),
(51,326,o),
(98,384,o),
(196,384,cs),
(252,384,o),
(290,365,o),
(312,326,c),
(314,376,o),
(320,382,o),
(329,382,cs),
(338,382,o),
(344,375,o),
(344,364,cs),
(344,-188,ls),
(344,-201,o),
(338,-208,o),
(328,-208,cs),
(318,-208,o),
(312,-201,o),
(312,-188,cs),
(312,45,l)
);
},
{
closed = 1;
nodes = (
(83,62,o),
(117,18,o),
(195,18,cs),
(275,18,o),
(312,64,o),
(312,165,cs),
(312,209,ls),
(310,262,o),
(305,287,o),
(291,310,cs),
(273,340,o),
(240,356,o),
(197,356,cs),
(119,356,o),
(83,307,o),
(83,201,cs),
(83,163,ls)
);
}
);
width = 421;
}
);
note = q;
unicode = 113;
},
{
glyphname = r;
kernLeft = m;
kernRight = r;
layers = (
{
layerId = m01;
shapes = (
{
closed = 1;
nodes = (
(138,357,o),
(188,378,o),
(255,378,cs),
(265,378,o),
(271,373,o),
(271,364,cs),
(271,354,o),
(265,350,o),
(250,350,cs),
(147,346,o),
(109,308,o),
(109,204,cs),
(109,12,ls),
(109,-1,o),
(103,-8,o),
(93,-8,cs),
(83,-8,o),
(77,-1,o),
(77,12,cs),
(77,364,ls),
(77,375,o),
(83,382,o),
(92,382,cs),
(101,382,o),
(107,376,o),
(109,317,c)
);
}
);
width = 278;
}
);
note = r;
unicode = 114;
},
{
glyphname = s;
kernLeft = s;
kernRight = s;
layers = (
{
layerId = m01;
shapes = (
{
closed = 1;
nodes = (
(111,-10,o),
(73,8,o),
(45,49,cs),
(37,62,o),
(32,72,o),
(32,78,cs),
(32,85,o),
(39,92,o),
(47,92,cs),
(54,92,o),
(58,89,o),
(63,80,cs),
(84,40,o),
(121,18,o),
(169,18,cs),
(237,18,o),
(271,44,o),
(271,96,cs),
(271,145,o),
(252,162,o),
(161,193,cs),
(78,222,o),
(58,240,o),
(58,289,cs),
(58,350,o),
(101,384,o),
(177,384,cs),
(226,384,o),
(261,367,o),
(281,334,cs),
(283,330,o),
(284,326,o),
(284,323,cs),
(284,315,o),
(276,307,o),
(268,307,cs),
(264,307,o),
(261,309,o),
(257,314,cs),
(230,349,o),
(215,356,o),
(175,356,cs),
(122,356,o),
(91,333,o),
(91,292,cs),
(91,255,o),
(102,246,o),
(193,214,cs),
(278,184,o),
(304,157,o),
(304,97,cs),
(304,27,o),
(258,-10,o),
(169,-10,cs)
);
}
);
width = 349;
}
);
note = s;
unicode = 115;
},
{
glyphname = t;
kernLeft = t;
kernRight = t;
layers = (
{
layerId = m01;
shapes = (
{
closed = 1;
nodes = (
(24,346,ls),
(13,346,o),
(7,351,o),
(7,360,cs),
(7,369,o),
(13,374,o),
(24,374,cs),
(96,374,l),
(99,486,ls),
(99,497,o),
(105,503,o),
(114,503,cs),
(123,503,o),
(128,497,o),
(128,486,cs),
(128,374,l),
(281,374,ls),
(292,374,o),
(298,369,o),
(298,360,cs),
(298,351,o),
(292,346,o),
(281,346,cs),
(128,346,l),
(128,110,ls),
(128,41,o),
(142,18,o),
(185,18,cs),
(208,18,o),
(232,26,o),
(257,41,cs),
(260,43,o),
(263,44,o),
(265,44,cs),
(273,44,o),
(279,38,o),
(279,30,cs),
(279,13,o),
(222,-10,o),
(178,-10,cs),
(148,-10,o),
(127,-2,o),
(114,17,cs),
(101,36,o),
(96,66,o),
(96,110,cs),
(96,346,l)
);
}
);
width = 298;
}
);
note = t;
unicode = 116;
},
{
glyphname = u;
kernLeft = u;
layers = (
{
layerId = m01;
shapes = (
{
closed = 1;
nodes = (
(293,4,o),
(257,-10,o),
(201,-10,cs),
(134,-10,o),
(95,13,o),
(81,61,cs),
(76,79,o),
(74,102,o),
(74,139,cs),
(74,362,ls),
(74,375,o),
(80,382,o),
(90,382,cs),
(100,382,o),
(106,375,o),
(106,362,cs),
(106,142,ls),
(106,103,o),
(110,75,o),
(118,61,cs),
(132,32,o),
(161,18,o),
(204,18,cs),
(246,18,o),
(279,29,o),
(297,50,cs),
(313,68,o),
(318,92,o),
(318,142,cs),
(318,362,ls),
(318,375,o),
(324,382,o),
(334,382,cs),
(344,382,o),
(350,375,o),
(350,362,cs),
(350,10,ls),
(350,-1,o),
(344,-8,o),
(335,-8,cs),
(325,-8,o),
(319,-2,o),
(319,35,c)
);
}
);
width = 427;
}
);
note = u;
unicode = 117;
},
{
glyphname = v;
kernLeft = v;
kernRight = v;
layers = (
{
layerId = m01;
shapes = (
{
closed = 1;
nodes = (
(293,368,ls),
(296,377,o),
(301,381,o),
(309,381,cs),
(318,381,o),
(325,374,o),
(325,366,cs),
(325,364,o),
(324,360,o),
(322,356,cs),
(188,5,ls),
(185,-3,o),
(180,-7,o),
(173,-7,cs),
(166,-7,o),
(162,-3,o),
(159,5,cs),
(24,356,ls),
(23,360,o),
(22,363,o),
(22,366,cs),
(22,374,o),
(29,381,o),
(38,381,cs),
(46,381,o),
(51,377,o),
(54,368,cs),
(173,51,l)
);
}
);
width = 347;
}
);
note = v;
unicode = 118;
},
{
glyphname = w;
kernLeft = v;
kernRight = v;
layers = (
{
layerId = m01;
shapes = (
{
closed = 1;
nodes = (
(263,369,l),
(265,378,o),
(270,382,o),
(277,382,cs),
(283,382,o),
(288,378,o),
(291,369,cs),
(396,55,l),
(496,367,ls),
(500,377,o),
(504,382,o),
(512,382,cs),
(521,382,o),
(528,375,o),
(528,367,cs),
(528,364,o),
(527,361,o),
(527,357,c),
(411,6,ls),
(408,-4,o),
(403,-8,o),
(396,-8,cs),
(388,-8,o),
(384,-4,o),
(381,6,cs),
(277,316,l),
(173,6,ls),
(170,-4,o),
(165,-8,o),
(158,-8,cs),
(150,-8,o),
(146,-4,o),
(143,6,cs),
(27,357,ls),
(26,361,o),
(25,364,o),
(25,367,cs),
(25,375,o),
(32,382,o),
(41,382,cs),
(49,382,o),
(54,377,o),
(57,367,cs),
(157,55,l)
);
}
);
width = 552;
}
);
note = w;
unicode = 119;
},
{
glyphname = x;
kernLeft = x;
kernRight = x;
layers = (
{
layerId = m01;
shapes = (
{
closed = 1;
nodes = (
(56,354,ls),
(53,358,o),
(51,362,o),
(51,365,cs),
(51,373,o),
(58,380,o),
(66,380,cs),
(71,380,o),
(76,378,o),
(80,372,cs),
(191,219,l),
(300,371,l),
(304,378,o),
(308,381,o),
(314,381,cs),
(322,381,o),
(329,374,o),
(329,366,cs),
(329,363,o),
(327,358,o),
(324,354,cs),
(209,194,l),
(335,20,ls),
(338,16,o),
(340,12,o),
(340,9,cs),
(340,1,o),
(333,-6,o),
(325,-6,cs),
(319,-6,o),
(315,-4,o),
(310,2,cs),
(186,173,l),
(62,2,ls),
(57,-4,o),
(54,-6,o),
(48,-6,cs),
(40,-6,o),
(33,1,o),
(33,9,cs),
(33,11,o),
(35,16,o),
(38,20,cs),
(168,198,l)
);
}
);
width = 371;
}
);
note = x;
unicode = 120;
},
{
glyphname = y;
kernLeft = v;
kernRight = v;
layers = (
{
layerId = m01;
shapes = (
{
closed = 1;
nodes = (
(23,357,ls),
(22,360,o),
(21,364,o),
(21,367,cs),
(21,374,o),
(28,381,o),
(37,381,cs),
(44,381,o),
(49,377,o),
(53,368,cs),
(177,39,l),
(291,367,ls),
(294,378,o),
(299,382,o),
(307,382,cs),
(316,382,o),
(323,375,o),
(323,367,cs),
(323,364,o),
(322,360,o),
(321,357,cs),
(157,-98,ls),
(141,-142,o),
(125,-168,o),
(106,-183,cs),
(94,-191,o),
(72,-201,o),
(62,-201,cs),
(55,-201,o),
(51,-196,o),
(51,-188,cs),
(51,-179,o),
(54,-175,o),
(64,-172,cs),
(95,-161,o),
(116,-131,o),
(135,-71,cs),
(159,0,l)
);
}
);
width = 346;
}
);
note = y;
unicode = 121;
},
{
glyphname = z;
kernLeft = z;
kernRight = z;
layers = (
{
layerId = m01;
shapes = (
{
closed = 1;
nodes = (
(291,28,ls),
(302,28,o),
(308,23,o),
(308,14,cs),
(308,5,o),
(302,0,o),
(291,0,cs),
(35,0,ls),
(27,0,o),
(22,4,o),
(22,11,cs),
(22,13,o),
(23,15,o),
(25,19,c),
(241,346,l),
(63,346,ls),
(52,346,o),
(46,351,o),
(46,360,cs),
(46,369,o),
(52,374,o),
(63,374,cs),
(271,374,ls),
(279,374,o),
(284,370,o),
(284,363,cs),
(284,361,o),
(283,358,o),
(281,355,cs),
(66,28,l)
);
}
);
width = 332;
}
);
note = z;
unicode = 122;
},
{
glyphname = braceleft;
layers = (
{
layerId = m01;
shapes = (
{
closed = 1;
nodes = (
(148,266,o),
(156,243,o),
(156,154,cs),
(156,7,ls),
(156,-99,o),
(171,-127,o),
(231,-127,cs),
(250,-127,o),
(256,-132,o),
(256,-140,cs),
(256,-148,o),
(250,-153,o),
(240,-153,cs),
(232,-153,ls),
(144,-153,o),
(124,-123,o),
(124,8,cs),
(124,158,ls),
(124,246,o),
(110,271,o),
(57,271,cs),
(49,271,o),
(43,276,o),
(43,284,cs),
(43,291,o),
(49,296,o),
(57,296,cs),
(110,296,o),
(124,321,o),
(124,409,cs),
(124,487,ls),
(124,618,o),
(144,648,o),
(240,648,cs),
(250,648,o),
(256,643,o),
(256,635,cs),
(256,627,o),
(250,622,o),
(240,622,cs),
(171,622,o),
(156,594,o),
(156,487,cs),
(156,413,ls),
(156,324,o),
(148,301,o),
(109,284,c)
);
}
);
width = 296;
}
);
note = braceleft;
unicode = 123;
},
{
glyphname = bar;
layers = (
{
layerId = m01;
shapes = (
{
closed = 1;
nodes = (
(110,584,ls),
(110,597,o),
(116,604,o),
(126,604,cs),
(136,604,o),
(142,597,o),
(142,584,cs),
(142,-157,ls),
(142,-170,o),
(136,-177,o),
(126,-177,cs),
(116,-177,o),
(110,-170,o),
(110,-157,cs)
);
}
);
width = 252;
}
);
note = bar;
unicode = 124;
},
{
glyphname = braceright;
layers = (
{
layerId = m01;
shapes = (
{
closed = 1;
nodes = (
(151,266,o),
(143,243,o),
(143,154,cs),
(143,7,ls),
(143,-99,o),
(128,-127,o),
(68,-127,cs),
(49,-127,o),
(43,-132,o),
(43,-140,cs),
(43,-148,o),
(49,-153,o),
(59,-153,cs),
(67,-153,ls),
(155,-153,o),
(175,-123,o),
(175,8,cs),
(175,158,ls),
(175,246,o),
(189,271,o),
(242,271,cs),
(250,271,o),
(256,276,o),
(256,284,cs),
(256,291,o),
(250,296,o),
(242,296,cs),
(189,296,o),
(175,321,o),
(175,409,cs),
(175,487,ls),
(175,618,o),
(155,648,o),
(59,648,cs),
(49,648,o),
(43,643,o),
(43,635,cs),
(43,627,o),
(49,622,o),
(59,622,cs),
(128,622,o),
(143,594,o),
(143,487,cs),
(143,413,ls),
(143,324,o),
(151,301,o),
(190,284,c)
);
}
);
width = 296;
}
);
note = braceright;
unicode = 125;
},
{
glyphname = asciitilde;
layers = (
{
layerId = m01;
shapes = (
{
closed = 1;
nodes = (
(404,341,o),
(400,328,o),
(393,310,cs),
(375,267,o),
(352,249,o),
(313,249,cs),
(280,249,o),
(261,258,o),
(228,289,cs),
(199,318,o),
(186,325,o),
(166,325,cs),
(136,325,o),
(119,305,o),
(104,254,cs),
(102,248,o),
(96,243,o),
(90,243,cs),
(83,243,o),
(75,248,o),
(75,256,cs),
(75,261,o),
(79,274,o),
(86,292,cs),
(104,336,o),
(125,353,o),
(166,353,cs),
(198,353,o),
(219,343,o),
(250,312,cs),
(277,285,o),
(293,277,o),
(315,277,cs),
(342,277,o),
(361,299,o),
(375,348,cs),
(377,354,o),
(383,359,o),
(389,359,cs),
(396,359,o),
(404,354,o),
(404,346,cs)
);
}
);
width = 480;
}
);
note = asciitilde;
unicode = 126;
},
{
glyphname = exclamdown;
layers = (
{
layerId = m01;
shapes = (
{
closed = 1;
nodes = (
(138,258,o),
(143,264,o),
(151,264,cs),
(159,264,o),
(164,258,o),
(164,248,cs),
(169,-184,ls),
(170,-199,o),
(163,-207,o),
(151,-207,cs),
(139,-207,o),
(133,-199,o),
(133,-184,cs),
(138,248,ls)
);
},
{
closed = 1;
nodes = (
(135,340,o),
(126,353,o),
(126,377,cs),
(126,400,o),
(135,413,o),
(151,413,cs),
(167,413,o),
(176,400,o),
(176,377,cs),
(176,353,o),
(167,340,o),
(151,340,cs)
);
}
);
width = 302;
}
);
note = exclamdown;
unicode = 161;
},
{
glyphname = cent;
layers = (
{
layerId = m01;
shapes = (
{
closed = 1;
nodes = (
(278,663,ls),
(279,673,o),
(284,678,o),
(292,678,cs),
(301,678,o),
(306,672,o),
(306,663,cs),
(306,662,o),
(306,660,o),
(306,659,cs),
(220,7,ls),
(218,-3,o),
(213,-8,o),
(205,-8,cs),
(197,-8,o),
(191,-2,o),
(191,7,cs),
(191,8,o),
(191,10,o),
(192,11,c)
);
},
{
closed = 1;
nodes = (
(131,157,o),
(101,250,o),
(101,366,cs),
(101,503,o),
(154,571,o),
(262,571,cs),
(303,571,o),
(336,560,o),
(363,536,cs),
(370,530,o),
(372,526,o),
(372,521,cs),
(372,512,o),
(365,505,o),
(356,505,cs),
(351,505,o),
(348,507,o),
(343,511,cs),
(320,533,o),
(294,543,o),
(261,543,cs),
(155,543,o),
(134,453,o),
(134,364,cs),
(134,272,o),
(156,185,o),
(264,185,cs),
(301,185,o),
(331,195,o),
(357,217,cs),
(361,220,o),
(365,222,o),
(369,222,cs),
(377,222,o),
(384,215,o),
(384,206,cs),
(384,185,o),
(317,157,o),
(264,157,cs)
);
}
);
width = 480;
}
);
note = cent;
unicode = 162;
},
{
glyphname = sterling;
layers = (
{
layerId = m01;
shapes = (
{
closed = 1;
nodes = (
(145,316,l),
(82,316,ls),
(71,316,o),
(65,321,o),
(65,330,cs),
(65,339,o),
(71,344,o),
(82,344,cs),
(145,344,l),
(145,429,ls),
(145,506,o),
(152,540,o),
(173,565,cs),
(195,592,o),
(232,606,o),
(281,606,cs),
(332,606,o),
(371,592,o),
(404,561,cs),
(410,555,o),
(412,551,o),
(412,546,cs),
(412,538,o),
(405,531,o),
(397,531,cs),
(388,531,o),
(380,541,o),
(374,546,cs),
(346,568,o),
(317,578,o),
(280,578,cs),
(202,578,o),
(177,543,o),
(177,429,cs),
(177,344,l),
(289,344,ls),
(300,344,o),
(306,339,o),
(306,330,cs),
(306,321,o),
(300,316,o),
(289,316,cs),
(177,316,l),
(177,28,l),
(403,28,ls),
(414,28,o),
(420,23,o),
(420,14,cs),
(420,5,o),
(414,0,o),
(403,0,cs),
(82,0,ls),
(71,0,o),
(65,5,o),
(65,14,cs),
(65,23,o),
(71,28,o),
(82,28,cs),
(145,28,l)
);
}
);
width = 480;
}
);
note = sterling;
unicode = 163;
},
{
glyphname = currency;
layers = (
{
layerId = m01;
shapes = (
{
closed = 1;
nodes = (
(349,471,o),
(400,414,o),
(400,294,cs),
(400,174,o),
(348,117,o),
(240,117,cs),
(131,117,o),
(79,174,o),
(79,294,cs),
(79,414,o),
(131,471,o),
(240,471,cs)
);
},
{
closed = 1;
nodes = (
(152,443,o),
(112,396,o),
(112,294,cs),
(112,192,o),
(152,145,o),
(240,145,cs),
(327,145,o),
(367,192,o),
(367,294,cs),
(367,396,o),
(326,443,o),
(239,443,cs)
);
},
{
closed = 1;
nodes = (
(133,398,l),
(45,463,ls),
(39,467,o),
(36,471,o),
(36,477,cs),
(36,485,o),
(43,492,o),
(51,492,cs),
(54,492,o),
(58,490,o),
(62,487,cs),
(151,419,l)
);
},
{
closed = 1;
nodes = (
(328,419,l),
(417,487,ls),
(421,490,o),
(426,492,o),
(429,492,cs),
(437,492,o),
(444,485,o),
(444,477,cs),
(444,471,o),
(442,467,o),
(435,463,c),
(346,398,l)
);
},
{
closed = 1;
nodes = (
(151,169,l),
(63,102,l),
(58,99,o),
(54,97,o),
(51,97,cs),
(43,97,o),
(36,104,o),
(36,112,cs),
(36,118,o),
(39,122,o),
(45,126,cs),
(133,191,l)
);
},
{
closed = 1;
nodes = (
(346,191,l),
(435,126,ls),
(441,122,o),
(444,118,o),
(444,112,cs),
(444,104,o),
(437,97,o),
(429,97,cs),
(426,97,o),
(421,99,o),
(417,102,cs),
(328,169,l)
);
}
);
width = 480;
}
);
note = currency;
unicode = 164;
},
{
glyphname = yen;
layers = (
{
layerId = m01;
shapes = (
{
closed = 1;
nodes = (
(387,166,ls),
(399,166,o),
(405,161,o),
(405,152,cs),
(405,143,o),
(399,138,o),
(387,138,cs),
(93,138,ls),
(82,138,o),
(76,143,o),
(76,152,cs),
(76,161,o),
(82,166,o),
(93,166,cs)
);
},
{
closed = 1;
nodes = (
(387,268,ls),
(399,268,o),
(405,263,o),
(405,254,cs),
(405,245,o),
(399,240,o),
(387,240,cs),
(93,240,ls),
(82,240,o),
(76,245,o),
(76,254,cs),
(76,263,o),
(82,268,o),
(93,268,cs)
);
},
{
closed = 1;
nodes = (
(62,579,ls),
(60,583,o),
(59,586,o),
(59,589,cs),
(59,596,o),
(66,603,o),
(74,603,cs),
(81,603,o),
(85,600,o),
(89,592,cs),
(239,278,l),
(390,591,ls),
(394,600,o),
(398,603,o),
(405,603,cs),
(414,603,o),
(421,596,o),
(421,589,cs),
(421,586,o),
(420,582,o),
(418,578,cs),
(256,239,l),
(256,12,ls),
(256,-1,o),
(250,-8,o),
(240,-8,cs),
(230,-8,o),
(224,-1,o),
(224,12,cs),
(224,239,l)
);
}
);
width = 480;
}
);
note = yen;
unicode = 165;
},
{
glyphname = brokenbar;
layers = (
{
layerId = m01;
shapes = (
{
closed = 1;
nodes = (
(110,213,o),
(116,220,o),
(126,220,cs),
(136,220,o),
(142,213,o),
(142,200,cs),
(142,12,ls),
(142,-1,o),
(136,-8,o),
(126,-8,cs),
(116,-8,o),
(110,-1,o),
(110,12,cs),
(110,200,ls)
);
},
{
closed = 1;
nodes = (
(110,597,o),
(116,604,o),
(126,604,cs),
(136,604,o),
(142,597,o),
(142,584,cs),
(142,401,ls),
(142,388,o),
(136,381,o),
(126,381,cs),
(116,381,o),
(110,388,o),
(110,401,cs),
(110,584,ls)
);
}
);
width = 252;
}
);
note = brokenbar;
unicode = 166;
},
{
glyphname = section;
layers = (
{
layerId = m01;
shapes = (
{
closed = 1;
nodes = (
(273,132,l),
(338,172,o),
(354,194,o),
(354,245,cs),
(354,297,o),
(340,311,o),
(253,345,cs),
(148,386,o),
(124,412,o),
(124,482,cs),
(124,570,o),
(169,616,o),
(256,616,cs),
(292,616,o),
(326,607,o),
(344,595,cs),
(353,590,o),
(358,584,o),
(358,577,cs),
(358,568,o),
(351,561,o),
(343,561,cs),
(338,561,o),
(337,562,o),
(328,567,cs),
(308,581,o),
(281,588,o),
(253,588,cs),
(193,588,o),
(157,550,o),
(157,487,cs),
(157,432,o),
(175,412,o),
(259,378,cs),
(327,350,o),
(387,335,o),
(387,251,cs),
(387,187,o),
(367,158,o),
(292,114,c)
);
},
{
closed = 1;
nodes = (
(207,381,l),
(138,342,o),
(121,320,o),
(121,270,cs),
(121,217,o),
(136,203,o),
(229,169,cs),
(341,128,o),
(367,102,o),
(367,32,cs),
(367,-56,o),
(318,-102,o),
(225,-102,cs),
(185,-102,o),
(148,-94,o),
(127,-82,cs),
(116,-77,o),
(110,-70,o),
(110,-63,cs),
(110,-54,o),
(117,-47,o),
(126,-47,cs),
(129,-47,o),
(134,-49,o),
(141,-53,cs),
(164,-66,o),
(196,-74,o),
(227,-74,cs),
(294,-74,o),
(334,-36,o),
(334,27,cs),
(334,98,o),
(283,114,o),
(225,136,cs),
(156,163,o),
(88,177,o),
(88,263,cs),
(88,326,o),
(109,356,o),
(185,398,c)
);
}
);
width = 469;
}
);
note = section;
unicode = 167;
},
{
glyphname = dieresis;
layers = (
{
layerId = m01;
shapes = (
{
closed = 1;
nodes = (
(119,541,o),
(127,529,o),
(127,507,cs),
(127,484,o),
(119,472,o),
(104,472,cs),
(89,472,o),
(81,484,o),
(81,507,cs),
(81,529,o),
(89,541,o),
(104,541,cs)
);
},
{
closed = 1;
nodes = (
(245,541,o),
(253,529,o),
(253,507,cs),
(253,484,o),
(245,472,o),
(230,472,cs),
(215,472,o),
(207,484,o),
(207,507,cs),
(207,529,o),
(215,541,o),
(230,541,cs)
);
}
);
width = 333;
}
);
note = dieresis;
unicode = 168;
},
{
glyphname = copyright;
layers = (
{
layerId = m01;
shapes = (
{
closed = 1;
nodes = (
(272,407,o),
(310,447,o),
(387,447,cs),
(422,447,o),
(447,438,o),
(469,417,c),
(472,413,o),
(474,410,o),
(474,406,cs),
(474,398,o),
(468,392,o),
(460,392,cs),
(457,392,o),
(454,393,o),
(449,397,cs),
(421,420,o),
(414,423,o),
(387,423,cs),
(328,423,o),
(300,390,o),
(300,322,cs),
(300,284,ls),
(300,216,o),
(328,183,o),
(386,183,cs),
(417,183,o),
(424,185,o),
(460,210,c),
(464,212,o),
(467,213,o),
(470,213,cs),
(477,213,o),
(483,207,o),
(483,199,cs),
(483,195,o),
(481,191,o),
(476,187,cs),
(447,167,o),
(423,159,o),
(386,159,cs),
(310,159,o),
(272,199,o),
(272,280,cs),
(272,325,ls)
);
},
{
closed = 1;
nodes = (
(567,606,o),
(685,490,o),
(685,298,cs),
(685,107,o),
(567,-10,o),
(373,-10,cs),
(178,-10,o),
(60,107,o),
(60,298,cs),
(60,490,o),
(180,606,o),
(373,606,cs)
);
},
{
closed = 1;
nodes = (
(197,578,o),
(93,472,o),
(93,298,cs),
(93,125,o),
(197,18,o),
(373,18,cs),
(548,18,o),
(652,125,o),
(652,298,cs),
(652,471,o),
(548,578,o),
(373,578,cs)
);
}
);
width = 745;
}
);
note = copyright;
unicode = 169;
},
{
glyphname = ordfeminine;
layers = (
{
layerId = m01;
shapes = (
{
closed = 1;
nodes = (
(236,508,ls),
(236,563,o),
(219,582,o),
(170,582,cs),
(138,582,o),
(112,573,o),
(90,553,cs),
(87,550,o),
(84,549,o),
(81,549,cs),
(73,549,o),
(67,555,o),
(67,563,cs),
(67,568,o),
(70,571,o),
(80,579,cs),
(104,597,o),
(132,606,o),
(168,606,cs),
(210,606,o),
(239,595,o),
(253,573,cs),
(262,559,o),
(265,540,o),
(265,494,cs),
(265,341,ls),
(265,331,o),
(260,325,o),
(252,325,cs),
(243,325,o),
(239,330,o),
(238,359,c),
(217,337,o),
(184,326,o),
(140,326,cs),
(79,326,o),
(49,352,o),
(49,404,cs),
(49,471,o),
(92,498,o),
(201,498,cs),
(209,498,o),
(217,498,o),
(236,497,c)
);
},
{
closed = 1;
nodes = (
(214,474,o),
(214,474,o),
(196,474,cs),
(110,474,o),
(78,455,o),
(78,402,cs),
(78,366,o),
(98,350,o),
(142,350,cs),
(196,350,o),
(237,374,o),
(237,406,cs),
(237,473,l)
);
}
);
width = 333;
}
);
note = ordfeminine;
unicode = 170;
},
{
glyphname = guillemotleft;
layers = (
{
layerId = m01;
shapes = (
{
closed = 1;
nodes = (
(273,103,l),
(274,100,o),
(275,97,o),
(275,95,cs),
(275,91,o),
(270,86,o),
(265,86,cs),
(262,86,o),
(260,88,o),
(257,92,cs),
(162,217,ls),
(158,222,o),
(157,225,o),
(157,228,cs),
(157,232,o),
(158,235,o),
(162,240,cs),
(257,363,ls),
(260,367,o),
(262,369,o),
(265,369,cs),
(270,369,o),
(275,364,o),
(275,360,cs),
(275,358,o),
(274,355,o),
(273,352,c),
(205,227,l)
);
},
{
closed = 1;
nodes = (
(161,103,l),
(162,100,o),
(163,97,o),
(163,95,cs),
(163,91,o),
(158,86,o),
(153,86,cs),
(150,86,o),
(148,88,o),
(145,92,cs),
(50,217,ls),
(46,222,o),
(45,225,o),
(45,228,cs),
(45,232,o),
(46,235,o),
(50,240,cs),
(145,363,ls),
(148,367,o),
(150,369,o),
(153,369,cs),
(158,369,o),
(163,364,o),
(163,360,cs),
(163,358,o),
(162,355,o),
(161,352,c),
(93,227,l)
);
}
);
width = 309;
}
);
note = guillemotleft;
unicode = 171;
},
{
glyphname = logicalnot;
layers = (
{
layerId = m01;
shapes = (
{
closed = 1;
nodes = (
(78,284,ls),
(67,284,o),
(61,289,o),
(61,298,cs),
(61,307,o),
(67,312,o),
(78,312,cs),
(364,312,ls),
(381,312,o),
(388,305,o),
(388,288,cs),
(388,107,ls),
(388,94,o),
(382,87,o),
(372,87,cs),
(362,87,o),
(356,94,o),
(356,107,cs),
(356,284,l)
);
}
);
width = 480;
}
);
note = logicalnot;
unicode = 172;
},
{
glyphname = uni00AD;
layers = (
{
layerId = m01;
shapes = (
{
closed = 1;
nodes = (
(229,288,ls),
(240,288,o),
(246,283,o),
(246,274,cs),
(246,265,o),
(240,260,o),
(229,260,cs),
(47,260,ls),
(36,260,o),
(30,265,o),
(30,274,cs),
(30,283,o),
(36,288,o),
(47,288,cs)
);
}
);
width = 276;
}
);
note = uni00AD;
unicode = 173;
},
{
glyphname = registered;
layers = (
{
layerId = m01;
shapes = (
{
closed = 1;
nodes = (
(318,453,o),
(320,451,o),
(329,428,cs),
(359,359,ls),
(360,356,o),
(361,353,o),
(361,350,cs),
(361,344,o),
(355,339,o),
(348,339,cs),
(342,339,o),
(338,342,o),
(335,349,cs),
(307,423,ls),
(297,450,o),
(287,457,o),
(264,457,cs),
(230,457,l),
(230,354,ls),
(230,344,o),
(225,338,o),
(217,338,cs),
(209,338,o),
(204,344,o),
(204,354,cs),
(204,572,ls),
(204,589,o),
(211,596,o),
(228,596,cs),
(283,596,ls),
(333,596,o),
(357,573,o),
(357,526,cs),
(357,487,o),
(344,469,o),
(310,461,c)
);
},
{
closed = 1;
nodes = (
(276,478,ls),
(317,478,o),
(330,489,o),
(330,526,cs),
(330,564,o),
(318,575,o),
(276,575,cs),
(230,575,l),
(230,478,l)
);
},
{
closed = 1;
nodes = (
(410,712,o),
(503,615,o),
(503,472,cs),
(503,328,o),
(410,231,o),
(272,231,cs),
(133,231,o),
(40,328,o),
(40,472,cs),
(40,615,o),
(133,712,o),
(272,712,cs)
);
},
{
closed = 1;
nodes = (
(151,684,o),
(71,600,o),
(71,472,cs),
(71,343,o),
(151,259,o),
(272,259,cs),
(392,259,o),
(472,343,o),
(472,472,cs),
(472,600,o),
(392,684,o),
(272,684,cs)
);
}
);
width = 543;
}
);
note = registered;
unicode = 174;
},
{
glyphname = macron;
layers = (
{
layerId = m01;
shapes = (
{
closed = 1;
nodes = (
(255,522,ls),
(266,522,o),
(272,517,o),
(272,508,cs),
(272,499,o),
(266,494,o),
(255,494,cs),
(79,494,ls),
(68,494,o),
(62,499,o),
(62,508,cs),
(62,517,o),
(68,522,o),
(79,522,cs)
);
}
);
width = 333;
}
);
note = macron;
unicode = 175;
},
{
glyphname = degree;
layers = (
{
layerId = m01;
shapes = (
{
closed = 1;
nodes = (
(185,633,o),
(225,594,o),
(225,532,cs),
(225,470,o),
(185,431,o),
(121,431,cs),
(57,431,o),
(17,470,o),
(17,532,cs),
(17,594,o),
(58,633,o),
(121,633,cs)
);
},
{
closed = 1;
nodes = (
(78,605,o),
(50,577,o),
(50,533,cs),
(50,487,o),
(77,459,o),
(121,459,cs),
(164,459,o),
(192,487,o),
(192,532,cs),
(192,577,o),
(165,605,o),
(120,605,cs)
);
}
);
width = 243;
}
);
note = degree;
unicode = 176;
},
{
glyphname = plusminus;
layers = (
{
layerId = m01;
shapes = (
{
closed = 1;
nodes = (
(403,28,ls),
(414,28,o),
(420,23,o),
(420,14,cs),
(420,5,o),
(414,0,o),
(403,0,cs),
(78,0,ls),
(67,0,o),
(61,5,o),
(61,14,cs),
(61,23,o),
(67,28,o),
(78,28,cs)
);
},
{
closed = 1;
nodes = (
(223,446,ls),
(223,459,o),
(229,466,o),
(239,466,cs),
(249,466,o),
(255,459,o),
(255,446,cs),
(255,305,l),
(410,305,ls),
(421,305,o),
(427,300,o),
(427,291,cs),
(427,282,o),
(421,277,o),
(410,277,cs),
(255,277,l),
(255,139,ls),
(255,126,o),
(249,119,o),
(239,119,cs),
(229,119,o),
(223,126,o),
(223,139,cs),
(223,277,l),
(70,277,ls),
(59,277,o),
(53,282,o),
(53,291,cs),
(53,300,o),
(59,305,o),
(70,305,cs),
(223,305,l)
);
}
);
width = 480;
}
);
note = plusminus;
unicode = 177;
},
{
glyphname = twosuperior;
layers = (
{
layerId = m01;
shapes = (
{
closed = 1;
nodes = (
(239,361,ls),
(248,361,o),
(253,357,o),
(253,350,cs),
(253,342,o),
(248,338,o),
(239,338,cs),
(52,338,ls),
(45,338,o),
(41,341,o),
(41,348,cs),
(41,351,o),
(41,351,o),
(87,408,cs),
(188,531,o),
(211,570,o),
(211,618,cs),
(211,658,o),
(188,679,o),
(146,679,cs),
(119,679,o),
(100,672,o),
(72,652,cs),
(67,649,o),
(65,648,o),
(61,648,cs),
(55,648,o),
(47,654,o),
(47,661,cs),
(47,665,o),
(49,668,o),
(53,672,c),
(84,694,o),
(109,702,o),
(147,702,cs),
(207,702,o),
(238,675,o),
(238,622,cs),
(238,561,o),
(216,524,o),
(81,361,c)
);
}
);
width = 296;
}
);
note = twosuperior;
unicode = 178;
},
{
glyphname = threesuperior;
layers = (
{
layerId = m01;
shapes = (
{
closed = 1;
nodes = (
(227,521,o),
(245,493,o),
(245,439,cs),
(245,365,o),
(209,332,o),
(127,332,cs),
(94,332,o),
(63,340,o),
(47,350,cs),
(39,355,o),
(35,360,o),
(35,366,cs),
(35,374,o),
(41,380,o),
(49,380,cs),
(52,380,o),
(55,379,o),
(59,376,cs),
(80,361,o),
(101,355,o),
(131,355,cs),
(188,355,o),
(218,384,o),
(218,439,cs),
(218,491,o),
(189,517,o),
(131,517,cs),
(105,517,ls),
(95,517,o),
(90,521,o),
(90,529,cs),
(90,537,o),
(95,541,o),
(105,541,cs),
(126,541,ls),
(174,541,o),
(204,569,o),
(204,613,cs),
(204,656,o),
(181,679,o),
(138,679,cs),
(113,679,o),
(90,672,o),
(69,657,cs),
(62,653,o),
(60,652,o),
(56,652,cs),
(49,652,o),
(42,658,o),
(42,665,cs),
(42,670,o),
(44,673,o),
(48,675,cs),
(79,696,o),
(102,703,o),
(138,703,cs),
(201,703,o),
(231,674,o),
(231,614,cs),
(231,573,o),
(217,549,o),
(183,532,c)
);
}
);
width = 295;
}
);
note = threesuperior;
unicode = 179;
},
{
glyphname = acute;
layers = (
{
layerId = m01;
shapes = (
{
closed = 1;
nodes = (
(221,539,o),
(218,533,o),
(213,527,cs),
(157,463,ls),
(153,459,o),
(150,457,o),
(147,457,cs),
(141,457,o),
(135,462,o),
(135,468,cs),
(135,470,o),
(136,473,o),
(138,476,cs),
(181,550,ls),
(187,560,o),
(192,564,o),
(201,564,cs),
(212,564,o),
(221,555,o),
(221,544,cs)
);
}
);
width = 333;
}
);
note = acute;
unicode = 180;
},
{
glyphname = paragraph;
layers = (
{
layerId = m01;
shapes = (
{
closed = 1;
nodes = (
(200,314,ls),
(132,314,o),
(93,321,o),
(68,339,cs),
(38,360,o),
(20,404,o),
(20,455,cs),
(20,505,o),
(37,548,o),
(66,569,cs),
(92,589,o),
(127,596,o),
(203,596,cs),
(343,596,ls),
(360,596,o),
(367,589,o),
(367,572,cs),
(367,-138,ls),
(367,-151,o),
(361,-158,o),
(351,-158,cs),
(341,-158,o),
(335,-151,o),
(335,-138,cs),
(335,568,l),
(236,568,l),
(236,-138,ls),
(236,-151,o),
(230,-158,o),
(220,-158,cs),
(210,-158,o),
(204,-151,o),
(204,-138,cs),
(204,314,l)
);
}
);
width = 447;
}
);
note = paragraph;
unicode = 182;
},
{
glyphname = periodcentered;
layers = (
{
layerId = m01;
shapes = (
{
closed = 1;
nodes = (
(93,311,o),
(102,298,o),
(102,274,cs),
(102,251,o),
(93,238,o),
(77,238,cs),
(61,238,o),
(52,251,o),
(52,274,cs),
(52,298,o),
(61,311,o),
(77,311,cs)
);
}
);
width = 154;
}
);
note = periodcentered;
unicode = 183;
},
{
glyphname = cedilla;
layers = (
{
layerId = m01;
shapes = (
{
closed = 1;
nodes = (
(195,11,l),
(162,-44,l),
(225,-56,o),
(246,-75,o),
(246,-118,cs),
(246,-161,o),
(218,-184,o),
(165,-184,cs),
(143,-184,o),
(112,-180,o),
(100,-175,cs),
(95,-173,o),
(92,-169,o),
(92,-164,cs),
(92,-158,o),
(97,-152,o),
(104,-152,cs),
(106,-152,o),
(107,-152,o),
(111,-154,c),
(123,-157,o),
(141,-160,o),
(156,-160,cs),
(195,-160,o),
(216,-145,o),
(216,-116,cs),
(216,-85,o),
(196,-74,o),
(128,-66,cs),
(124,-66,o),
(122,-64,o),
(122,-60,cs),
(122,-59,o),
(122,-59,o),
(123,-57,cs),
(163,11,l)
);
}
);
width = 333;
}
);
note = cedilla;
unicode = 184;
},
{
glyphname = onesuperior;
layers = (
{
layerId = m01;
shapes = (
{
closed = 1;
nodes = (
(42,648,l),
(40,648,o),
(37,647,o),
(35,647,cs),
(29,647,o),
(23,652,o),
(23,659,cs),
(23,665,o),
(26,669,o),
(34,671,c),
(99,695,ls),
(103,697,o),
(110,699,o),
(114,699,cs),
(127,700,o),
(131,690,o),
(131,675,cs),
(131,346,ls),
(131,336,o),
(126,330,o),
(118,330,cs),
(110,330,o),
(105,336,o),
(105,346,cs),
(105,670,l)
);
}
);
width = 217;
}
);
note = onesuperior;
unicode = 185;
},
{
glyphname = ordmasculine;
layers = (
{
layerId = m01;
shapes = (
{
closed = 1;
nodes = (
(52,568,o),
(89,606,o),
(170,606,cs),
(249,606,o),
(286,568,o),
(286,485,cs),
(286,447,ls),
(286,364,o),
(249,326,o),
(169,326,cs),
(89,326,o),
(52,364,o),
(52,447,cs),
(52,485,ls)
);
},
{
closed = 1;
nodes = (
(83,376,o),
(106,350,o),
(169,350,cs),
(231,350,o),
(258,381,o),
(258,451,cs),
(258,481,ls),
(258,551,o),
(231,582,o),
(169,582,cs),
(107,582,o),
(80,551,o),
(80,481,cs),
(80,451,ls)
);
}
);
width = 333;
}
);
note = ordmasculine;
unicode = 186;
},
{
glyphname = guillemotright;
layers = (
{
layerId = m01;
shapes = (
{
closed = 1;
nodes = (
(36,352,l),
(35,355,o),
(34,358,o),
(34,360,cs),
(34,364,o),
(39,369,o),
(44,369,cs),
(47,369,o),
(50,367,o),
(53,363,cs),
(148,238,l),
(151,233,o),
(152,230,o),
(152,227,cs),
(152,223,o),
(151,220,o),
(147,215,cs),
(53,92,ls),
(50,88,o),
(47,86,o),
(44,86,cs),
(39,86,o),
(34,91,o),
(34,95,cs),
(34,97,o),
(35,100,o),
(36,103,c),
(104,228,l)
);
},
{
closed = 1;
nodes = (
(148,352,l),
(147,355,o),
(146,358,o),
(146,360,cs),
(146,364,o),
(151,369,o),
(156,369,cs),
(159,369,o),
(162,367,o),
(165,363,cs),
(260,238,l),
(263,233,o),
(264,230,o),
(264,227,cs),
(264,223,o),
(263,220,o),
(260,215,c),
(165,92,ls),
(162,88,o),
(159,86,o),
(156,86,cs),
(151,86,o),
(146,91,o),
(146,95,cs),
(146,97,o),
(147,100,o),
(148,103,c),
(217,228,l)
);
}
);
width = 309;
}
);
note = guillemotright;
unicode = 187;
},
{
glyphname = onequarter;
layers = (
{
layerId = m01;
shapes = (
{
closed = 1;
nodes = (
(87,548,l),
(85,548,o),
(82,547,o),
(80,547,cs),
(74,547,o),
(68,552,o),
(68,559,cs),
(68,565,o),
(71,569,o),
(79,571,c),
(144,595,ls),
(148,597,o),
(155,599,o),
(159,599,cs),
(172,600,o),
(176,590,o),
(176,575,cs),
(176,246,ls),
(176,236,o),
(171,230,o),
(163,230,cs),
(155,230,o),
(150,236,o),
(150,246,cs),
(150,570,l)
);
},
{
closed = 1;
nodes = (
(448,592,ls),
(452,600,o),
(456,603,o),
(462,603,cs),
(470,603,o),
(476,597,o),
(476,590,cs),
(476,588,o),
(475,585,o),
(473,581,cs),
(214,4,ls),
(211,-4,o),
(206,-7,o),
(200,-7,cs),
(193,-7,o),
(186,-1,o),
(186,6,cs),
(186,8,o),
(187,12,o),
(189,15,c)
);
},
{
closed = 1;
nodes = (
(595,9,ls),
(595,-2,o),
(590,-8,o),
(582,-8,cs),
(573,-8,o),
(568,-2,o),
(568,8,cs),
(568,94,l),
(411,94,ls),
(403,94,o),
(399,98,o),
(399,104,cs),
(399,106,o),
(400,108,o),
(402,111,cs),
(564,358,ls),
(569,365,o),
(573,368,o),
(579,368,cs),
(589,368,o),
(595,361,o),
(595,349,cs),
(595,117,l),
(650,117,ls),
(659,117,o),
(664,113,o),
(664,106,cs),
(664,98,o),
(659,94,o),
(650,94,cs),
(595,94,l)
);
},
{
closed = 1;
nodes = (
(568,320,l),
(434,117,l),
(568,117,l)
);
}
);
width = 700;
}
);
note = onequarter;
unicode = 188;
},
{
glyphname = onehalf;
layers = (
{
layerId = m01;
shapes = (
{
closed = 1;
nodes = (
(82,548,l),
(80,548,o),
(77,547,o),
(75,547,cs),
(69,547,o),
(63,552,o),
(63,559,cs),
(63,565,o),
(66,569,o),
(74,571,c),
(139,595,ls),
(143,597,o),
(150,599,o),
(154,599,cs),
(167,600,o),
(171,590,o),
(171,575,cs),
(171,246,ls),
(171,236,o),
(166,230,o),
(158,230,cs),
(150,230,o),
(145,236,o),
(145,246,cs),
(145,570,l)
);
},
{
closed = 1;
nodes = (
(447,592,ls),
(451,600,o),
(455,603,o),
(461,603,cs),
(469,603,o),
(475,597,o),
(475,590,cs),
(475,588,o),
(474,585,o),
(473,581,c),
(213,4,ls),
(210,-4,o),
(206,-7,o),
(199,-7,cs),
(192,-7,o),
(185,-1,o),
(185,6,cs),
(185,8,o),
(186,12,o),
(188,15,c)
);
},
{
closed = 1;
nodes = (
(643,23,ls),
(651,23,o),
(656,19,o),
(656,12,cs),
(656,4,o),
(651,0,o),
(643,0,cs),
(456,0,ls),
(448,0,o),
(444,3,o),
(444,10,cs),
(444,13,o),
(444,13,o),
(491,70,cs),
(592,193,o),
(614,232,o),
(614,280,cs),
(614,320,o),
(591,341,o),
(549,341,cs),
(522,341,o),
(503,334,o),
(475,314,cs),
(471,311,o),
(468,310,o),
(465,310,cs),
(458,310,o),
(450,316,o),
(450,323,cs),
(450,327,o),
(452,330,o),
(457,334,cs),
(488,356,o),
(513,364,o),
(550,364,cs),
(610,364,o),
(641,337,o),
(641,284,cs),
(641,223,o),
(619,186,o),
(484,23,c)
);
}
);
width = 700;
}
);
note = onehalf;
unicode = 189;
},
{
glyphname = threequarters;
layers = (
{
layerId = m01;
shapes = (
{
closed = 1;
nodes = (
(228,421,o),
(246,393,o),
(246,339,cs),
(246,265,o),
(210,232,o),
(128,232,cs),
(95,232,o),
(64,240,o),
(48,250,cs),
(40,255,o),
(36,260,o),
(36,266,cs),
(36,274,o),
(42,280,o),
(50,280,cs),
(53,280,o),
(56,279,o),
(60,276,cs),
(81,261,o),
(102,255,o),
(132,255,cs),
(189,255,o),
(219,284,o),
(219,339,cs),
(219,391,o),
(190,417,o),
(132,417,cs),
(106,417,ls),
(96,417,o),
(91,421,o),
(91,429,cs),
(91,437,o),
(96,441,o),
(106,441,cs),
(127,441,ls),
(175,441,o),
(205,469,o),
(205,513,cs),
(205,556,o),
(182,579,o),
(139,579,cs),
(114,579,o),
(91,572,o),
(70,557,cs),
(63,553,o),
(61,552,o),
(57,552,cs),
(50,552,o),
(43,558,o),
(43,565,cs),
(43,570,o),
(45,573,o),
(49,575,cs),
(80,596,o),
(103,603,o),
(139,603,cs),
(202,603,o),
(232,574,o),
(232,514,cs),
(232,473,o),
(218,449,o),
(184,432,c)
);
},
{
closed = 1;
nodes = (
(468,592,ls),
(471,600,o),
(476,603,o),
(482,603,cs),
(489,603,o),
(496,597,o),
(496,590,cs),
(496,588,o),
(495,585,o),
(493,581,cs),
(234,4,ls),
(230,-4,o),
(226,-7,o),
(220,-7,cs),
(212,-7,o),
(206,-1,o),
(206,6,cs),
(206,8,o),
(207,12,o),
(208,15,cs)
);
},
{
closed = 1;
nodes = (
(598,9,ls),
(598,-2,o),
(593,-8,o),
(584,-8,cs),
(576,-8,o),
(571,-2,o),
(571,8,cs),
(571,94,l),
(414,94,ls),
(406,94,o),
(402,98,o),
(402,104,cs),
(402,106,o),
(402,108,o),
(404,111,cs),
(567,358,ls),
(572,365,o),
(576,368,o),
(582,368,cs),
(592,368,o),
(598,361,o),
(598,349,cs),
(598,117,l),
(653,117,ls),
(661,117,o),
(667,113,o),
(667,106,cs),
(667,98,o),
(661,94,o),
(653,94,cs),
(598,94,l)
);
},
{
closed = 1;
nodes = (
(571,320,l),
(436,117,l),
(571,117,l)
);
}
);
width = 700;
}
);
note = threequarters;
unicode = 190;
},
{
glyphname = questiondown;
layers = (
{
layerId = m01;
shapes = (
{
closed = 1;
nodes = (
(216,130,o),
(211,119,o),
(141,49,cs),
(95,3,o),
(82,-25,o),
(82,-75,cs),
(82,-148,o),
(115,-183,o),
(185,-183,cs),
(226,-183,o),
(266,-171,o),
(301,-148,cs),
(304,-146,o),
(309,-144,o),
(312,-144,cs),
(320,-144,o),
(327,-151,o),
(327,-159,cs),
(327,-165,o),
(324,-169,o),
(319,-173,cs),
(282,-198,o),
(237,-211,o),
(186,-211,cs),
(96,-211,o),
(49,-168,o),
(49,-85,cs),
(49,-22,o),
(66,15,o),
(120,67,cs),
(181,127,o),
(187,138,o),
(187,204,cs),
(187,246,ls),
(187,257,o),
(192,264,o),
(202,264,cs),
(211,264,o),
(216,257,o),
(216,246,cs),
(216,198,ls)
);
},
{
closed = 1;
nodes = (
(186,340,o),
(177,353,o),
(177,377,cs),
(177,400,o),
(186,413,o),
(202,413,cs),
(218,413,o),
(227,400,o),
(227,377,cs),
(227,353,o),
(218,340,o),
(202,340,cs)
);
}
);
width = 365;
}
);
note = questiondown;
unicode = 191;
},
{
glyphname = Agrave;
kernLeft = A;
kernRight = A;
layers = (
{
layerId = m01;
shapes = (
{
closed = 1;
nodes = (
(104,156,l),
(49,7,ls),
(45,-3,o),
(40,-8,o),
(32,-8,cs),
(24,-8,o),
(16,-1,o),
(16,8,cs),
(16,11,o),
(17,14,o),
(18,18,cs),
(228,589,ls),
(232,599,o),
(237,604,o),
(245,604,cs),
(253,604,o),
(259,600,o),
(262,589,c),
(473,18,ls),
(474,14,o),
(475,10,o),
(475,7,cs),
(475,-1,o),
(467,-8,o),
(459,-8,cs),
(451,-8,o),
(446,-3,o),
(442,7,cs),
(387,156,l)
);
},
{
closed = 1;
nodes = (
(245,541,l),
(113,184,l),
(377,184,l)
);
},
{
closed = 1;
nodes = (
(193,733,o),
(190,739,o),
(190,744,cs),
(190,755,o),
(199,764,o),
(210,764,cs),
(218,764,o),
(224,760,o),
(229,750,cs),
(273,676,ls),
(275,673,o),
(276,670,o),
(276,668,cs),
(276,662,o),
(270,657,o),
(264,657,cs),
(260,657,o),
(257,659,o),
(254,663,cs),
(198,727,ls)
);
}
);
width = 490;
}
);
note = Agrave;
unicode = 192;
},
{
glyphname = Aacute;
kernLeft = A;
kernRight = A;
layers = (
{
layerId = m01;
shapes = (
{
closed = 1;
nodes = (
(104,156,l),
(49,7,ls),
(45,-3,o),
(40,-8,o),
(32,-8,cs),
(24,-8,o),
(16,-1,o),
(16,8,cs),
(16,11,o),
(17,14,o),
(18,18,cs),
(228,589,ls),
(232,599,o),
(237,604,o),
(245,604,cs),
(253,604,o),
(259,600,o),
(262,589,c),
(473,18,ls),
(474,14,o),
(475,10,o),
(475,7,cs),
(475,-1,o),
(467,-8,o),
(459,-8,cs),
(451,-8,o),
(446,-3,o),
(442,7,cs),
(387,156,l)
);
},
{
closed = 1;
nodes = (
(245,541,l),
(113,184,l),
(377,184,l)
);
},
{
closed = 1;
nodes = (
(300,739,o),
(297,733,o),
(291,727,cs),
(236,663,ls),
(232,659,o),
(229,657,o),
(226,657,cs),
(219,657,o),
(214,662,o),
(214,668,cs),
(214,670,o),
(215,673,o),
(217,676,cs),
(260,750,ls),
(265,760,o),
(271,764,o),
(279,764,cs),
(290,764,o),
(300,755,o),
(300,744,cs)
);
}
);
width = 490;
}
);
note = Aacute;
unicode = 193;
},
{
glyphname = Acircumflex;
kernLeft = A;
kernRight = A;
layers = (
{
layerId = m01;
shapes = (
{
closed = 1;
nodes = (
(104,156,l),
(49,7,ls),
(45,-3,o),
(40,-8,o),
(32,-8,cs),
(24,-8,o),
(16,-1,o),
(16,8,cs),
(16,11,o),
(17,14,o),
(18,18,cs),
(228,589,ls),
(232,599,o),
(237,604,o),
(245,604,cs),
(253,604,o),
(259,600,o),
(262,589,c),
(473,18,ls),
(474,14,o),
(475,10,o),
(475,7,cs),
(475,-1,o),
(467,-8,o),
(459,-8,cs),
(451,-8,o),
(446,-3,o),
(442,7,cs),
(387,156,l)
);
},
{
closed = 1;
nodes = (
(245,541,l),
(113,184,l),
(377,184,l)
);
},
{
closed = 1;
nodes = (
(171,662,ls),
(168,659,o),
(165,658,o),
(162,658,cs),
(156,658,o),
(150,663,o),
(150,669,cs),
(150,672,o),
(152,675,o),
(155,679,cs),
(209,742,ls),
(222,758,o),
(231,763,o),
(245,763,cs),
(259,763,o),
(267,758,o),
(281,742,cs),
(335,678,ls),
(338,675,o),
(339,672,o),
(339,669,cs),
(339,663,o),
(334,658,o),
(328,658,cs),
(325,658,o),
(322,659,o),
(318,662,cs),
(245,726,l)
);
}
);
width = 490;
}
);
note = Acircumflex;
unicode = 194;
},
{
glyphname = Atilde;
kernLeft = A;
kernRight = A;
layers = (
{
layerId = m01;
shapes = (
{
closed = 1;
nodes = (
(104,156,l),
(49,7,ls),
(45,-3,o),
(40,-8,o),
(32,-8,cs),
(24,-8,o),
(16,-1,o),
(16,8,cs),
(16,11,o),
(17,14,o),
(18,18,cs),
(228,589,ls),
(232,599,o),
(237,604,o),
(245,604,cs),
(253,604,o),
(259,600,o),
(262,589,c),
(473,18,ls),
(474,14,o),
(475,10,o),
(475,7,cs),
(475,-1,o),
(467,-8,o),
(459,-8,cs),
(451,-8,o),
(446,-3,o),
(442,7,cs),
(387,156,l)
);
},
{
closed = 1;
nodes = (
(245,541,l),
(113,184,l),
(377,184,l)
);
},
{
closed = 1;
nodes = (
(355,741,o),
(350,722,o),
(347,711,cs),
(338,682,o),
(316,665,o),
(288,665,cs),
(268,665,o),
(258,671,o),
(229,701,cs),
(212,720,o),
(206,724,o),
(197,724,cs),
(183,724,o),
(170,707,o),
(160,676,cs),
(158,668,o),
(154,665,o),
(148,665,cs),
(142,665,o),
(137,670,o),
(137,676,cs),
(137,681,o),
(141,696,o),
(146,708,cs),
(159,738,o),
(177,752,o),
(202,752,cs),
(222,752,o),
(232,746,o),
(257,720,cs),
(280,695,o),
(283,693,o),
(295,693,cs),
(311,693,o),
(322,708,o),
(330,740,cs),
(333,749,o),
(336,753,o),
(344,753,cs),
(345,753,ls),
(351,753,o),
(355,749,o),
(355,743,cs)
);
}
);
width = 490;
}
);
note = Atilde;
unicode = 195;
},
{
glyphname = Adieresis;
kernLeft = A;
kernRight = A;
layers = (
{
layerId = m01;
shapes = (
{
closed = 1;
nodes = (
(104,156,l),
(49,7,ls),
(45,-3,o),
(40,-8,o),
(32,-8,cs),
(24,-8,o),
(16,-1,o),
(16,8,cs),
(16,11,o),
(17,14,o),
(18,18,cs),
(228,589,ls),
(232,599,o),
(237,604,o),
(245,604,cs),
(253,604,o),
(259,600,o),
(262,589,c),
(473,18,ls),
(474,14,o),
(475,10,o),
(475,7,cs),
(475,-1,o),
(467,-8,o),
(459,-8,cs),
(451,-8,o),
(446,-3,o),
(442,7,cs),
(387,156,l)
);
},
{
closed = 1;
nodes = (
(245,541,l),
(113,184,l),
(377,184,l)
);
},
{
closed = 1;
nodes = (
(197,741,o),
(205,729,o),
(205,707,cs),
(205,684,o),
(197,672,o),
(182,672,cs),
(167,672,o),
(159,684,o),
(159,707,cs),
(159,729,o),
(167,741,o),
(182,741,cs)
);
},
{
closed = 1;
nodes = (
(323,741,o),
(331,729,o),
(331,707,cs),
(331,684,o),
(323,672,o),
(308,672,cs),
(293,672,o),
(285,684,o),
(285,707,cs),
(285,729,o),
(293,741,o),
(308,741,cs)
);
}
);
width = 490;
}
);
note = Adieresis;
unicode = 196;
},
{
glyphname = Aring;
kernLeft = A;
kernRight = A;
layers = (
{
layerId = m01;
shapes = (
{
closed = 1;
nodes = (
(104,156,l),
(49,7,ls),
(45,-3,o),
(40,-8,o),
(32,-8,cs),
(24,-8,o),
(16,-1,o),
(16,8,cs),
(16,11,o),
(17,14,o),
(18,18,cs),
(228,589,ls),
(232,599,o),
(237,604,o),
(245,604,cs),
(253,604,o),
(259,600,o),
(262,589,c),
(473,18,ls),
(474,14,o),
(475,10,o),
(475,7,cs),
(475,-1,o),
(467,-8,o),
(459,-8,cs),
(451,-8,o),
(446,-3,o),
(442,7,cs),
(387,156,l)
);
},
{
closed = 1;
nodes = (
(245,541,l),
(113,184,l),
(377,184,l)
);
},
{
closed = 1;
nodes = (
(295,786,o),
(324,760,o),
(324,714,cs),
(324,668,o),
(295,642,o),
(245,642,cs),
(196,642,o),
(167,668,o),
(167,714,cs),
(167,760,o),
(196,786,o),
(245,786,cs)
);
},
{
closed = 1;
nodes = (
(214,762,o),
(196,744,o),
(196,714,cs),
(196,684,o),
(214,666,o),
(245,666,cs),
(277,666,o),
(295,684,o),
(295,714,cs),
(295,744,o),
(277,762,o),
(245,762,cs)
);
}
);
width = 490;
}
);
note = Aring;
unicode = 197;
},
{
glyphname = AE;
layers = (
{
layerId = m01;
shapes = (
{
closed = 1;
nodes = (
(108,156,l),
(34,5,ls),
(30,-4,o),
(26,-7,o),
(19,-7,cs),
(11,-7,o),
(3,0,o),
(3,7,cs),
(3,10,o),
(4,14,o),
(6,18,cs),
(277,577,ls),
(284,593,o),
(289,596,o),
(307,596,cs),
(613,596,ls),
(624,596,o),
(630,591,o),
(630,582,cs),
(630,573,o),
(624,568,o),
(613,568,cs),
(351,568,l),
(351,327,l),
(576,327,ls),
(587,327,o),
(593,322,o),
(593,313,cs),
(593,304,o),
(587,299,o),
(576,299,cs),
(351,299,l),
(351,28,l),
(624,28,ls),
(635,28,o),
(641,23,o),
(641,14,cs),
(641,5,o),
(635,0,o),
(624,0,cs),
(343,0,ls),
(326,0,o),
(319,7,o),
(319,24,cs),
(319,156,l)
);
},
{
closed = 1;
nodes = (
(319,568,l),
(308,568,l),
(120,184,l),
(319,184,l)
);
}
);
width = 672;
}
);
note = AE;
unicode = 198;
},
{
glyphname = Ccedilla;
kernLeft = C;
layers = (
{
layerId = m01;
shapes = (
{
closed = 1;
nodes = (
(90,257,ls),
(90,142,o),
(113,18,o),
(254,18,cs),
(301,18,o),
(341,31,o),
(375,59,cs),
(385,67,o),
(388,69,o),
(393,69,cs),
(402,69,o),
(410,61,o),
(410,52,cs),
(410,47,o),
(408,42,o),
(403,38,cs),
(368,7,o),
(314,-10,o),
(254,-10,cs),
(84,-10,o),
(58,120,o),
(58,260,cs),
(58,336,ls),
(58,478,o),
(87,606,o),
(256,606,cs),
(314,606,o),
(366,589,o),
(400,560,cs),
(405,556,o),
(407,551,o),
(407,546,cs),
(407,537,o),
(399,529,o),
(390,529,cs),
(385,529,o),
(382,531,o),
(372,539,cs),
(339,566,o),
(302,578,o),
(255,578,cs),
(112,578,o),
(90,455,o),
(90,339,cs)
);
},
{
closed = 1;
nodes = (
(266,11,l),
(232,-44,l),
(295,-56,o),
(317,-75,o),
(317,-118,cs),
(317,-161,o),
(288,-184,o),
(236,-184,cs),
(214,-184,o),
(182,-180,o),
(170,-175,cs),
(166,-173,o),
(163,-169,o),
(163,-164,cs),
(163,-158,o),
(168,-152,o),
(174,-152,cs),
(176,-152,o),
(178,-152,o),
(182,-154,c),
(193,-157,o),
(212,-160,o),
(226,-160,cs),
(266,-160,o),
(287,-145,o),
(287,-116,cs),
(287,-85,o),
(267,-74,o),
(199,-66,cs),
(195,-66,o),
(192,-64,o),
(193,-60,cs),
(193,-59,o),
(193,-59,o),
(193,-57,c),
(233,11,l)
);
}
);
width = 421;
}
);
note = Ccedilla;
unicode = 199;
},
{
glyphname = Egrave;
layers = (
{
layerId = m01;
shapes = (
{
closed = 1;
nodes = (
(123,327,l),
(348,327,ls),
(359,327,o),
(365,322,o),
(365,313,cs),
(365,304,o),
(359,299,o),
(348,299,cs),
(123,299,l),
(123,28,l),
(396,28,ls),
(407,28,o),
(413,23,o),
(413,14,cs),
(413,5,o),
(407,0,o),
(396,0,cs),
(115,0,ls),
(98,0,o),
(91,7,o),
(91,24,cs),
(91,572,ls),
(91,589,o),
(98,596,o),
(115,596,cs),
(384,596,ls),
(395,596,o),
(401,591,o),
(401,582,cs),
(401,573,o),
(395,568,o),
(384,568,cs),
(123,568,l)
);
},
{
closed = 1;
nodes = (
(197,733,o),
(194,739,o),
(194,744,cs),
(194,755,o),
(203,764,o),
(214,764,cs),
(222,764,o),
(228,760,o),
(233,750,cs),
(276,676,l),
(279,673,o),
(280,670,o),
(280,668,cs),
(280,662,o),
(274,657,o),
(268,657,cs),
(264,657,o),
(261,659,o),
(257,663,cs),
(202,727,ls)
);
}
);
width = 445;
}
);
note = Egrave;
unicode = 200;
},
{
glyphname = Eacute;
layers = (
{
layerId = m01;
shapes = (
{
closed = 1;
nodes = (
(123,327,l),
(348,327,ls),
(359,327,o),
(365,322,o),
(365,313,cs),
(365,304,o),
(359,299,o),
(348,299,cs),
(123,299,l),
(123,28,l),
(396,28,ls),
(407,28,o),
(413,23,o),
(413,14,cs),
(413,5,o),
(407,0,o),
(396,0,cs),
(115,0,ls),
(98,0,o),
(91,7,o),
(91,24,cs),
(91,572,ls),
(91,589,o),
(98,596,o),
(115,596,cs),
(384,596,ls),
(395,596,o),
(401,591,o),
(401,582,cs),
(401,573,o),
(395,568,o),
(384,568,cs),
(123,568,l)
);
},
{
closed = 1;
nodes = (
(307,739,o),
(303,733,o),
(298,727,cs),
(243,663,ls),
(239,659,o),
(236,657,o),
(232,657,cs),
(226,657,o),
(221,662,o),
(221,668,cs),
(221,670,o),
(222,673,o),
(223,676,c),
(266,750,ls),
(272,760,o),
(278,764,o),
(286,764,cs),
(297,764,o),
(307,755,o),
(307,744,cs)
);
}
);
width = 445;
}
);
note = Eacute;
unicode = 201;
},
{
glyphname = Ecircumflex;
layers = (
{
layerId = m01;
shapes = (
{
closed = 1;
nodes = (
(123,327,l),
(348,327,ls),
(359,327,o),
(365,322,o),
(365,313,cs),
(365,304,o),
(359,299,o),
(348,299,cs),
(123,299,l),
(123,28,l),
(396,28,ls),
(407,28,o),
(413,23,o),
(413,14,cs),
(413,5,o),
(407,0,o),
(396,0,cs),
(115,0,ls),
(98,0,o),
(91,7,o),
(91,24,cs),
(91,572,ls),
(91,589,o),
(98,596,o),
(115,596,cs),
(384,596,ls),
(395,596,o),
(401,591,o),
(401,582,cs),
(401,573,o),
(395,568,o),
(384,568,cs),
(123,568,l)
);
},
{
closed = 1;
nodes = (
(169,662,ls),
(166,659,o),
(163,658,o),
(160,658,cs),
(154,658,o),
(148,663,o),
(148,669,cs),
(148,672,o),
(150,675,o),
(153,679,cs),
(207,742,ls),
(220,758,o),
(229,763,o),
(243,763,cs),
(257,763,o),
(265,758,o),
(279,742,cs),
(333,678,ls),
(336,675,o),
(337,672,o),
(337,669,cs),
(337,663,o),
(332,658,o),
(326,658,cs),
(323,658,o),
(320,659,o),
(317,662,cs),
(243,726,l)
);
}
);
width = 445;
}
);
note = Ecircumflex;
unicode = 202;
},
{
glyphname = Edieresis;
layers = (
{
layerId = m01;
shapes = (
{
closed = 1;
nodes = (
(123,327,l),
(348,327,ls),
(359,327,o),
(365,322,o),
(365,313,cs),
(365,304,o),
(359,299,o),
(348,299,cs),
(123,299,l),
(123,28,l),
(396,28,ls),
(407,28,o),
(413,23,o),
(413,14,cs),
(413,5,o),
(407,0,o),
(396,0,cs),
(115,0,ls),
(98,0,o),
(91,7,o),
(91,24,cs),
(91,572,ls),
(91,589,o),
(98,596,o),
(115,596,cs),
(384,596,ls),
(395,596,o),
(401,591,o),
(401,582,cs),
(401,573,o),
(395,568,o),
(384,568,cs),
(123,568,l)
);
},
{
closed = 1;
nodes = (
(199,741,o),
(207,729,o),
(207,707,cs),
(207,684,o),
(199,672,o),
(184,672,cs),
(168,672,o),
(161,684,o),
(161,707,cs),
(161,729,o),
(168,741,o),
(184,741,cs)
);
},
{
closed = 1;
nodes = (
(325,741,o),
(333,729,o),
(333,707,cs),
(333,684,o),
(325,672,o),
(310,672,cs),
(294,672,o),
(287,684,o),
(287,707,cs),
(287,729,o),
(294,741,o),
(310,741,cs)
);
}
);
width = 445;
}
);
note = Edieresis;
unicode = 203;
},
{
glyphname = Igrave;
layers = (
{
layerId = m01;
shapes = (
{
closed = 1;
nodes = (
(98,584,ls),
(98,597,o),
(104,604,o),
(114,604,cs),
(125,604,o),
(130,597,o),
(130,584,cs),
(130,12,ls),
(130,-1,o),
(125,-8,o),
(114,-8,cs),
(104,-8,o),
(98,-1,o),
(98,12,cs)
);
},
{
closed = 1;
nodes = (
(62,733,o),
(59,739,o),
(59,744,cs),
(59,755,o),
(68,764,o),
(79,764,cs),
(87,764,o),
(93,760,o),
(99,750,cs),
(142,676,ls),
(144,673,o),
(145,670,o),
(145,668,cs),
(145,662,o),
(139,657,o),
(133,657,cs),
(129,657,o),
(126,659,o),
(123,663,cs),
(67,727,ls)
);
}
);
width = 228;
}
);
note = Igrave;
unicode = 204;
},
{
glyphname = Iacute;
layers = (
{
layerId = m01;
shapes = (
{
closed = 1;
nodes = (
(98,584,ls),
(98,597,o),
(103,604,o),
(114,604,cs),
(124,604,o),
(130,597,o),
(130,584,cs),
(130,12,ls),
(130,-1,o),
(124,-8,o),
(114,-8,cs),
(103,-8,o),
(98,-1,o),
(98,12,cs)
);
},
{
closed = 1;
nodes = (
(168,739,o),
(165,733,o),
(160,727,cs),
(104,663,ls),
(100,659,o),
(97,657,o),
(94,657,cs),
(88,657,o),
(82,662,o),
(82,668,cs),
(82,670,o),
(83,673,o),
(85,676,cs),
(128,750,ls),
(134,760,o),
(139,764,o),
(148,764,cs),
(159,764,o),
(168,755,o),
(168,744,cs)
);
}
);
width = 228;
}
);
note = Iacute;
unicode = 205;
},
{
glyphname = Icircumflex;
layers = (
{
layerId = m01;
shapes = (
{
closed = 1;
nodes = (
(98,584,ls),
(98,597,o),
(104,604,o),
(114,604,cs),
(124,604,o),
(130,597,o),
(130,584,cs),
(130,12,ls),
(130,-1,o),
(124,-8,o),
(114,-8,cs),
(104,-8,o),
(98,-1,o),
(98,12,cs)
);
},
{
closed = 1;
nodes = (
(40,662,ls),
(37,659,o),
(33,658,o),
(31,658,cs),
(24,658,o),
(19,663,o),
(19,669,cs),
(19,672,o),
(21,675,o),
(23,679,c),
(77,742,ls),
(91,758,o),
(99,763,o),
(113,763,cs),
(128,763,o),
(136,758,o),
(150,742,cs),
(204,678,ls),
(207,675,o),
(208,672,o),
(208,669,cs),
(208,663,o),
(203,658,o),
(197,658,cs),
(194,658,o),
(191,659,o),
(187,662,cs),
(114,726,l)
);
}
);
width = 228;
}
);
note = Icircumflex;
unicode = 206;
},
{
glyphname = Idieresis;
layers = (
{
layerId = m01;
shapes = (
{
closed = 1;
nodes = (
(98,584,ls),
(98,597,o),
(104,604,o),
(114,604,cs),
(124,604,o),
(130,597,o),
(130,584,cs),
(130,12,ls),
(130,-1,o),
(124,-8,o),
(114,-8,cs),
(104,-8,o),
(98,-1,o),
(98,12,cs)
);
},
{
closed = 1;
nodes = (
(66,741,o),
(74,729,o),
(74,707,cs),
(74,684,o),
(66,672,o),
(51,672,cs),
(36,672,o),
(28,684,o),
(28,707,cs),
(28,729,o),
(36,741,o),
(51,741,cs)
);
},
{
closed = 1;
nodes = (
(192,741,o),
(200,729,o),
(200,707,cs),
(200,684,o),
(192,672,o),
(177,672,cs),
(162,672,o),
(154,684,o),
(154,707,cs),
(154,729,o),
(162,741,o),
(177,741,cs)
);
}
);
width = 228;
}
);
note = Idieresis;
unicode = 207;
},
{
glyphname = Eth;
layers = (
{
layerId = m01;
shapes = (
{
closed = 1;
nodes = (
(284,319,ls),
(295,319,o),
(301,314,o),
(301,305,cs),
(301,296,o),
(295,291,o),
(284,291,cs),
(26,291,ls),
(15,291,o),
(9,296,o),
(9,305,cs),
(9,314,o),
(15,319,o),
(26,319,cs)
);
},
{
closed = 1;
nodes = (
(91,572,ls),
(91,589,o),
(98,596,o),
(115,596,cs),
(249,596,ls),
(409,596,o),
(466,524,o),
(466,326,cs),
(466,270,ls),
(466,71,o),
(409,0,o),
(249,0,cs),
(115,0,ls),
(98,0,o),
(91,7,o),
(91,24,cs)
);
},
{
closed = 1;
nodes = (
(249,28,ls),
(407,28,o),
(434,128,o),
(434,267,cs),
(434,329,ls),
(434,468,o),
(407,568,o),
(249,568,cs),
(123,568,l),
(123,28,l)
);
}
);
width = 524;
}
);
note = Eth;
unicode = 208;
},
{
glyphname = Ntilde;
layers = (
{
layerId = m01;
shapes = (
{
closed = 1;
nodes = (
(449,584,ls),
(449,597,o),
(455,604,o),
(465,604,cs),
(475,604,o),
(481,597,o),
(481,584,cs),
(481,13,ls),
(481,0,o),
(475,-7,o),
(464,-7,cs),
(457,-7,o),
(453,-4,o),
(448,4,cs),
(126,544,l),
(126,12,ls),
(126,-1,o),
(120,-8,o),
(110,-8,cs),
(100,-8,o),
(94,-1,o),
(94,12,cs),
(94,577,ls),
(94,593,o),
(102,603,o),
(116,603,cs),
(125,603,o),
(131,599,o),
(137,588,cs),
(449,64,l)
);
},
{
closed = 1;
nodes = (
(408,741,o),
(404,722,o),
(400,711,cs),
(391,682,o),
(370,665,o),
(342,665,cs),
(321,665,o),
(311,671,o),
(283,701,cs),
(265,720,o),
(260,724,o),
(250,724,cs),
(237,724,o),
(224,707,o),
(214,676,cs),
(211,668,o),
(208,665,o),
(202,665,cs),
(195,665,o),
(190,670,o),
(190,676,cs),
(190,681,o),
(195,696,o),
(200,708,cs),
(213,738,o),
(230,752,o),
(256,752,cs),
(275,752,o),
(286,746,o),
(310,720,cs),
(334,695,o),
(336,693,o),
(349,693,cs),
(365,693,o),
(376,708,o),
(384,740,cs),
(386,749,o),
(390,753,o),
(397,753,cs),
(399,753,ls),
(404,753,o),
(408,749,o),
(408,743,cs)
);
}
);
width = 575;
}
);
note = Ntilde;
unicode = 209;
},
{
glyphname = Ograve;
kernLeft = C;
layers = (
{
layerId = m01;
shapes = (
{
closed = 1;
nodes = (
(466,260,ls),
(466,112,o),
(436,-10,o),
(262,-10,cs),
(87,-10,o),
(58,113,o),
(58,260,cs),
(58,336,ls),
(58,484,o),
(88,606,o),
(262,606,cs),
(437,606,o),
(466,483,o),
(466,336,cs)
);
},
{
closed = 1;
nodes = (
(96,133,o),
(107,18,o),
(262,18,cs),
(411,18,o),
(434,134,o),
(434,257,cs),
(434,339,ls),
(434,463,o),
(410,578,o),
(262,578,cs),
(113,578,o),
(90,462,o),
(90,339,cs),
(90,257,l)
);
},
{
closed = 1;
nodes = (
(209,733,o),
(207,739,o),
(207,744,cs),
(207,755,o),
(216,764,o),
(227,764,cs),
(235,764,o),
(240,760,o),
(246,750,cs),
(289,676,ls),
(291,673,o),
(293,670,o),
(293,668,cs),
(293,662,o),
(287,657,o),
(281,657,cs),
(277,657,o),
(274,659,o),
(270,663,cs),
(214,727,ls)
);
}
);
width = 524;
}
);
note = Ograve;
unicode = 210;
},
{
glyphname = Oacute;
kernLeft = C;
layers = (
{
layerId = m01;
shapes = (
{
closed = 1;
nodes = (
(466,260,ls),
(466,112,o),
(436,-10,o),
(262,-10,cs),
(87,-10,o),
(58,113,o),
(58,260,cs),
(58,336,ls),
(58,484,o),
(88,606,o),
(262,606,cs),
(437,606,o),
(466,483,o),
(466,336,cs)
);
},
{
closed = 1;
nodes = (
(96,133,o),
(107,18,o),
(262,18,cs),
(411,18,o),
(434,134,o),
(434,257,cs),
(434,339,ls),
(434,463,o),
(410,578,o),
(262,578,cs),
(113,578,o),
(90,462,o),
(90,339,cs),
(90,257,l)
);
},
{
closed = 1;
nodes = (
(316,739,o),
(313,733,o),
(308,727,cs),
(252,663,ls),
(249,659,o),
(246,657,o),
(242,657,cs),
(236,657,o),
(230,662,o),
(230,668,cs),
(230,670,o),
(231,673,o),
(233,676,cs),
(276,750,ls),
(282,760,o),
(288,764,o),
(296,764,cs),
(307,764,o),
(316,755,o),
(316,744,cs)
);
}
);
width = 524;
}
);
note = Oacute;
unicode = 211;
},
{
glyphname = Ocircumflex;
kernLeft = C;
layers = (
{
layerId = m01;
shapes = (
{
closed = 1;
nodes = (
(466,260,ls),
(466,112,o),
(436,-10,o),
(262,-10,cs),
(87,-10,o),
(58,113,o),
(58,260,cs),
(58,336,ls),
(58,484,o),
(88,606,o),
(262,606,cs),
(437,606,o),
(466,483,o),
(466,336,cs)
);
},
{
closed = 1;
nodes = (
(96,133,o),
(107,18,o),
(262,18,cs),
(411,18,o),
(434,134,o),
(434,257,cs),
(434,339,ls),
(434,463,o),
(410,578,o),
(262,578,cs),
(113,578,o),
(90,462,o),
(90,339,cs),
(90,257,l)
);
},
{
closed = 1;
nodes = (
(188,662,ls),
(184,659,o),
(181,658,o),
(179,658,cs),
(172,658,o),
(167,663,o),
(167,669,cs),
(167,672,o),
(168,675,o),
(171,679,cs),
(225,742,ls),
(239,758,o),
(247,763,o),
(261,763,cs),
(275,763,o),
(284,758,o),
(297,742,cs),
(352,678,ls),
(354,675,o),
(356,672,o),
(356,669,cs),
(356,663,o),
(351,658,o),
(345,658,cs),
(342,658,o),
(339,659,o),
(335,662,cs),
(261,726,l)
);
}
);
width = 524;
}
);
note = Ocircumflex;
unicode = 212;
},
{
glyphname = Otilde;
kernLeft = C;
layers = (
{
layerId = m01;
shapes = (
{
closed = 1;
nodes = (
(466,260,ls),
(466,112,o),
(436,-10,o),
(262,-10,cs),
(87,-10,o),
(58,113,o),
(58,260,cs),
(58,336,ls),
(58,484,o),
(88,606,o),
(262,606,cs),
(437,606,o),
(466,483,o),
(466,336,cs)
);
},
{
closed = 1;
nodes = (
(96,133,o),
(107,18,o),
(262,18,cs),
(411,18,o),
(434,134,o),
(434,257,cs),
(434,339,ls),
(434,463,o),
(410,578,o),
(262,578,cs),
(113,578,o),
(90,462,o),
(90,339,cs),
(90,257,l)
);
},
{
closed = 1;
nodes = (
(371,741,o),
(367,722,o),
(364,711,cs),
(355,682,o),
(333,665,o),
(305,665,cs),
(284,665,o),
(275,671,o),
(246,701,cs),
(228,720,o),
(223,724,o),
(214,724,cs),
(200,724,o),
(187,707,o),
(177,676,cs),
(174,668,o),
(171,665,o),
(165,665,cs),
(159,665,o),
(153,670,o),
(153,676,cs),
(153,681,o),
(158,696,o),
(163,708,cs),
(176,738,o),
(194,752,o),
(219,752,cs),
(238,752,o),
(249,746,o),
(273,720,cs),
(297,695,o),
(300,693,o),
(312,693,cs),
(328,693,o),
(339,708,o),
(347,740,cs),
(349,749,o),
(353,753,o),
(360,753,cs),
(362,753,ls),
(367,753,o),
(371,749,o),
(371,743,cs)
);
}
);
width = 524;
}
);
note = Otilde;
unicode = 213;
},
{
glyphname = Odieresis;
kernLeft = C;
layers = (
{
layerId = m01;
shapes = (
{
closed = 1;
nodes = (
(466,260,ls),
(466,112,o),
(436,-10,o),
(262,-10,cs),
(87,-10,o),
(58,113,o),
(58,260,cs),
(58,336,ls),
(58,484,o),
(88,606,o),
(262,606,cs),
(437,606,o),
(466,483,o),
(466,336,cs)
);
},
{
closed = 1;
nodes = (
(96,133,o),
(107,18,o),
(262,18,cs),
(411,18,o),
(434,134,o),
(434,257,cs),
(434,339,ls),
(434,463,o),
(410,578,o),
(262,578,cs),
(113,578,o),
(90,462,o),
(90,339,cs),
(90,257,l)
);
},
{
closed = 1;
nodes = (
(214,741,o),
(222,729,o),
(222,707,cs),
(222,684,o),
(214,672,o),
(199,672,cs),
(184,672,o),
(176,684,o),
(176,707,cs),
(176,729,o),
(184,741,o),
(199,741,cs)
);
},
{
closed = 1;
nodes = (
(340,741,o),
(348,729,o),
(348,707,cs),
(348,684,o),
(340,672,o),
(325,672,cs),
(310,672,o),
(302,684,o),
(302,707,cs),
(302,729,o),
(310,741,o),
(325,741,cs)
);
}
);
width = 524;
}
);
note = Odieresis;
unicode = 214;
},
{
glyphname = multiply;
layers = (
{
layerId = m01;
shapes = (
{
closed = 1;
nodes = (
(375,193,ls),
(380,188,o),
(382,184,o),
(382,180,cs),
(382,172,o),
(375,165,o),
(367,165,cs),
(364,165,o),
(359,167,o),
(355,171,cs),
(240,276,l),
(124,170,ls),
(120,166,o),
(116,164,o),
(112,164,cs),
(104,164,o),
(97,171,o),
(97,179,cs),
(97,183,o),
(99,187,o),
(104,192,cs),
(218,295,l),
(106,397,ls),
(100,402,o),
(98,406,o),
(98,411,cs),
(98,419,o),
(105,426,o),
(113,426,cs),
(117,426,o),
(121,424,o),
(126,419,cs),
(240,315,l),
(356,421,ls),
(361,425,o),
(365,427,o),
(369,427,cs),
(377,427,o),
(384,420,o),
(384,412,cs),
(384,407,o),
(382,403,o),
(376,399,c),
(263,295,l)
);
}
);
width = 480;
}
);
note = multiply;
unicode = 215;
},
{
glyphname = Oslash;
kernLeft = C;
layers = (
{
layerId = m01;
shapes = (
{
closed = 1;
nodes = (
(452,601,ls),
(457,607,o),
(461,610,o),
(466,610,cs),
(474,610,o),
(481,603,o),
(481,595,cs),
(481,592,o),
(479,588,o),
(477,584,c),
(75,3,ls),
(70,-3,o),
(66,-6,o),
(61,-6,cs),
(52,-6,o),
(45,1,o),
(45,9,cs),
(45,12,o),
(47,17,o),
(50,21,cs)
);
},
{
closed = 1;
nodes = (
(467,260,ls),
(467,112,o),
(437,-10,o),
(263,-10,cs),
(88,-10,o),
(59,114,o),
(59,260,cs),
(59,336,ls),
(59,484,o),
(89,606,o),
(263,606,cs),
(438,606,o),
(467,483,o),
(467,336,cs)
);
},
{
closed = 1;
nodes = (
(97,133,o),
(108,18,o),
(263,18,cs),
(337,18,o),
(384,44,o),
(410,100,cs),
(424,130,o),
(435,199,o),
(435,257,cs),
(435,339,ls),
(435,410,o),
(422,479,o),
(402,511,cs),
(373,557,o),
(330,578,o),
(263,578,cs),
(189,578,o),
(143,552,o),
(116,496,cs),
(102,467,o),
(91,397,o),
(91,339,cs),
(91,257,l)
);
}
);
width = 526;
}
);
note = Oslash;
unicode = 216;
},
{
glyphname = Ugrave;
layers = (
{
layerId = m01;
shapes = (
{
closed = 1;
nodes = (
(431,103,o),
(424,67,o),
(403,40,cs),
(376,5,o),
(334,-10,o),
(260,-10,cs),
(180,-10,o),
(134,8,o),
(110,51,cs),
(95,77,o),
(89,112,o),
(89,180,cs),
(89,584,ls),
(89,597,o),
(95,604,o),
(105,604,cs),
(115,604,o),
(121,597,o),
(121,584,cs),
(121,189,ls),
(121,124,o),
(128,84,o),
(142,63,cs),
(164,32,o),
(200,18,o),
(260,18,cs),
(325,18,o),
(364,35,o),
(383,72,cs),
(394,92,o),
(399,132,o),
(399,189,cs),
(399,584,ls),
(399,597,o),
(405,604,o),
(415,604,cs),
(425,604,o),
(431,597,o),
(431,584,cs),
(431,180,ls)
);
},
{
closed = 1;
nodes = (
(207,733,o),
(205,739,o),
(205,744,cs),
(205,755,o),
(214,764,o),
(225,764,cs),
(233,764,o),
(238,760,o),
(244,750,cs),
(287,676,ls),
(289,673,o),
(291,670,o),
(291,668,cs),
(291,662,o),
(285,657,o),
(279,657,cs),
(275,657,o),
(272,659,o),
(268,663,cs),
(212,727,ls)
);
}
);
width = 520;
}
);
note = Ugrave;
unicode = 217;
},
{
glyphname = Uacute;
layers = (
{
layerId = m01;
shapes = (
{
closed = 1;
nodes = (
(431,103,o),
(424,67,o),
(403,40,cs),
(376,5,o),
(334,-10,o),
(260,-10,cs),
(180,-10,o),
(134,8,o),
(110,51,cs),
(95,77,o),
(89,112,o),
(89,180,cs),
(89,584,ls),
(89,597,o),
(95,604,o),
(105,604,cs),
(115,604,o),
(121,597,o),
(121,584,cs),
(121,189,ls),
(121,124,o),
(128,84,o),
(142,63,cs),
(164,32,o),
(200,18,o),
(260,18,cs),
(325,18,o),
(364,35,o),
(383,72,cs),
(394,92,o),
(399,132,o),
(399,189,cs),
(399,584,ls),
(399,597,o),
(405,604,o),
(415,604,cs),
(425,604,o),
(431,597,o),
(431,584,cs),
(431,180,ls)
);
},
{
closed = 1;
nodes = (
(314,739,o),
(311,733,o),
(306,727,cs),
(250,663,ls),
(247,659,o),
(244,657,o),
(240,657,cs),
(234,657,o),
(228,662,o),
(228,668,cs),
(228,670,o),
(229,673,o),
(231,676,cs),
(274,750,ls),
(280,760,o),
(286,764,o),
(294,764,cs),
(305,764,o),
(314,755,o),
(314,744,cs)
);
}
);
width = 520;
}
);
note = Uacute;
unicode = 218;
},
{
glyphname = Ucircumflex;
layers = (
{
layerId = m01;
shapes = (
{
closed = 1;
nodes = (
(431,103,o),
(424,67,o),
(403,40,cs),
(376,5,o),
(334,-10,o),
(260,-10,cs),
(180,-10,o),
(134,8,o),
(110,51,cs),
(95,77,o),
(89,112,o),
(89,180,cs),
(89,584,ls),
(89,597,o),
(95,604,o),
(105,604,cs),
(115,604,o),
(121,597,o),
(121,584,cs),
(121,189,ls),
(121,124,o),
(128,84,o),
(142,63,cs),
(164,32,o),
(200,18,o),
(260,18,cs),
(325,18,o),
(364,35,o),
(383,72,cs),
(394,92,o),
(399,132,o),
(399,189,cs),
(399,584,ls),
(399,597,o),
(405,604,o),
(415,604,cs),
(425,604,o),
(431,597,o),
(431,584,cs),
(431,180,ls)
);
},
{
closed = 1;
nodes = (
(186,662,ls),
(182,659,o),
(179,658,o),
(177,658,cs),
(170,658,o),
(165,663,o),
(165,669,cs),
(165,672,o),
(166,675,o),
(169,679,cs),
(223,742,ls),
(237,758,o),
(245,763,o),
(259,763,cs),
(273,763,o),
(282,758,o),
(295,742,cs),
(350,678,ls),
(352,675,o),
(354,672,o),
(354,669,cs),
(354,663,o),
(349,658,o),
(343,658,cs),
(340,658,o),
(337,659,o),
(333,662,cs),
(259,726,l)
);
}
);
width = 520;
}
);
note = Ucircumflex;
unicode = 219;
},
{
glyphname = Udieresis;
layers = (
{
layerId = m01;
shapes = (
{
closed = 1;
nodes = (
(431,103,o),
(424,67,o),
(403,40,cs),
(376,5,o),
(334,-10,o),
(260,-10,cs),
(180,-10,o),
(134,8,o),
(110,51,cs),
(95,77,o),
(89,112,o),
(89,180,cs),
(89,584,ls),
(89,597,o),
(95,604,o),
(105,604,cs),
(115,604,o),
(121,597,o),
(121,584,cs),
(121,189,ls),
(121,124,o),
(128,84,o),
(142,63,cs),
(164,32,o),
(200,18,o),
(260,18,cs),
(325,18,o),
(364,35,o),
(383,72,cs),
(394,92,o),
(399,132,o),
(399,189,cs),
(399,584,ls),
(399,597,o),
(405,604,o),
(415,604,cs),
(425,604,o),
(431,597,o),
(431,584,cs),
(431,180,ls)
);
},
{
closed = 1;
nodes = (
(212,741,o),
(220,729,o),
(220,707,cs),
(220,684,o),
(212,672,o),
(197,672,cs),
(182,672,o),
(174,684,o),
(174,707,cs),
(174,729,o),
(182,741,o),
(197,741,cs)
);
},
{
closed = 1;
nodes = (
(338,741,o),
(346,729,o),
(346,707,cs),
(346,684,o),
(338,672,o),
(323,672,cs),
(308,672,o),
(300,684,o),
(300,707,cs),
(300,729,o),
(308,741,o),
(323,741,cs)
);
}
);
width = 520;
}
);
note = Udieresis;
unicode = 220;
},
{
glyphname = Yacute;
kernLeft = Y;
kernRight = Y;
layers = (
{
layerId = m01;
shapes = (
{
closed = 1;
nodes = (
(35,579,ls),
(33,583,o),
(32,586,o),
(32,589,cs),
(32,596,o),
(39,603,o),
(47,603,cs),
(54,603,o),
(59,600,o),
(63,592,cs),
(213,278,l),
(362,591,ls),
(366,600,o),
(371,603,o),
(378,603,cs),
(386,603,o),
(393,596,o),
(393,589,cs),
(393,586,o),
(392,582,o),
(390,578,cs),
(229,239,l),
(229,12,ls),
(229,-1,o),
(223,-8,o),
(213,-8,cs),
(203,-8,o),
(197,-1,o),
(197,12,cs),
(197,239,l)
);
},
{
closed = 1;
nodes = (
(283,739,o),
(280,733,o),
(275,727,cs),
(219,663,ls),
(216,659,o),
(213,657,o),
(209,657,cs),
(203,657,o),
(197,662,o),
(197,668,cs),
(197,670,o),
(198,673,o),
(200,676,cs),
(243,750,ls),
(249,760,o),
(255,764,o),
(263,764,cs),
(274,764,o),
(283,755,o),
(283,744,cs)
);
}
);
width = 425;
}
);
note = Yacute;
unicode = 221;
},
{
glyphname = Thorn;
kernRight = P;
layers = (
{
layerId = m01;
shapes = (
{
closed = 1;
nodes = (
(235,476,ls),
(367,476,o),
(421,428,o),
(421,311,cs),
(421,190,o),
(363,143,o),
(214,143,cs),
(123,143,l),
(123,12,ls),
(123,-1,o),
(117,-8,o),
(107,-8,cs),
(97,-8,o),
(91,-1,o),
(91,12,cs),
(91,584,ls),
(91,597,o),
(97,604,o),
(107,604,cs),
(117,604,o),
(123,597,o),
(123,584,cs),
(123,476,l)
);
},
{
closed = 1;
nodes = (
(218,171,ls),
(347,171,o),
(388,205,o),
(388,311,cs),
(388,414,o),
(351,448,o),
(239,448,cs),
(123,448,l),
(123,171,l)
);
}
);
width = 478;
}
);
note = Thorn;
unicode = 222;
},
{
glyphname = germandbls;
layers = (
{
layerId = m01;
shapes = (
{
closed = 1;
nodes = (
(223,238,o),
(204,267,o),
(204,308,cs),
(204,347,o),
(217,369,o),
(268,413,cs),
(303,444,o),
(310,458,o),
(310,493,cs),
(310,568,o),
(281,601,o),
(214,601,cs),
(165,601,o),
(133,582,o),
(120,546,cs),
(113,526,o),
(109,492,o),
(109,444,cs),
(109,12,ls),
(109,-1,o),
(103,-8,o),
(93,-8,cs),
(83,-8,o),
(77,-1,o),
(77,12,cs),
(77,452,ls),
(77,518,o),
(82,550,o),
(97,574,cs),
(118,610,o),
(159,629,o),
(213,629,cs),
(304,629,o),
(343,588,o),
(343,492,cs),
(343,445,o),
(337,434,o),
(272,376,cs),
(247,354,o),
(237,334,o),
(237,306,cs),
(237,272,o),
(248,261,o),
(313,225,cs),
(384,187,o),
(400,166,o),
(400,112,cs),
(400,34,o),
(358,-10,o),
(284,-10,cs),
(254,-10,o),
(223,-4,o),
(195,8,cs),
(185,13,o),
(181,17,o),
(181,25,cs),
(181,33,o),
(188,40,o),
(196,40,cs),
(199,40,o),
(202,39,o),
(207,36,cs),
(227,25,o),
(255,18,o),
(280,18,cs),
(337,18,o),
(367,49,o),
(367,110,cs),
(367,160,o),
(354,173,o),
(264,218,cs)
);
}
);
width = 425;
}
);
note = germandbls;
unicode = 223;
},
{
glyphname = agrave;
kernLeft = a;
kernRight = a;
layers = (
{
layerId = m01;
shapes = (
{
closed = 1;
nodes = (
(295,247,ls),
(295,329,o),
(273,356,o),
(205,356,cs),
(162,356,o),
(125,343,o),
(100,318,cs),
(95,314,o),
(92,312,o),
(87,312,cs),
(79,312,o),
(72,319,o),
(72,327,cs),
(72,332,o),
(74,336,o),
(78,340,cs),
(112,370,o),
(152,384,o),
(201,384,cs),
(256,384,o),
(294,368,o),
(312,338,cs),
(324,318,o),
(328,292,o),
(328,226,cs),
(328,10,ls),
(328,-1,o),
(323,-8,o),
(313,-8,cs),
(304,-8,o),
(299,-2,o),
(297,42,c),
(268,7,o),
(225,-10,o),
(165,-10,cs),
(86,-10,o),
(46,27,o),
(46,98,cs),
(46,145,o),
(63,180,o),
(98,202,cs),
(126,220,o),
(174,229,o),
(249,229,cs),
(262,229,o),
(273,229,o),
(295,228,c)
);
},
{
closed = 1;
nodes = (
(277,199,o),
(275,201,o),
(239,200,cs),
(157,200,o),
(79,193,o),
(79,95,cs),
(79,42,o),
(107,18,o),
(167,18,cs),
(218,18,o),
(296,38,o),
(296,101,cs),
(296,199,l)
);
},
{
closed = 1;
nodes = (
(154,533,o),
(151,539,o),
(151,544,cs),
(151,555,o),
(161,564,o),
(171,564,cs),
(179,564,o),
(185,560,o),
(191,550,cs),
(234,476,ls),
(236,473,o),
(237,470,o),
(237,468,cs),
(237,462,o),
(231,457,o),
(225,457,cs),
(222,457,o),
(219,459,o),
(215,463,cs),
(159,527,ls)
);
}
);
width = 402;
}
);
note = agrave;
unicode = 224;
},
{
glyphname = aacute;
kernLeft = a;
kernRight = a;
layers = (
{
layerId = m01;
shapes = (
{
closed = 1;
nodes = (
(295,247,ls),
(295,329,o),
(273,356,o),
(205,356,cs),
(162,356,o),
(125,343,o),
(100,318,cs),
(95,314,o),
(92,312,o),
(87,312,cs),
(79,312,o),
(72,319,o),
(72,327,cs),
(72,332,o),
(74,336,o),
(78,340,cs),
(112,370,o),
(152,384,o),
(201,384,cs),
(256,384,o),
(294,368,o),
(312,338,cs),
(324,318,o),
(328,292,o),
(328,226,cs),
(328,10,ls),
(328,-1,o),
(323,-8,o),
(313,-8,cs),
(304,-8,o),
(299,-2,o),
(297,42,c),
(268,7,o),
(225,-10,o),
(165,-10,cs),
(86,-10,o),
(46,27,o),
(46,98,cs),
(46,145,o),
(63,180,o),
(98,202,cs),
(126,220,o),
(174,229,o),
(249,229,cs),
(262,229,o),
(273,229,o),
(295,228,c)
);
},
{
closed = 1;
nodes = (
(277,199,o),
(275,201,o),
(239,200,cs),
(119,199,o),
(79,173,o),
(79,95,cs),
(79,42,o),
(107,18,o),
(167,18,cs),
(218,18,o),
(296,38,o),
(296,101,cs),
(296,199,l)
);
},
{
closed = 1;
nodes = (
(260,539,o),
(256,533,o),
(251,527,cs),
(196,463,ls),
(192,459,o),
(189,457,o),
(185,457,cs),
(179,457,o),
(174,462,o),
(174,468,cs),
(174,470,o),
(175,473,o),
(177,476,cs),
(220,550,ls),
(225,560,o),
(231,564,o),
(239,564,cs),
(250,564,o),
(260,555,o),
(260,544,cs)
);
}
);
width = 402;
}
);
note = aacute;
unicode = 225;
},
{
glyphname = acircumflex;
kernLeft = a;
kernRight = a;
layers = (
{
layerId = m01;
shapes = (
{
closed = 1;
nodes = (
(295,247,ls),
(295,329,o),
(273,356,o),
(205,356,cs),
(162,356,o),
(125,343,o),
(100,318,cs),
(95,314,o),
(92,312,o),
(87,312,cs),
(79,312,o),
(72,319,o),
(72,327,cs),
(72,332,o),
(74,336,o),
(78,340,cs),
(112,370,o),
(152,384,o),
(201,384,cs),
(256,384,o),
(294,368,o),
(312,338,cs),
(324,318,o),
(328,292,o),
(328,226,cs),
(328,10,ls),
(328,-1,o),
(323,-8,o),
(313,-8,cs),
(304,-8,o),
(299,-2,o),
(297,42,c),
(268,7,o),
(225,-10,o),
(165,-10,cs),
(86,-10,o),
(46,27,o),
(46,98,cs),
(46,145,o),
(63,180,o),
(98,202,cs),
(126,220,o),
(174,229,o),
(249,229,cs),
(262,229,o),
(273,229,o),
(295,228,c)
);
},
{
closed = 1;
nodes = (
(277,199,o),
(275,201,o),
(239,200,cs),
(119,199,o),
(79,173,o),
(79,95,cs),
(79,42,o),
(107,18,o),
(167,18,cs),
(218,18,o),
(296,38,o),
(296,101,cs),
(296,199,l)
);
},
{
closed = 1;
nodes = (
(130,462,ls),
(126,459,o),
(123,458,o),
(120,458,cs),
(114,458,o),
(109,463,o),
(109,469,cs),
(109,472,o),
(110,475,o),
(113,479,cs),
(167,542,ls),
(180,558,o),
(189,563,o),
(203,563,cs),
(217,563,o),
(226,558,o),
(239,542,cs),
(293,478,ls),
(296,475,o),
(298,472,o),
(298,469,cs),
(298,463,o),
(292,458,o),
(286,458,cs),
(283,458,o),
(280,459,o),
(277,462,cs),
(203,526,l)
);
}
);
width = 402;
}
);
note = acircumflex;
unicode = 226;
},
{
glyphname = atilde;
kernLeft = a;
kernRight = a;
layers = (
{
layerId = m01;
shapes = (
{
closed = 1;
nodes = (
(295,247,ls),
(295,329,o),
(273,356,o),
(205,356,cs),
(162,356,o),
(125,343,o),
(100,318,cs),
(95,314,o),
(92,312,o),
(87,312,cs),
(79,312,o),
(72,319,o),
(72,327,cs),
(72,332,o),
(74,336,o),
(78,340,cs),
(112,370,o),
(152,384,o),
(201,384,cs),
(256,384,o),
(294,368,o),
(312,338,cs),
(324,318,o),
(328,292,o),
(328,226,cs),
(328,10,ls),
(328,-1,o),
(323,-8,o),
(313,-8,cs),
(304,-8,o),
(299,-2,o),
(297,42,c),
(268,7,o),
(225,-10,o),
(165,-10,cs),
(86,-10,o),
(46,27,o),
(46,98,cs),
(46,145,o),
(63,180,o),
(98,202,cs),
(126,220,o),
(174,229,o),
(249,229,cs),
(262,229,o),
(273,229,o),
(295,228,c)
);
},
{
closed = 1;
nodes = (
(277,199,o),
(275,201,o),
(239,200,cs),
(119,199,o),
(79,173,o),
(79,95,cs),
(79,42,o),
(107,18,o),
(167,18,cs),
(218,18,o),
(296,38,o),
(296,101,cs),
(296,199,l)
);
},
{
closed = 1;
nodes = (
(313,541,o),
(309,522,o),
(305,511,cs),
(296,482,o),
(275,465,o),
(247,465,cs),
(226,465,o),
(217,471,o),
(188,501,cs),
(170,520,o),
(165,524,o),
(155,524,cs),
(142,524,o),
(129,507,o),
(119,476,cs),
(116,468,o),
(113,465,o),
(107,465,cs),
(100,465,o),
(95,470,o),
(95,476,cs),
(95,481,o),
(100,496,o),
(105,508,cs),
(118,538,o),
(135,552,o),
(161,552,cs),
(180,552,o),
(191,546,o),
(215,520,cs),
(239,495,o),
(241,493,o),
(254,493,cs),
(270,493,o),
(281,508,o),
(289,540,cs),
(291,549,o),
(295,553,o),
(302,553,cs),
(304,553,ls),
(309,553,o),
(313,549,o),
(313,543,cs)
);
}
);
width = 402;
}
);
note = atilde;
unicode = 227;
},
{
glyphname = adieresis;
kernLeft = a;
kernRight = a;
layers = (
{
layerId = m01;
shapes = (
{
closed = 1;
nodes = (
(295,247,ls),
(295,329,o),
(273,356,o),
(205,356,cs),
(162,356,o),
(125,343,o),
(100,318,cs),
(95,314,o),
(92,312,o),
(87,312,cs),
(79,312,o),
(72,319,o),
(72,327,cs),
(72,332,o),
(74,336,o),
(78,340,cs),
(112,370,o),
(152,384,o),
(201,384,cs),
(256,384,o),
(294,368,o),
(312,338,cs),
(324,318,o),
(328,292,o),
(328,226,cs),
(328,10,ls),
(328,-1,o),
(323,-8,o),
(313,-8,cs),
(304,-8,o),
(299,-2,o),
(297,42,c),
(268,7,o),
(225,-10,o),
(165,-10,cs),
(86,-10,o),
(46,27,o),
(46,98,cs),
(46,145,o),
(63,180,o),
(98,202,cs),
(126,220,o),
(174,229,o),
(249,229,cs),
(262,229,o),
(273,229,o),
(295,228,c)
);
},
{
closed = 1;
nodes = (
(277,199,o),
(275,201,o),
(239,200,cs),
(119,199,o),
(79,173,o),
(79,95,cs),
(79,42,o),
(107,18,o),
(167,18,cs),
(218,18,o),
(296,38,o),
(296,101,cs),
(296,199,l)
);
},
{
closed = 1;
nodes = (
(153,541,o),
(161,529,o),
(161,507,cs),
(161,484,o),
(153,472,o),
(138,472,cs),
(123,472,o),
(115,484,o),
(115,507,cs),
(115,529,o),
(123,541,o),
(138,541,cs)
);
},
{
closed = 1;
nodes = (
(279,541,o),
(287,529,o),
(287,507,cs),
(287,484,o),
(279,472,o),
(264,472,cs),
(249,472,o),
(241,484,o),
(241,507,cs),
(241,529,o),
(249,541,o),
(264,541,cs)
);
}
);
width = 402;
}
);
note = adieresis;
unicode = 228;
},
{
glyphname = aring;
kernLeft = a;
kernRight = a;
layers = (
{
layerId = m01;
shapes = (
{
closed = 1;
nodes = (
(295,247,ls),
(295,329,o),
(273,356,o),
(205,356,cs),
(162,356,o),
(125,343,o),
(100,318,cs),
(95,314,o),
(92,312,o),
(87,312,cs),
(79,312,o),
(72,319,o),
(72,327,cs),
(72,332,o),
(74,336,o),
(78,340,cs),
(112,370,o),
(152,384,o),
(201,384,cs),
(256,384,o),
(294,368,o),
(312,338,cs),
(324,318,o),
(328,292,o),
(328,226,cs),
(328,10,ls),
(328,-1,o),
(323,-8,o),
(313,-8,cs),
(304,-8,o),
(299,-2,o),
(297,42,c),
(268,7,o),
(225,-10,o),
(165,-10,cs),
(86,-10,o),
(46,27,o),
(46,98,cs),
(46,145,o),
(63,180,o),
(98,202,cs),
(126,220,o),
(174,229,o),
(249,229,cs),
(262,229,o),
(273,229,o),
(295,228,c)
);
},
{
closed = 1;
nodes = (
(277,199,o),
(275,201,o),
(239,200,cs),
(119,199,o),
(79,173,o),
(79,95,cs),
(79,42,o),
(107,18,o),
(167,18,cs),
(218,18,o),
(296,38,o),
(296,101,cs),
(296,199,l)
);
},
{
closed = 1;
nodes = (
(256,586,o),
(285,560,o),
(285,514,cs),
(285,468,o),
(256,442,o),
(207,442,cs),
(157,442,o),
(128,468,o),
(128,514,cs),
(128,560,o),
(157,586,o),
(207,586,cs)
);
},
{
closed = 1;
nodes = (
(175,562,o),
(157,544,o),
(157,514,cs),
(157,484,o),
(175,466,o),
(207,466,cs),
(238,466,o),
(256,484,o),
(256,514,cs),
(256,544,o),
(238,562,o),
(207,562,cs)
);
}
);
width = 402;
}
);
note = aring;
unicode = 229;
},
{
glyphname = ae;
kernRight = e;
layers = (
{
layerId = m01;
shapes = (
{
closed = 1;
nodes = (
(295,247,ls),
(295,329,o),
(273,356,o),
(205,356,cs),
(162,356,o),
(125,343,o),
(100,318,cs),
(95,314,o),
(92,312,o),
(87,312,cs),
(79,312,o),
(72,319,o),
(72,327,cs),
(72,332,o),
(74,336,o),
(78,340,cs),
(112,370,o),
(152,384,o),
(201,384,cs),
(254,384,o),
(291,368,o),
(309,338,cs),
(321,318,o),
(325,292,o),
(325,226,cs),
(325,93,ls),
(325,78,o),
(320,63,o),
(313,52,cs),
(284,12,o),
(231,-10,o),
(165,-10,cs),
(87,-10,o),
(46,27,o),
(46,97,cs),
(46,141,o),
(64,174,o),
(99,196,cs),
(126,213,o),
(174,221,o),
(246,221,cs),
(260,221,o),
(271,221,o),
(295,220,c)
);
},
{
closed = 1;
nodes = (
(281,193,o),
(274,193,o),
(266,193,cs),
(120,193,o),
(79,171,o),
(79,95,cs),
(79,42,o),
(107,18,o),
(167,18,cs),
(218,18,o),
(296,38,o),
(296,101,cs),
(296,192,l)
);
},
{
closed = 1;
nodes = (
(327,165,ls),
(327,63,o),
(364,18,o),
(450,18,cs),
(493,18,o),
(526,29,o),
(560,53,cs),
(564,56,o),
(569,58,o),
(572,58,cs),
(580,58,o),
(587,51,o),
(587,43,cs),
(587,36,o),
(584,32,o),
(574,25,cs),
(539,2,o),
(498,-10,o),
(450,-10,cs),
(347,-10,o),
(299,44,o),
(299,160,cs),
(299,214,ls),
(299,328,o),
(349,384,o),
(449,384,cs),
(499,384,o),
(536,371,o),
(559,342,cs),
(583,315,o),
(594,272,o),
(594,214,cs),
(594,199,o),
(585,192,o),
(570,192,cs),
(327,192,l)
);
},
{
closed = 1;
nodes = (
(558,317,o),
(525,356,o),
(447,356,cs),
(367,356,o),
(331,315,o),
(327,220,c),
(561,220,l)
);
}
);
width = 642;
}
);
note = ae;
unicode = 230;
},
{
glyphname = ccedilla;
kernLeft = c;
kernRight = c;
layers = (
{
layerId = m01;
shapes = (
{
closed = 1;
nodes = (
(51,327,o),
(102,384,o),
(202,384,cs),
(245,384,o),
(274,373,o),
(304,346,cs),
(310,341,o),
(313,336,o),
(313,331,cs),
(313,322,o),
(306,315,o),
(297,315,cs),
(292,315,o),
(288,317,o),
(283,322,cs),
(261,345,o),
(236,356,o),
(201,356,cs),
(121,356,o),
(83,309,o),
(83,209,cs),
(83,165,ls),
(83,65,o),
(121,18,o),
(202,18,cs),
(238,18,o),
(271,29,o),
(295,50,cs),
(302,56,o),
(305,58,o),
(310,58,cs),
(318,58,o),
(325,51,o),
(325,43,cs),
(325,37,o),
(322,33,o),
(313,26,cs),
(282,2,o),
(245,-10,o),
(201,-10,cs),
(102,-10,o),
(51,48,o),
(51,160,cs),
(51,214,ls)
);
},
{
closed = 1;
nodes = (
(211,11,l),
(178,-44,l),
(240,-56,o),
(262,-75,o),
(262,-118,cs),
(262,-161,o),
(234,-184,o),
(181,-184,cs),
(159,-184,o),
(128,-180,o),
(116,-175,cs),
(111,-173,o),
(108,-169,o),
(108,-164,cs),
(108,-158,o),
(113,-152,o),
(119,-152,cs),
(122,-152,o),
(123,-152,o),
(127,-154,c),
(139,-157,o),
(157,-160,o),
(172,-160,cs),
(211,-160,o),
(232,-145,o),
(232,-116,cs),
(232,-85,o),
(212,-74,o),
(144,-66,cs),
(140,-66,o),
(138,-64,o),
(138,-60,cs),
(138,-59,o),
(138,-59,o),
(139,-57,cs),
(179,11,l)
);
}
);
width = 353;
}
);
note = ccedilla;
unicode = 231;
},
{
glyphname = egrave;
kernLeft = c;
kernRight = e;
layers = (
{
layerId = m01;
shapes = (
{
closed = 1;
nodes = (
(83,165,ls),
(83,63,o),
(120,18,o),
(205,18,cs),
(248,18,o),
(283,29,o),
(315,53,cs),
(319,56,o),
(323,58,o),
(327,58,cs),
(335,58,o),
(342,51,o),
(342,42,cs),
(342,36,o),
(339,32,o),
(329,25,cs),
(295,2,o),
(253,-10,o),
(203,-10,cs),
(100,-10,o),
(51,45,o),
(51,160,cs),
(51,214,ls),
(51,328,o),
(102,384,o),
(204,384,cs),
(254,384,o),
(290,371,o),
(314,344,cs),
(338,316,o),
(349,273,o),
(349,213,cs),
(349,199,o),
(340,192,o),
(325,192,cs),
(83,192,l)
);
},
{
closed = 1;
nodes = (
(313,317,o),
(281,356,o),
(203,356,cs),
(123,356,o),
(87,315,o),
(83,220,c),
(316,220,l)
);
},
{
closed = 1;
nodes = (
(154,533,o),
(152,539,o),
(152,544,cs),
(152,555,o),
(161,564,o),
(172,564,cs),
(180,564,o),
(185,560,o),
(191,550,cs),
(234,476,ls),
(236,473,o),
(238,470,o),
(238,468,cs),
(238,462,o),
(232,457,o),
(226,457,cs),
(222,457,o),
(219,459,o),
(215,463,cs),
(159,527,ls)
);
}
);
width = 397;
}
);
note = egrave;
unicode = 232;
},
{
glyphname = eacute;
kernLeft = c;
kernRight = e;
layers = (
{
layerId = m01;
shapes = (
{
closed = 1;
nodes = (
(83,165,ls),
(83,63,o),
(120,18,o),
(205,18,cs),
(248,18,o),
(283,29,o),
(315,53,cs),
(319,56,o),
(323,58,o),
(327,58,cs),
(335,58,o),
(342,51,o),
(342,42,cs),
(342,36,o),
(339,32,o),
(329,25,cs),
(295,2,o),
(253,-10,o),
(203,-10,cs),
(100,-10,o),
(51,45,o),
(51,160,cs),
(51,214,ls),
(51,328,o),
(102,384,o),
(204,384,cs),
(254,384,o),
(290,371,o),
(314,344,cs),
(338,316,o),
(349,273,o),
(349,213,cs),
(349,199,o),
(340,192,o),
(325,192,cs),
(83,192,l)
);
},
{
closed = 1;
nodes = (
(313,317,o),
(281,356,o),
(203,356,cs),
(123,356,o),
(87,315,o),
(83,220,c),
(316,220,l)
);
},
{
closed = 1;
nodes = (
(263,539,o),
(260,533,o),
(254,527,cs),
(199,463,ls),
(195,459,o),
(192,457,o),
(189,457,cs),
(182,457,o),
(177,462,o),
(177,468,cs),
(177,470,o),
(178,473,o),
(180,476,cs),
(223,550,ls),
(228,560,o),
(234,564,o),
(242,564,cs),
(253,564,o),
(263,555,o),
(263,544,cs)
);
}
);
width = 397;
}
);
note = eacute;
unicode = 233;
},
{
glyphname = ecircumflex;
kernLeft = c;
kernRight = e;
layers = (
{
layerId = m01;
shapes = (
{
closed = 1;
nodes = (
(83,165,ls),
(83,63,o),
(120,18,o),
(205,18,cs),
(248,18,o),
(283,29,o),
(315,53,cs),
(319,56,o),
(323,58,o),
(327,58,cs),
(335,58,o),
(342,51,o),
(342,42,cs),
(342,36,o),
(339,32,o),
(329,25,cs),
(295,2,o),
(253,-10,o),
(203,-10,cs),
(100,-10,o),
(51,45,o),
(51,160,cs),
(51,214,ls),
(51,328,o),
(102,384,o),
(204,384,cs),
(254,384,o),
(290,371,o),
(314,344,cs),
(338,316,o),
(349,273,o),
(349,213,cs),
(349,199,o),
(340,192,o),
(325,192,cs),
(83,192,l)
);
},
{
closed = 1;
nodes = (
(313,317,o),
(281,356,o),
(203,356,cs),
(123,356,o),
(87,315,o),
(83,220,c),
(316,220,l)
);
},
{
closed = 1;
nodes = (
(131,462,ls),
(128,459,o),
(125,458,o),
(122,458,cs),
(116,458,o),
(110,463,o),
(110,469,cs),
(110,472,o),
(112,475,o),
(115,479,cs),
(169,542,ls),
(182,558,o),
(191,563,o),
(205,563,cs),
(219,563,o),
(227,558,o),
(241,542,cs),
(295,478,ls),
(298,475,o),
(299,472,o),
(299,469,cs),
(299,463,o),
(294,458,o),
(288,458,cs),
(285,458,o),
(282,459,o),
(279,462,cs),
(205,526,l)
);
}
);
width = 397;
}
);
note = ecircumflex;
unicode = 234;
},
{
glyphname = edieresis;
kernLeft = c;
kernRight = e;
layers = (
{
layerId = m01;
shapes = (
{
closed = 1;
nodes = (
(83,165,ls),
(83,63,o),
(120,18,o),
(205,18,cs),
(248,18,o),
(283,29,o),
(315,53,cs),
(319,56,o),
(323,58,o),
(327,58,cs),
(335,58,o),
(342,51,o),
(342,42,cs),
(342,36,o),
(339,32,o),
(329,25,cs),
(295,2,o),
(253,-10,o),
(203,-10,cs),
(100,-10,o),
(51,45,o),
(51,160,cs),
(51,214,ls),
(51,328,o),
(102,384,o),
(204,384,cs),
(254,384,o),
(290,371,o),
(314,344,cs),
(338,316,o),
(349,273,o),
(349,213,cs),
(349,199,o),
(340,192,o),
(325,192,cs),
(83,192,l)
);
},
{
closed = 1;
nodes = (
(313,317,o),
(281,356,o),
(203,356,cs),
(123,356,o),
(87,315,o),
(83,220,c),
(316,220,l)
);
},
{
closed = 1;
nodes = (
(156,541,o),
(164,529,o),
(164,507,cs),
(164,484,o),
(156,472,o),
(141,472,cs),
(126,472,o),
(118,484,o),
(118,507,cs),
(118,529,o),
(126,541,o),
(141,541,cs)
);
},
{
closed = 1;
nodes = (
(282,541,o),
(290,529,o),
(290,507,cs),
(290,484,o),
(282,472,o),
(267,472,cs),
(252,472,o),
(244,484,o),
(244,507,cs),
(244,529,o),
(252,541,o),
(267,541,cs)
);
}
);
width = 397;
}
);
note = edieresis;
unicode = 235;
},
{
glyphname = igrave;
layers = (
{
layerId = m01;
shapes = (
{
closed = 1;
nodes = (
(84,362,ls),
(84,375,o),
(90,382,o),
(100,382,cs),
(111,382,o),
(116,375,o),
(116,362,cs),
(116,12,ls),
(116,-1,o),
(111,-8,o),
(100,-8,cs),
(90,-8,o),
(84,-1,o),
(84,12,cs)
);
},
{
closed = 1;
nodes = (
(48,533,o),
(45,539,o),
(45,544,cs),
(45,555,o),
(54,564,o),
(65,564,cs),
(73,564,o),
(79,560,o),
(85,550,cs),
(128,476,ls),
(130,473,o),
(131,470,o),
(131,468,cs),
(131,462,o),
(125,457,o),
(119,457,cs),
(115,457,o),
(112,459,o),
(109,463,cs),
(53,527,ls)
);
}
);
width = 200;
}
);
note = igrave;
unicode = 236;
},
{
glyphname = iacute;
layers = (
{
layerId = m01;
shapes = (
{
closed = 1;
nodes = (
(84,362,ls),
(84,375,o),
(89,382,o),
(100,382,cs),
(110,382,o),
(116,375,o),
(116,362,cs),
(116,12,ls),
(116,-1,o),
(110,-8,o),
(100,-8,cs),
(89,-8,o),
(84,-1,o),
(84,12,cs)
);
},
{
closed = 1;
nodes = (
(154,539,o),
(151,533,o),
(146,527,cs),
(90,463,ls),
(86,459,o),
(83,457,o),
(80,457,cs),
(74,457,o),
(68,462,o),
(68,468,cs),
(68,470,o),
(69,473,o),
(71,476,cs),
(114,550,ls),
(120,560,o),
(125,564,o),
(134,564,cs),
(145,564,o),
(154,555,o),
(154,544,cs)
);
}
);
width = 200;
}
);
note = iacute;
unicode = 237;
},
{
glyphname = icircumflex;
layers = (
{
layerId = m01;
shapes = (
{
closed = 1;
nodes = (
(84,362,ls),
(84,375,o),
(90,382,o),
(100,382,cs),
(110,382,o),
(116,375,o),
(116,362,cs),
(116,12,ls),
(116,-1,o),
(110,-8,o),
(100,-8,cs),
(90,-8,o),
(84,-1,o),
(84,12,cs)
);
},
{
closed = 1;
nodes = (
(26,462,ls),
(23,459,o),
(19,458,o),
(17,458,cs),
(10,458,o),
(5,463,o),
(5,469,cs),
(5,472,o),
(7,475,o),
(9,479,c),
(63,542,ls),
(77,558,o),
(85,563,o),
(99,563,cs),
(114,563,o),
(122,558,o),
(136,542,cs),
(190,478,ls),
(193,475,o),
(194,472,o),
(194,469,cs),
(194,463,o),
(189,458,o),
(183,458,cs),
(180,458,o),
(177,459,o),
(173,462,cs),
(100,526,l)
);
}
);
width = 200;
}
);
note = icircumflex;
unicode = 238;
},
{
glyphname = idieresis;
layers = (
{
layerId = m01;
shapes = (
{
closed = 1;
nodes = (
(84,362,ls),
(84,375,o),
(90,382,o),
(100,382,cs),
(110,382,o),
(116,375,o),
(116,362,cs),
(116,12,ls),
(116,-1,o),
(110,-8,o),
(100,-8,cs),
(90,-8,o),
(84,-1,o),
(84,12,cs)
);
},
{
closed = 1;
nodes = (
(52,541,o),
(60,529,o),
(60,507,cs),
(60,484,o),
(52,472,o),
(37,472,cs),
(22,472,o),
(14,484,o),
(14,507,cs),
(14,529,o),
(22,541,o),
(37,541,cs)
);
},
{
closed = 1;
nodes = (
(178,541,o),
(186,529,o),
(186,507,cs),
(186,484,o),
(178,472,o),
(163,472,cs),
(148,472,o),
(140,484,o),
(140,507,cs),
(140,529,o),
(148,541,o),
(163,541,cs)
);
}
);
width = 200;
}
);
note = idieresis;
unicode = 239;
},
{
glyphname = eth;
kernLeft = c;
layers = (
{
layerId = m01;
shapes = (
{
closed = 1;
nodes = (
(157,489,ls),
(153,487,o),
(150,486,o),
(147,486,cs),
(140,486,o),
(134,493,o),
(134,500,cs),
(134,507,o),
(137,511,o),
(145,515,cs),
(307,592,ls),
(311,594,o),
(315,595,o),
(318,595,cs),
(325,595,o),
(331,588,o),
(331,581,cs),
(331,574,o),
(328,570,o),
(320,566,cs)
);
},
{
closed = 1;
nodes = (
(291,425,o),
(262,493,o),
(230,531,cs),
(198,567,o),
(166,586,o),
(113,601,cs),
(103,603,o),
(99,608,o),
(99,615,cs),
(99,623,o),
(105,629,o),
(112,629,cs),
(128,629,o),
(167,617,o),
(192,604,cs),
(248,576,o),
(289,521,o),
(319,436,cs),
(344,365,o),
(357,291,o),
(357,214,cs),
(357,160,ls),
(357,43,o),
(309,-10,o),
(204,-10,cs),
(99,-10,o),
(51,43,o),
(51,160,cs),
(51,214,ls),
(51,331,o),
(99,384,o),
(204,384,cs),
(246,384,o),
(277,376,o),
(303,358,c)
);
},
{
closed = 1;
nodes = (
(325,310,o),
(287,356,o),
(204,356,cs),
(121,356,o),
(83,310,o),
(83,209,cs),
(83,165,ls),
(87,56,o),
(119,18,o),
(204,18,cs),
(287,18,o),
(325,64,o),
(325,165,cs),
(325,209,ls)
);
}
);
width = 408;
}
);
note = eth;
unicode = 240;
},
{
glyphname = ntilde;
kernLeft = m;
layers = (
{
layerId = m01;
shapes = (
{
closed = 1;
nodes = (
(134,367,o),
(173,384,o),
(231,384,cs),
(302,384,o),
(343,356,o),
(358,298,cs),
(362,280,o),
(365,247,o),
(365,205,cs),
(365,12,ls),
(365,-1,o),
(359,-8,o),
(349,-8,cs),
(339,-8,o),
(333,-1,o),
(333,12,cs),
(333,202,ls),
(333,250,o),
(329,285,o),
(321,303,cs),
(306,338,o),
(275,356,o),
(232,356,cs),
(188,356,o),
(149,341,o),
(131,316,cs),
(115,293,o),
(109,263,o),
(109,202,cs),
(109,12,ls),
(109,-1,o),
(103,-8,o),
(93,-8,cs),
(83,-8,o),
(77,-1,o),
(77,12,cs),
(77,364,ls),
(77,375,o),
(82,382,o),
(92,382,cs),
(101,382,o),
(107,376,o),
(109,330,c)
);
},
{
closed = 1;
nodes = (
(329,541,o),
(324,522,o),
(321,511,cs),
(312,482,o),
(291,465,o),
(263,465,cs),
(242,465,o),
(232,471,o),
(203,501,cs),
(186,520,o),
(180,524,o),
(171,524,cs),
(157,524,o),
(144,507,o),
(135,476,cs),
(132,468,o),
(129,465,o),
(122,465,cs),
(116,465,o),
(111,470,o),
(111,476,cs),
(111,481,o),
(115,496,o),
(121,508,cs),
(133,538,o),
(151,552,o),
(176,552,cs),
(196,552,o),
(206,546,o),
(231,520,cs),
(255,495,o),
(257,493,o),
(269,493,cs),
(285,493,o),
(297,508,o),
(305,540,cs),
(307,549,o),
(311,553,o),
(318,553,cs),
(319,553,ls),
(325,553,o),
(329,549,o),
(329,543,cs)
);
}
);
width = 439;
}
);
note = ntilde;
unicode = 241;
},
{
glyphname = ograve;
kernLeft = c;
kernRight = b;
layers = (
{
layerId = m01;
shapes = (
{
closed = 1;
nodes = (
(51,331,o),
(99,384,o),
(204,384,cs),
(309,384,o),
(357,331,o),
(357,214,cs),
(357,160,ls),
(357,43,o),
(309,-10,o),
(204,-10,cs),
(99,-10,o),
(51,43,o),
(51,160,cs),
(51,214,ls)
);
},
{
closed = 1;
nodes = (
(325,310,o),
(287,356,o),
(204,356,cs),
(121,356,o),
(83,310,o),
(83,209,cs),
(83,165,ls),
(87,57,o),
(119,18,o),
(204,18,cs),
(287,18,o),
(325,64,o),
(325,165,cs),
(325,209,ls)
);
},
{
closed = 1;
nodes = (
(151,533,o),
(149,539,o),
(149,544,cs),
(149,555,o),
(158,564,o),
(169,564,cs),
(177,564,o),
(182,560,o),
(188,550,cs),
(231,476,ls),
(233,473,o),
(235,470,o),
(235,468,cs),
(235,462,o),
(229,457,o),
(223,457,cs),
(219,457,o),
(216,459,o),
(212,463,cs),
(156,527,ls)
);
}
);
width = 408;
}
);
note = ograve;
unicode = 242;
},
{
glyphname = oacute;
kernLeft = c;
kernRight = b;
layers = (
{
layerId = m01;
shapes = (
{
closed = 1;
nodes = (
(51,331,o),
(99,384,o),
(204,384,cs),
(309,384,o),
(357,331,o),
(357,214,cs),
(357,160,ls),
(357,43,o),
(309,-10,o),
(204,-10,cs),
(99,-10,o),
(51,43,o),
(51,160,cs),
(51,214,ls)
);
},
{
closed = 1;
nodes = (
(325,310,o),
(287,356,o),
(204,356,cs),
(121,356,o),
(83,310,o),
(83,209,cs),
(83,165,ls),
(87,57,o),
(119,18,o),
(204,18,cs),
(287,18,o),
(325,64,o),
(325,165,cs),
(325,209,ls)
);
},
{
closed = 1;
nodes = (
(258,539,o),
(255,533,o),
(250,527,cs),
(194,463,ls),
(191,459,o),
(188,457,o),
(184,457,cs),
(178,457,o),
(172,462,o),
(172,468,cs),
(172,470,o),
(173,473,o),
(175,476,cs),
(218,550,ls),
(224,560,o),
(230,564,o),
(238,564,cs),
(249,564,o),
(258,555,o),
(258,544,cs)
);
}
);
width = 408;
}
);
note = oacute;
unicode = 243;
},
{
glyphname = ocircumflex;
kernLeft = c;
kernRight = b;
layers = (
{
layerId = m01;
shapes = (
{
closed = 1;
nodes = (
(51,331,o),
(99,384,o),
(204,384,cs),
(309,384,o),
(357,331,o),
(357,214,cs),
(357,160,ls),
(357,43,o),
(309,-10,o),
(204,-10,cs),
(99,-10,o),
(51,43,o),
(51,160,cs),
(51,214,ls)
);
},
{
closed = 1;
nodes = (
(325,310,o),
(287,356,o),
(204,356,cs),
(121,356,o),
(83,310,o),
(83,209,cs),
(83,165,ls),
(87,57,o),
(119,18,o),
(204,18,cs),
(287,18,o),
(325,64,o),
(325,165,cs),
(325,209,ls)
);
},
{
closed = 1;
nodes = (
(130,462,ls),
(126,459,o),
(123,458,o),
(121,458,cs),
(114,458,o),
(109,463,o),
(109,469,cs),
(109,472,o),
(110,475,o),
(113,479,cs),
(167,542,ls),
(181,558,o),
(189,563,o),
(203,563,cs),
(217,563,o),
(226,558,o),
(239,542,cs),
(294,478,ls),
(296,475,o),
(298,472,o),
(298,469,cs),
(298,463,o),
(293,458,o),
(287,458,cs),
(284,458,o),
(281,459,o),
(277,462,cs),
(203,526,l)
);
}
);
width = 408;
}
);
note = ocircumflex;
unicode = 244;
},
{
glyphname = otilde;
kernLeft = c;
layers = (
{
layerId = m01;
shapes = (
{
closed = 1;
nodes = (
(51,331,o),
(99,384,o),
(204,384,cs),
(309,384,o),
(357,331,o),
(357,214,cs),
(357,160,ls),
(357,43,o),
(309,-10,o),
(204,-10,cs),
(99,-10,o),
(51,43,o),
(51,160,cs),
(51,214,ls)
);
},
{
closed = 1;
nodes = (
(325,310,o),
(287,356,o),
(204,356,cs),
(121,356,o),
(83,310,o),
(83,209,cs),
(83,165,ls),
(87,57,o),
(119,18,o),
(204,18,cs),
(287,18,o),
(325,64,o),
(325,165,cs),
(325,209,ls)
);
},
{
closed = 1;
nodes = (
(313,541,o),
(309,522,o),
(306,511,cs),
(297,482,o),
(275,465,o),
(247,465,cs),
(226,465,o),
(217,471,o),
(188,501,cs),
(170,520,o),
(165,524,o),
(156,524,cs),
(142,524,o),
(129,507,o),
(119,476,cs),
(116,468,o),
(113,465,o),
(107,465,cs),
(101,465,o),
(95,470,o),
(95,476,cs),
(95,481,o),
(100,496,o),
(105,508,cs),
(118,538,o),
(136,552,o),
(161,552,cs),
(180,552,o),
(191,546,o),
(215,520,cs),
(239,495,o),
(242,493,o),
(254,493,cs),
(270,493,o),
(281,508,o),
(289,540,cs),
(291,549,o),
(295,553,o),
(302,553,cs),
(304,553,ls),
(309,553,o),
(313,549,o),
(313,543,cs)
);
}
);
width = 408;
}
);
note = otilde;
unicode = 245;
},
{
glyphname = odieresis;
kernLeft = c;
kernRight = b;
layers = (
{
layerId = m01;
shapes = (
{
closed = 1;
nodes = (
(51,331,o),
(99,384,o),
(204,384,cs),
(309,384,o),
(357,331,o),
(357,214,cs),
(357,160,ls),
(357,43,o),
(309,-10,o),
(204,-10,cs),
(99,-10,o),
(51,43,o),
(51,160,cs),
(51,214,ls)
);
},
{
closed = 1;
nodes = (
(325,310,o),
(287,356,o),
(204,356,cs),
(121,356,o),
(83,310,o),
(83,209,cs),
(83,165,ls),
(87,57,o),
(119,18,o),
(204,18,cs),
(287,18,o),
(325,64,o),
(325,165,cs),
(325,209,ls)
);
},
{
closed = 1;
nodes = (
(156,541,o),
(164,529,o),
(164,507,cs),
(164,484,o),
(156,472,o),
(141,472,cs),
(126,472,o),
(118,484,o),
(118,507,cs),
(118,529,o),
(126,541,o),
(141,541,cs)
);
},
{
closed = 1;
nodes = (
(282,541,o),
(290,529,o),
(290,507,cs),
(290,484,o),
(282,472,o),
(267,472,cs),
(252,472,o),
(244,484,o),
(244,507,cs),
(244,529,o),
(252,541,o),
(267,541,cs)
);
}
);
width = 408;
}
);
note = odieresis;
unicode = 246;
},
{
glyphname = divide;
layers = (
{
layerId = m01;
shapes = (
{
closed = 1;
nodes = (
(255,427,o),
(264,417,o),
(264,398,cs),
(264,378,o),
(255,368,o),
(239,368,cs),
(222,368,o),
(213,378,o),
(213,398,cs),
(213,417,o),
(222,427,o),
(239,427,cs)
);
},
{
closed = 1;
nodes = (
(255,220,o),
(264,210,o),
(264,191,cs),
(264,171,o),
(255,161,o),
(239,161,cs),
(222,161,o),
(213,171,o),
(213,191,cs),
(213,210,o),
(222,220,o),
(239,220,cs)
);
},
{
closed = 1;
nodes = (
(409,308,ls),
(420,308,o),
(426,303,o),
(426,294,cs),
(426,285,o),
(420,280,o),
(409,280,cs),
(70,280,ls),
(59,280,o),
(53,285,o),
(53,294,cs),
(53,303,o),
(59,308,o),
(70,308,cs)
);
}
);
width = 480;
}
);
note = divide;
unicode = 247;
},
{
glyphname = oslash;
kernLeft = c;
kernRight = b;
layers = (
{
layerId = m01;
shapes = (
{
closed = 1;
nodes = (
(348,383,l),
(352,389,o),
(357,391,o),
(361,391,cs),
(370,391,o),
(377,384,o),
(377,376,cs),
(377,372,o),
(375,368,o),
(371,364,cs),
(60,-8,ls),
(56,-13,o),
(51,-16,o),
(47,-16,cs),
(38,-16,o),
(31,-9,o),
(31,-1,cs),
(31,3,o),
(33,8,o),
(37,12,cs)
);
},
{
closed = 1;
nodes = (
(51,331,o),
(99,384,o),
(204,384,cs),
(309,384,o),
(357,331,o),
(357,214,cs),
(357,160,ls),
(357,43,o),
(309,-10,o),
(204,-10,cs),
(99,-10,o),
(51,43,o),
(51,160,cs),
(51,214,ls)
);
},
{
closed = 1;
nodes = (
(87,57,o),
(119,18,o),
(204,18,cs),
(288,18,o),
(325,64,o),
(325,165,cs),
(325,209,ls),
(325,310,o),
(288,356,o),
(204,356,cs),
(121,356,o),
(83,310,o),
(83,209,cs),
(83,165,ls)
);
}
);
width = 408;
}
);
note = oslash;
unicode = 248;
},
{
glyphname = ugrave;
kernLeft = u;
layers = (
{
layerId = m01;
shapes = (
{
closed = 1;
nodes = (
(293,4,o),
(257,-10,o),
(201,-10,cs),
(134,-10,o),
(95,13,o),
(81,61,cs),
(76,79,o),
(74,102,o),
(74,139,cs),
(74,362,ls),
(74,375,o),
(80,382,o),
(90,382,cs),
(100,382,o),
(106,375,o),
(106,362,cs),
(106,142,ls),
(106,103,o),
(110,75,o),
(118,61,cs),
(132,32,o),
(161,18,o),
(204,18,cs),
(246,18,o),
(279,29,o),
(297,50,cs),
(313,68,o),
(318,92,o),
(318,142,cs),
(318,362,ls),
(318,375,o),
(324,382,o),
(334,382,cs),
(344,382,o),
(350,375,o),
(350,362,cs),
(350,10,ls),
(350,-1,o),
(344,-8,o),
(335,-8,cs),
(325,-8,o),
(319,-2,o),
(319,35,c)
);
},
{
closed = 1;
nodes = (
(161,533,o),
(158,539,o),
(158,544,cs),
(158,555,o),
(167,564,o),
(178,564,cs),
(186,564,o),
(192,560,o),
(198,550,cs),
(241,476,ls),
(243,473,o),
(244,470,o),
(244,468,cs),
(244,462,o),
(238,457,o),
(232,457,cs),
(229,457,o),
(225,459,o),
(222,463,cs),
(166,527,ls)
);
}
);
width = 427;
}
);
note = ugrave;
unicode = 249;
},
{
glyphname = uacute;
kernLeft = u;
layers = (
{
layerId = m01;
shapes = (
{
closed = 1;
nodes = (
(293,4,o),
(257,-10,o),
(201,-10,cs),
(134,-10,o),
(95,13,o),
(81,61,cs),
(76,79,o),
(74,102,o),
(74,139,cs),
(74,362,ls),
(74,375,o),
(80,382,o),
(90,382,cs),
(100,382,o),
(106,375,o),
(106,362,cs),
(106,142,ls),
(106,103,o),
(110,75,o),
(118,61,cs),
(132,32,o),
(161,18,o),
(204,18,cs),
(246,18,o),
(279,29,o),
(297,50,cs),
(313,68,o),
(318,92,o),
(318,142,cs),
(318,362,ls),
(318,375,o),
(324,382,o),
(334,382,cs),
(344,382,o),
(350,375,o),
(350,362,cs),
(350,10,ls),
(350,-1,o),
(344,-8,o),
(335,-8,cs),
(325,-8,o),
(319,-2,o),
(319,35,c)
);
},
{
closed = 1;
nodes = (
(274,539,o),
(270,533,o),
(265,527,cs),
(210,463,ls),
(206,459,o),
(203,457,o),
(199,457,cs),
(193,457,o),
(188,462,o),
(188,468,cs),
(188,470,o),
(189,473,o),
(190,476,c),
(233,550,ls),
(239,560,o),
(245,564,o),
(253,564,cs),
(264,564,o),
(274,555,o),
(274,544,cs)
);
}
);
width = 427;
}
);
note = uacute;
unicode = 250;
},
{
glyphname = ucircumflex;
kernLeft = u;
layers = (
{
layerId = m01;
shapes = (
{
closed = 1;
nodes = (
(293,4,o),
(257,-10,o),
(201,-10,cs),
(134,-10,o),
(95,13,o),
(81,61,cs),
(76,79,o),
(74,102,o),
(74,139,cs),
(74,362,ls),
(74,375,o),
(80,382,o),
(90,382,cs),
(100,382,o),
(106,375,o),
(106,362,cs),
(106,142,ls),
(106,103,o),
(110,75,o),
(118,61,cs),
(132,32,o),
(161,18,o),
(204,18,cs),
(246,18,o),
(279,29,o),
(297,50,cs),
(313,68,o),
(318,92,o),
(318,142,cs),
(318,362,ls),
(318,375,o),
(324,382,o),
(334,382,cs),
(344,382,o),
(350,375,o),
(350,362,cs),
(350,10,ls),
(350,-1,o),
(344,-8,o),
(335,-8,cs),
(325,-8,o),
(319,-2,o),
(319,35,c)
);
},
{
closed = 1;
nodes = (
(139,462,ls),
(136,459,o),
(133,458,o),
(130,458,cs),
(124,458,o),
(118,463,o),
(118,469,cs),
(118,472,o),
(120,475,o),
(123,479,cs),
(177,542,ls),
(190,558,o),
(199,563,o),
(213,563,cs),
(227,563,o),
(235,558,o),
(249,542,cs),
(303,478,ls),
(306,475,o),
(307,472,o),
(307,469,cs),
(307,463,o),
(302,458,o),
(296,458,cs),
(293,458,o),
(290,459,o),
(287,462,cs),
(213,526,l)
);
}
);
width = 427;
}
);
note = ucircumflex;
unicode = 251;
},
{
glyphname = udieresis;
kernLeft = u;
layers = (
{
layerId = m01;
shapes = (
{
closed = 1;
nodes = (
(293,4,o),
(257,-10,o),
(201,-10,cs),
(134,-10,o),
(95,13,o),
(81,61,cs),
(76,79,o),
(74,102,o),
(74,139,cs),
(74,362,ls),
(74,375,o),
(80,382,o),
(90,382,cs),
(100,382,o),
(106,375,o),
(106,362,cs),
(106,142,ls),
(106,103,o),
(110,75,o),
(118,61,cs),
(132,32,o),
(161,18,o),
(204,18,cs),
(246,18,o),
(279,29,o),
(297,50,cs),
(313,68,o),
(318,92,o),
(318,142,cs),
(318,362,ls),
(318,375,o),
(324,382,o),
(334,382,cs),
(344,382,o),
(350,375,o),
(350,362,cs),
(350,10,ls),
(350,-1,o),
(344,-8,o),
(335,-8,cs),
(325,-8,o),
(319,-2,o),
(319,35,c)
);
},
{
closed = 1;
nodes = (
(166,541,o),
(174,529,o),
(174,507,cs),
(174,484,o),
(166,472,o),
(151,472,cs),
(135,472,o),
(128,484,o),
(128,507,cs),
(128,529,o),
(135,541,o),
(151,541,cs)
);
},
{
closed = 1;
nodes = (
(292,541,o),
(300,529,o),
(300,507,cs),
(300,484,o),
(292,472,o),
(277,472,cs),
(261,472,o),
(254,484,o),
(254,507,cs),
(254,529,o),
(261,541,o),
(277,541,cs)
);
}
);
width = 427;
}
);
note = udieresis;
unicode = 252;
},
{
glyphname = yacute;
kernLeft = v;
kernRight = v;
layers = (
{
layerId = m01;
shapes = (
{
closed = 1;
nodes = (
(23,357,ls),
(22,360,o),
(21,364,o),
(21,367,cs),
(21,374,o),
(28,381,o),
(37,381,cs),
(44,381,o),
(49,377,o),
(53,368,cs),
(177,39,l),
(291,367,ls),
(294,378,o),
(299,382,o),
(307,382,cs),
(316,382,o),
(323,375,o),
(323,367,cs),
(323,364,o),
(322,360,o),
(321,357,cs),
(157,-98,ls),
(141,-142,o),
(125,-168,o),
(106,-183,cs),
(94,-191,o),
(72,-201,o),
(62,-201,cs),
(55,-201,o),
(51,-196,o),
(51,-188,cs),
(51,-179,o),
(54,-175,o),
(64,-172,cs),
(95,-161,o),
(116,-131,o),
(135,-71,cs),
(159,0,l)
);
},
{
closed = 1;
nodes = (
(247,539,o),
(244,533,o),
(238,527,cs),
(183,463,ls),
(179,459,o),
(176,457,o),
(173,457,cs),
(166,457,o),
(161,462,o),
(161,468,cs),
(161,470,o),
(162,473,o),
(164,476,cs),
(207,550,ls),
(212,560,o),
(218,564,o),
(226,564,cs),
(237,564,o),
(247,555,o),
(247,544,cs)
);
}
);
width = 346;
}
);
note = yacute;
unicode = 253;
},
{
glyphname = thorn;
kernRight = b;
layers = (
{
layerId = m01;
shapes = (
{
closed = 1;
nodes = (
(134,364,o),
(175,384,o),
(233,384,cs),
(326,384,o),
(370,330,o),
(370,214,cs),
(370,170,ls),
(370,48,o),
(323,-10,o),
(222,-10,cs),
(166,-10,o),
(124,11,o),
(109,47,c),
(109,-188,ls),
(109,-198,o),
(105,-208,o),
(93,-208,cs),
(82,-208,o),
(78,-198,o),
(77,-188,c),
(77,611,ls),
(77,622,o),
(83,629,o),
(92,629,cs),
(102,629,o),
(107,622,o),
(107,611,cs),
(108,324,l)
);
},
{
closed = 1;
nodes = (
(113,54,o),
(141,18,o),
(221,18,cs),
(301,18,o),
(338,64,o),
(338,163,cs),
(338,209,ls),
(338,311,o),
(306,356,o),
(233,356,cs),
(150,356,o),
(109,308,o),
(109,209,cs),
(109,165,ls)
);
}
);
width = 421;
}
);
note = thorn;
unicode = 254;
},
{
glyphname = ydieresis;
kernLeft = v;
kernRight = v;
layers = (
{
layerId = m01;
shapes = (
{
closed = 1;
nodes = (
(23,357,ls),
(22,360,o),
(21,364,o),
(21,367,cs),
(21,374,o),
(28,381,o),
(37,381,cs),
(44,381,o),
(49,377,o),
(53,368,cs),
(177,39,l),
(291,367,ls),
(294,378,o),
(299,382,o),
(307,382,cs),
(316,382,o),
(323,375,o),
(323,367,cs),
(323,364,o),
(322,360,o),
(321,357,cs),
(157,-98,ls),
(141,-142,o),
(125,-168,o),
(106,-183,cs),
(94,-191,o),
(72,-201,o),
(62,-201,cs),
(55,-201,o),
(51,-196,o),
(51,-188,cs),
(51,-179,o),
(54,-175,o),
(64,-172,cs),
(95,-161,o),
(116,-131,o),
(135,-71,cs),
(159,0,l)
);
},
{
closed = 1;
nodes = (
(125,541,o),
(133,529,o),
(133,507,cs),
(133,484,o),
(125,472,o),
(110,472,cs),
(95,472,o),
(87,484,o),
(87,507,cs),
(87,529,o),
(95,541,o),
(110,541,cs)
);
},
{
closed = 1;
nodes = (
(251,541,o),
(259,529,o),
(259,507,cs),
(259,484,o),
(251,472,o),
(236,472,cs),
(221,472,o),
(213,484,o),
(213,507,cs),
(213,529,o),
(221,541,o),
(236,541,cs)
);
}
);
width = 346;
}
);
note = ydieresis;
unicode = 255;
},
{
glyphname = Amacron;
kernLeft = A;
kernRight = A;
layers = (
{
layerId = m01;
shapes = (
{
closed = 1;
nodes = (
(104,156,l),
(49,7,ls),
(45,-3,o),
(40,-8,o),
(32,-8,cs),
(24,-8,o),
(16,-1,o),
(16,8,cs),
(16,11,o),
(17,14,o),
(18,18,cs),
(228,589,ls),
(232,599,o),
(237,604,o),
(245,604,cs),
(253,604,o),
(259,600,o),
(262,589,c),
(473,18,ls),
(474,14,o),
(475,10,o),
(475,7,cs),
(475,-1,o),
(467,-8,o),
(459,-8,cs),
(451,-8,o),
(446,-3,o),
(442,7,cs),
(387,156,l)
);
},
{
closed = 1;
nodes = (
(245,541,l),
(113,184,l),
(377,184,l)
);
},
{
closed = 1;
nodes = (
(333,722,ls),
(344,722,o),
(350,717,o),
(350,708,cs),
(350,699,o),
(344,694,o),
(333,694,cs),
(157,694,ls),
(147,694,o),
(140,699,o),
(140,708,cs),
(140,717,o),
(147,722,o),
(157,722,cs)
);
}
);
width = 490;
}
);
note = Amacron;
unicode = 256;
},
{
glyphname = amacron;
kernLeft = a;
kernRight = a;
layers = (
{
layerId = m01;
shapes = (
{
closed = 1;
nodes = (
(295,247,ls),
(295,329,o),
(273,356,o),
(205,356,cs),
(162,356,o),
(125,343,o),
(100,318,cs),
(95,314,o),
(92,312,o),
(87,312,cs),
(79,312,o),
(72,319,o),
(72,327,cs),
(72,332,o),
(74,336,o),
(78,340,cs),
(112,370,o),
(152,384,o),
(201,384,cs),
(256,384,o),
(294,368,o),
(312,338,cs),
(324,318,o),
(328,292,o),
(328,226,cs),
(328,10,ls),
(328,-1,o),
(323,-8,o),
(313,-8,cs),
(304,-8,o),
(299,-2,o),
(297,42,c),
(268,7,o),
(225,-10,o),
(165,-10,cs),
(86,-10,o),
(46,27,o),
(46,98,cs),
(46,145,o),
(63,180,o),
(98,202,cs),
(126,220,o),
(174,229,o),
(249,229,cs),
(262,229,o),
(273,229,o),
(295,228,c)
);
},
{
closed = 1;
nodes = (
(277,199,o),
(275,201,o),
(239,200,cs),
(119,199,o),
(79,173,o),
(79,95,cs),
(79,42,o),
(107,18,o),
(167,18,cs),
(218,18,o),
(296,38,o),
(296,101,cs),
(296,199,l)
);
},
{
closed = 1;
nodes = (
(292,522,ls),
(303,522,o),
(309,517,o),
(309,508,cs),
(309,499,o),
(303,494,o),
(292,494,cs),
(116,494,ls),
(105,494,o),
(99,499,o),
(99,508,cs),
(99,517,o),
(105,522,o),
(116,522,cs)
);
}
);
width = 402;
}
);
note = amacron;
unicode = 257;
},
{
glyphname = Abreve;
kernLeft = A;
kernRight = A;
layers = (
{
layerId = m01;
shapes = (
{
closed = 1;
nodes = (
(104,156,l),
(49,7,ls),
(45,-3,o),
(40,-8,o),
(32,-8,cs),
(24,-8,o),
(16,-1,o),
(16,8,cs),
(16,11,o),
(17,14,o),
(18,18,cs),
(228,589,ls),
(232,599,o),
(237,604,o),
(245,604,cs),
(253,604,o),
(259,600,o),
(262,589,c),
(473,18,ls),
(474,14,o),
(475,10,o),
(475,7,cs),
(475,-1,o),
(467,-8,o),
(459,-8,cs),
(451,-8,o),
(446,-3,o),
(442,7,cs),
(387,156,l)
);
},
{
closed = 1;
nodes = (
(245,541,l),
(113,184,l),
(377,184,l)
);
},
{
closed = 1;
nodes = (
(311,755,o),
(314,760,o),
(325,760,cs),
(332,760,o),
(338,754,o),
(338,746,cs),
(338,686,o),
(310,660,o),
(245,660,cs),
(180,660,o),
(152,686,o),
(152,746,cs),
(152,754,o),
(157,760,o),
(165,760,cs),
(175,760,o),
(179,754,o),
(180,739,cs),
(183,702,o),
(201,688,o),
(245,688,cs),
(289,688,o),
(305,701,o),
(309,739,cs)
);
}
);
width = 490;
}
);
note = Abreve;
unicode = 258;
},
{
glyphname = abreve;
kernLeft = a;
kernRight = a;
layers = (
{
layerId = m01;
shapes = (
{
closed = 1;
nodes = (
(295,247,ls),
(295,329,o),
(273,356,o),
(205,356,cs),
(162,356,o),
(125,343,o),
(100,318,cs),
(95,314,o),
(92,312,o),
(87,312,cs),
(79,312,o),
(72,319,o),
(72,327,cs),
(72,332,o),
(74,336,o),
(78,340,cs),
(112,370,o),
(152,384,o),
(201,384,cs),
(256,384,o),
(294,368,o),
(312,338,cs),
(324,318,o),
(328,292,o),
(328,226,cs),
(328,10,ls),
(328,-1,o),
(323,-8,o),
(313,-8,cs),
(304,-8,o),
(299,-2,o),
(297,42,c),
(268,7,o),
(225,-10,o),
(165,-10,cs),
(86,-10,o),
(46,27,o),
(46,98,cs),
(46,145,o),
(63,180,o),
(98,202,cs),
(126,220,o),
(174,229,o),
(249,229,cs),
(262,229,o),
(273,229,o),
(295,228,c)
);
},
{
closed = 1;
nodes = (
(277,199,o),
(275,201,o),
(239,200,cs),
(119,199,o),
(79,173,o),
(79,95,cs),
(79,42,o),
(107,18,o),
(167,18,cs),
(218,18,o),
(296,38,o),
(296,101,cs),
(296,199,l)
);
},
{
closed = 1;
nodes = (
(270,555,o),
(273,560,o),
(283,560,cs),
(291,560,o),
(296,554,o),
(296,546,cs),
(296,486,o),
(268,460,o),
(203,460,cs),
(138,460,o),
(110,486,o),
(110,546,cs),
(110,554,o),
(116,560,o),
(124,560,cs),
(133,560,o),
(137,554,o),
(139,539,cs),
(142,502,o),
(159,488,o),
(203,488,cs),
(248,488,o),
(264,501,o),
(268,539,cs)
);
}
);
width = 402;
}
);
note = abreve;
unicode = 259;
},
{
glyphname = Aogonek;
kernLeft = A;
kernRight = A;
layers = (
{
layerId = m01;
shapes = (
{
closed = 1;
nodes = (
(104,156,l),
(49,7,ls),
(45,-3,o),
(40,-8,o),
(32,-8,cs),
(24,-8,o),
(16,-1,o),
(16,8,cs),
(16,11,o),
(17,14,o),
(18,18,cs),
(228,589,ls),
(232,599,o),
(237,604,o),
(245,604,cs),
(253,604,o),
(259,600,o),
(262,589,c),
(473,18,ls),
(474,14,o),
(475,10,o),
(475,7,cs),
(475,-1,o),
(467,-8,o),
(459,-8,cs),
(451,-8,o),
(446,-3,o),
(442,7,cs),
(387,156,l)
);
},
{
closed = 1;
nodes = (
(245,541,l),
(113,184,l),
(377,184,l)
);
},
{
closed = 1;
nodes = (
(467,-6,l),
(419,-29,o),
(370,-44,o),
(370,-107,cs),
(370,-145,o),
(389,-160,o),
(436,-160,cs),
(448,-160,o),
(461,-159,o),
(473,-157,cs),
(476,-156,o),
(477,-156,o),
(478,-156,cs),
(485,-156,o),
(490,-161,o),
(490,-167,cs),
(490,-179,o),
(471,-184,o),
(427,-184,cs),
(367,-184,o),
(340,-160,o),
(340,-108,cs),
(340,-57,o),
(373,-26,o),
(447,3,c)
);
}
);
width = 490;
}
);
note = Aogonek;
unicode = 260;
},
{
glyphname = aogonek;
kernLeft = a;
kernRight = a;
layers = (
{
layerId = m01;
shapes = (
{
closed = 1;
nodes = (
(295,247,ls),
(295,329,o),
(273,356,o),
(205,356,cs),
(162,356,o),
(125,343,o),
(100,318,cs),
(95,314,o),
(92,312,o),
(87,312,cs),
(79,312,o),
(72,319,o),
(72,327,cs),
(72,332,o),
(74,336,o),
(78,340,cs),
(112,370,o),
(152,384,o),
(201,384,cs),
(256,384,o),
(294,368,o),
(312,338,cs),
(324,318,o),
(328,292,o),
(328,226,cs),
(328,10,ls),
(328,-1,o),
(323,-8,o),
(313,-8,cs),
(304,-8,o),
(299,-2,o),
(297,42,c),
(268,7,o),
(225,-10,o),
(165,-10,cs),
(86,-10,o),
(46,27,o),
(46,98,cs),
(46,145,o),
(63,180,o),
(98,202,cs),
(126,220,o),
(174,229,o),
(249,229,cs),
(262,229,o),
(273,229,o),
(295,228,c)
);
},
{
closed = 1;
nodes = (
(277,199,o),
(275,201,o),
(239,200,cs),
(119,199,o),
(79,173,o),
(79,95,cs),
(79,42,o),
(107,18,o),
(167,18,cs),
(218,18,o),
(296,38,o),
(296,101,cs),
(296,199,l)
);
},
{
closed = 1;
nodes = (
(272,-30,o),
(224,-44,o),
(224,-107,cs),
(224,-145,o),
(243,-160,o),
(290,-160,cs),
(302,-160,o),
(315,-159,o),
(327,-157,c),
(329,-156,o),
(330,-156,o),
(332,-156,cs),
(339,-156,o),
(344,-161,o),
(344,-167,cs),
(344,-179,o),
(325,-184,o),
(281,-184,cs),
(221,-184,o),
(194,-160,o),
(194,-108,cs),
(194,-57,o),
(229,-25,o),
(303,4,c),
(319,-7,l)
);
}
);
width = 402;
}
);
note = aogonek;
unicode = 261;
},
{
glyphname = Cacute;
kernLeft = C;
layers = (
{
layerId = m01;
shapes = (
{
closed = 1;
nodes = (
(90,257,ls),
(90,142,o),
(113,18,o),
(254,18,cs),
(301,18,o),
(341,31,o),
(375,59,cs),
(385,67,o),
(388,69,o),
(393,69,cs),
(402,69,o),
(410,61,o),
(410,52,cs),
(410,47,o),
(408,42,o),
(403,38,cs),
(368,7,o),
(314,-10,o),
(254,-10,cs),
(84,-10,o),
(58,120,o),
(58,260,cs),
(58,336,ls),
(58,478,o),
(87,606,o),
(256,606,cs),
(314,606,o),
(366,589,o),
(400,560,cs),
(405,556,o),
(407,551,o),
(407,546,cs),
(407,537,o),
(399,529,o),
(390,529,cs),
(385,529,o),
(382,531,o),
(372,539,cs),
(339,566,o),
(302,578,o),
(255,578,cs),
(112,578,o),
(90,455,o),
(90,339,cs)
);
},
{
closed = 1;
nodes = (
(305,739,o),
(302,733,o),
(297,727,cs),
(241,663,ls),
(238,659,o),
(235,657,o),
(231,657,cs),
(225,657,o),
(219,662,o),
(219,668,cs),
(219,670,o),
(220,673,o),
(222,676,cs),
(265,750,ls),
(271,760,o),
(277,764,o),
(285,764,cs),
(296,764,o),
(305,755,o),
(305,744,cs)
);
}
);
width = 421;
}
);
note = Cacute;
unicode = 262;
},
{
glyphname = cacute;
kernLeft = c;
kernRight = c;
layers = (
{
layerId = m01;
shapes = (
{
closed = 1;
nodes = (
(51,327,o),
(102,384,o),
(202,384,cs),
(245,384,o),
(274,373,o),
(304,346,cs),
(310,341,o),
(313,336,o),
(313,331,cs),
(313,322,o),
(306,315,o),
(297,315,cs),
(292,315,o),
(288,317,o),
(283,322,cs),
(261,345,o),
(236,356,o),
(201,356,cs),
(121,356,o),
(83,309,o),
(83,209,cs),
(83,165,ls),
(83,65,o),
(121,18,o),
(202,18,cs),
(238,18,o),
(271,29,o),
(295,50,cs),
(302,56,o),
(305,58,o),
(310,58,cs),
(318,58,o),
(325,51,o),
(325,43,cs),
(325,37,o),
(322,33,o),
(313,26,cs),
(282,2,o),
(245,-10,o),
(201,-10,cs),
(102,-10,o),
(51,48,o),
(51,160,cs),
(51,214,ls)
);
},
{
closed = 1;
nodes = (
(252,539,o),
(249,533,o),
(244,527,cs),
(188,463,ls),
(184,459,o),
(181,457,o),
(178,457,cs),
(172,457,o),
(166,462,o),
(166,468,cs),
(166,470,o),
(167,473,o),
(169,476,cs),
(212,550,ls),
(218,560,o),
(223,564,o),
(231,564,cs),
(242,564,o),
(252,555,o),
(252,544,cs)
);
}
);
width = 353;
}
);
note = cacute;
unicode = 263;
},
{
glyphname = Ccircumflex;
kernLeft = C;
layers = (
{
layerId = m01;
shapes = (
{
closed = 1;
nodes = (
(90,257,ls),
(90,142,o),
(113,18,o),
(254,18,cs),
(301,18,o),
(341,31,o),
(375,59,cs),
(385,67,o),
(388,69,o),
(393,69,cs),
(402,69,o),
(410,61,o),
(410,52,cs),
(410,47,o),
(408,42,o),
(403,38,cs),
(368,7,o),
(314,-10,o),
(254,-10,cs),
(84,-10,o),
(58,120,o),
(58,260,cs),
(58,336,ls),
(58,478,o),
(87,606,o),
(256,606,cs),
(314,606,o),
(366,589,o),
(400,560,cs),
(405,556,o),
(407,551,o),
(407,546,cs),
(407,537,o),
(399,529,o),
(390,529,cs),
(385,529,o),
(382,531,o),
(372,539,cs),
(339,566,o),
(302,578,o),
(255,578,cs),
(112,578,o),
(90,455,o),
(90,339,cs)
);
},
{
closed = 1;
nodes = (
(181,662,ls),
(177,659,o),
(174,658,o),
(172,658,cs),
(165,658,o),
(160,663,o),
(160,669,cs),
(160,672,o),
(161,675,o),
(164,679,cs),
(218,742,ls),
(232,758,o),
(240,763,o),
(254,763,cs),
(269,763,o),
(277,758,o),
(291,742,cs),
(345,678,ls),
(348,675,o),
(349,672,o),
(349,669,cs),
(349,663,o),
(344,658,o),
(338,658,cs),
(335,658,o),
(332,659,o),
(328,662,cs),
(254,726,l)
);
}
);
width = 421;
}
);
note = Ccircumflex;
unicode = 264;
},
{
glyphname = ccircumflex;
kernLeft = c;
kernRight = c;
layers = (
{
layerId = m01;
shapes = (
{
closed = 1;
nodes = (
(51,327,o),
(102,384,o),
(202,384,cs),
(245,384,o),
(274,373,o),
(304,346,cs),
(310,341,o),
(313,336,o),
(313,331,cs),
(313,322,o),
(306,315,o),
(297,315,cs),
(292,315,o),
(288,317,o),
(283,322,cs),
(261,345,o),
(236,356,o),
(201,356,cs),
(121,356,o),
(83,309,o),
(83,209,cs),
(83,165,ls),
(83,65,o),
(121,18,o),
(202,18,cs),
(238,18,o),
(271,29,o),
(295,50,cs),
(302,56,o),
(305,58,o),
(310,58,cs),
(318,58,o),
(325,51,o),
(325,43,cs),
(325,37,o),
(322,33,o),
(313,26,cs),
(282,2,o),
(245,-10,o),
(201,-10,cs),
(102,-10,o),
(51,48,o),
(51,160,cs),
(51,214,ls)
);
},
{
closed = 1;
nodes = (
(122,462,ls),
(118,459,o),
(115,458,o),
(113,458,cs),
(106,458,o),
(101,463,o),
(101,469,cs),
(101,472,o),
(102,475,o),
(105,479,cs),
(159,542,ls),
(173,558,o),
(181,563,o),
(195,563,cs),
(210,563,o),
(218,558,o),
(232,542,cs),
(286,478,ls),
(289,475,o),
(290,472,o),
(290,469,cs),
(290,463,o),
(285,458,o),
(279,458,cs),
(276,458,o),
(273,459,o),
(269,462,cs),
(195,526,l)
);
}
);
width = 353;
}
);
note = ccircumflex;
unicode = 265;
},
{
glyphname = Cdotaccent;
kernLeft = C;
layers = (
{
layerId = m01;
shapes = (
{
closed = 1;
nodes = (
(90,257,ls),
(90,142,o),
(113,18,o),
(254,18,cs),
(301,18,o),
(341,31,o),
(375,59,cs),
(385,67,o),
(388,69,o),
(393,69,cs),
(402,69,o),
(410,61,o),
(410,52,cs),
(410,47,o),
(408,42,o),
(403,38,cs),
(368,7,o),
(314,-10,o),
(254,-10,cs),
(84,-10,o),
(58,120,o),
(58,260,cs),
(58,336,ls),
(58,478,o),
(87,606,o),
(256,606,cs),
(314,606,o),
(366,589,o),
(400,560,cs),
(405,556,o),
(407,551,o),
(407,546,cs),
(407,537,o),
(399,529,o),
(390,529,cs),
(385,529,o),
(382,531,o),
(372,539,cs),
(339,566,o),
(302,578,o),
(255,578,cs),
(112,578,o),
(90,455,o),
(90,339,cs)
);
},
{
closed = 1;
nodes = (
(276,741,o),
(284,729,o),
(284,707,cs),
(284,684,o),
(276,672,o),
(261,672,cs),
(246,672,o),
(238,684,o),
(238,707,cs),
(238,729,o),
(246,741,o),
(261,741,cs)
);
}
);
width = 421;
}
);
note = Cdotaccent;
unicode = 266;
},
{
glyphname = cdotaccent;
kernLeft = c;
kernRight = c;
layers = (
{
layerId = m01;
shapes = (
{
closed = 1;
nodes = (
(51,327,o),
(102,384,o),
(202,384,cs),
(245,384,o),
(274,373,o),
(304,346,cs),
(310,341,o),
(313,336,o),
(313,331,cs),
(313,322,o),
(306,315,o),
(297,315,cs),
(292,315,o),
(288,317,o),
(283,322,cs),
(261,345,o),
(236,356,o),
(201,356,cs),
(121,356,o),
(83,309,o),
(83,209,cs),
(83,165,ls),
(83,65,o),
(121,18,o),
(202,18,cs),
(238,18,o),
(271,29,o),
(295,50,cs),
(302,56,o),
(305,58,o),
(310,58,cs),
(318,58,o),
(325,51,o),
(325,43,cs),
(325,37,o),
(322,33,o),
(313,26,cs),
(282,2,o),
(245,-10,o),
(201,-10,cs),
(102,-10,o),
(51,48,o),
(51,160,cs),
(51,214,ls)
);
},
{
closed = 1;
nodes = (
(214,541,o),
(222,529,o),
(222,507,cs),
(222,484,o),
(214,472,o),
(199,472,cs),
(184,472,o),
(176,484,o),
(176,507,cs),
(176,529,o),
(184,541,o),
(199,541,cs)
);
}
);
width = 353;
}
);
note = cdotaccent;
unicode = 267;
},
{
glyphname = Ccaron;
kernLeft = C;
layers = (
{
layerId = m01;
shapes = (
{
closed = 1;
nodes = (
(90,257,ls),
(90,142,o),
(113,18,o),
(254,18,cs),
(301,18,o),
(341,31,o),
(375,59,cs),
(385,67,o),
(388,69,o),
(393,69,cs),
(402,69,o),
(410,61,o),
(410,52,cs),
(410,47,o),
(408,42,o),
(403,38,cs),
(368,7,o),
(314,-10,o),
(254,-10,cs),
(84,-10,o),
(58,120,o),
(58,260,cs),
(58,336,ls),
(58,478,o),
(87,606,o),
(256,606,cs),
(314,606,o),
(366,589,o),
(400,560,cs),
(405,556,o),
(407,551,o),
(407,546,cs),
(407,537,o),
(399,529,o),
(390,529,cs),
(385,529,o),
(382,531,o),
(372,539,cs),
(339,566,o),
(302,578,o),
(255,578,cs),
(112,578,o),
(90,455,o),
(90,339,cs)
);
},
{
closed = 1;
nodes = (
(327,758,ls),
(330,761,o),
(333,762,o),
(336,762,cs),
(342,762,o),
(348,757,o),
(348,751,cs),
(348,748,o),
(346,745,o),
(343,741,cs),
(290,678,ls),
(276,662,o),
(267,657,o),
(253,657,cs),
(239,657,o),
(231,662,o),
(217,678,cs),
(163,742,ls),
(160,745,o),
(159,748,o),
(159,751,cs),
(159,757,o),
(164,762,o),
(170,762,cs),
(173,762,o),
(176,761,o),
(180,758,cs),
(253,694,l)
);
}
);
width = 421;
}
);
note = Ccaron;
unicode = 268;
},
{
glyphname = ccaron;
kernLeft = c;
kernRight = c;
layers = (
{
layerId = m01;
shapes = (
{
closed = 1;
nodes = (
(51,327,o),
(102,384,o),
(202,384,cs),
(245,384,o),
(274,373,o),
(304,346,cs),
(310,341,o),
(313,336,o),
(313,331,cs),
(313,322,o),
(306,315,o),
(297,315,cs),
(292,315,o),
(288,317,o),
(283,322,cs),
(261,345,o),
(236,356,o),
(201,356,cs),
(121,356,o),
(83,309,o),
(83,209,cs),
(83,165,ls),
(83,65,o),
(121,18,o),
(202,18,cs),
(238,18,o),
(271,29,o),
(295,50,cs),
(302,56,o),
(305,58,o),
(310,58,cs),
(318,58,o),
(325,51,o),
(325,43,cs),
(325,37,o),
(322,33,o),
(313,26,cs),
(282,2,o),
(245,-10,o),
(201,-10,cs),
(102,-10,o),
(51,48,o),
(51,160,cs),
(51,214,ls)
);
},
{
closed = 1;
nodes = (
(273,558,ls),
(277,561,o),
(280,562,o),
(283,562,cs),
(289,562,o),
(294,557,o),
(294,551,cs),
(294,548,o),
(293,545,o),
(290,541,cs),
(236,478,ls),
(223,462,o),
(214,457,o),
(200,457,cs),
(186,457,o),
(177,462,o),
(164,478,cs),
(110,542,ls),
(107,545,o),
(105,548,o),
(105,551,cs),
(105,557,o),
(110,562,o),
(117,562,cs),
(120,562,o),
(123,561,o),
(126,558,cs),
(200,494,l)
);
}
);
width = 353;
}
);
note = ccaron;
unicode = 269;
},
{
glyphname = Dcaron;
layers = (
{
layerId = m01;
shapes = (
{
closed = 1;
nodes = (
(91,572,ls),
(91,589,o),
(98,596,o),
(115,596,cs),
(249,596,ls),
(409,596,o),
(466,524,o),
(466,326,cs),
(466,270,ls),
(466,71,o),
(409,0,o),
(249,0,cs),
(115,0,ls),
(98,0,o),
(91,7,o),
(91,24,cs)
);
},
{
closed = 1;
nodes = (
(249,28,ls),
(407,28,o),
(434,127,o),
(434,267,cs),
(434,329,ls),
(434,468,o),
(407,568,o),
(249,568,cs),
(123,568,l),
(123,28,l)
);
},
{
closed = 1;
nodes = (
(320,758,ls),
(323,761,o),
(326,762,o),
(329,762,cs),
(335,762,o),
(341,757,o),
(341,751,cs),
(341,748,o),
(339,745,o),
(336,741,cs),
(283,678,ls),
(269,662,o),
(260,657,o),
(246,657,cs),
(232,657,o),
(224,662,o),
(210,678,cs),
(156,742,ls),
(153,745,o),
(152,748,o),
(152,751,cs),
(152,757,o),
(157,762,o),
(163,762,cs),
(166,762,o),
(169,761,o),
(173,758,cs),
(246,694,l)
);
}
);
width = 524;
}
);
note = Dcaron;
unicode = 270;
},
{
glyphname = dcaron;
kernLeft = c;
layers = (
{
layerId = m01;
shapes = (
{
closed = 1;
nodes = (
(312,609,ls),
(312,622,o),
(318,629,o),
(328,629,cs),
(338,629,o),
(344,622,o),
(344,609,cs),
(344,10,ls),
(344,-2,o),
(339,-8,o),
(330,-8,cs),
(321,-8,o),
(316,-2,o),
(313,49,c),
(289,8,o),
(253,-10,o),
(193,-10,cs),
(94,-10,o),
(51,44,o),
(51,170,cs),
(51,206,ls),
(51,326,o),
(98,384,o),
(195,384,cs),
(251,384,o),
(292,364,o),
(312,326,c)
);
},
{
closed = 1;
nodes = (
(309,264,o),
(304,288,o),
(291,310,cs),
(273,340,o),
(240,356,o),
(197,356,cs),
(119,356,o),
(83,307,o),
(83,201,cs),
(83,163,ls),
(83,62,o),
(117,18,o),
(195,18,cs),
(275,18,o),
(312,65,o),
(312,165,cs),
(312,209,ls)
);
},
{
closed = 1;
nodes = (
(421,564,o),
(414,575,o),
(414,593,cs),
(414,616,o),
(424,629,o),
(441,629,cs),
(459,629,o),
(466,617,o),
(466,590,cs),
(466,556,o),
(460,530,o),
(436,465,cs),
(433,456,o),
(428,453,o),
(422,453,cs),
(415,453,o),
(408,459,o),
(408,466,cs),
(408,469,o),
(409,470,o),
(412,478,cs),
(420,498,o),
(429,530,o),
(435,561,c)
);
}
);
width = 451;
}
);
note = dcaron;
unicode = 271;
},
{
glyphname = Dcroat;
layers = (
{
layerId = m01;
shapes = (
{
closed = 1;
nodes = (
(284,319,ls),
(295,319,o),
(301,314,o),
(301,305,cs),
(301,296,o),
(295,291,o),
(284,291,cs),
(26,291,ls),
(15,291,o),
(9,296,o),
(9,305,cs),
(9,314,o),
(15,319,o),
(26,319,cs)
);
},
{
closed = 1;
nodes = (
(91,572,ls),
(91,589,o),
(98,596,o),
(115,596,cs),
(249,596,ls),
(409,596,o),
(466,524,o),
(466,326,cs),
(466,270,ls),
(466,71,o),
(409,0,o),
(249,0,cs),
(115,0,ls),
(98,0,o),
(91,7,o),
(91,24,cs)
);
},
{
closed = 1;
nodes = (
(249,28,ls),
(407,28,o),
(434,128,o),
(434,267,cs),
(434,329,ls),
(434,468,o),
(407,568,o),
(249,568,cs),
(123,568,l),
(123,28,l)
);
}
);
width = 524;
}
);
note = Dcroat;
unicode = 272;
},
{
glyphname = dcroat;
kernLeft = c;
layers = (
{
layerId = m01;
shapes = (
{
closed = 1;
nodes = (
(207,487,ls),
(196,487,o),
(190,492,o),
(190,501,cs),
(190,510,o),
(196,515,o),
(207,515,cs),
(383,515,ls),
(394,515,o),
(400,510,o),
(400,501,cs),
(400,492,o),
(394,487,o),
(383,487,cs)
);
},
{
closed = 1;
nodes = (
(312,609,ls),
(312,622,o),
(318,629,o),
(328,629,cs),
(338,629,o),
(344,622,o),
(344,609,cs),
(344,10,ls),
(344,-2,o),
(339,-8,o),
(330,-8,cs),
(321,-8,o),
(316,-2,o),
(313,49,c),
(289,8,o),
(253,-10,o),
(193,-10,cs),
(94,-10,o),
(51,44,o),
(51,170,cs),
(51,206,ls),
(51,326,o),
(98,384,o),
(195,384,cs),
(251,384,o),
(292,364,o),
(312,326,c)
);
},
{
closed = 1;
nodes = (
(309,264,o),
(304,288,o),
(291,310,cs),
(273,340,o),
(240,356,o),
(197,356,cs),
(119,356,o),
(83,307,o),
(83,201,cs),
(83,163,ls),
(83,62,o),
(117,18,o),
(195,18,cs),
(275,18,o),
(312,65,o),
(312,165,cs),
(312,209,ls)
);
}
);
width = 419;
}
);
note = dcroat;
unicode = 273;
},
{
glyphname = Emacron;
layers = (
{
layerId = m01;
shapes = (
{
closed = 1;
nodes = (
(123,327,l),
(348,327,ls),
(359,327,o),
(365,322,o),
(365,313,cs),
(365,304,o),
(359,299,o),
(348,299,cs),
(123,299,l),
(123,28,l),
(396,28,ls),
(407,28,o),
(413,23,o),
(413,14,cs),
(413,5,o),
(407,0,o),
(396,0,cs),
(115,0,ls),
(98,0,o),
(91,7,o),
(91,24,cs),
(91,572,ls),
(91,589,o),
(98,596,o),
(115,596,cs),
(384,596,ls),
(395,596,o),
(401,591,o),
(401,582,cs),
(401,573,o),
(395,568,o),
(384,568,cs),
(123,568,l)
);
},
{
closed = 1;
nodes = (
(336,722,ls),
(346,722,o),
(353,717,o),
(353,708,cs),
(353,699,o),
(346,694,o),
(336,694,cs),
(160,694,ls),
(149,694,o),
(143,699,o),
(143,708,cs),
(143,717,o),
(149,722,o),
(160,722,cs)
);
}
);
width = 445;
}
);
note = Emacron;
unicode = 274;
},
{
glyphname = emacron;
kernLeft = c;
kernRight = e;
layers = (
{
layerId = m01;
shapes = (
{
closed = 1;
nodes = (
(83,165,ls),
(83,63,o),
(120,18,o),
(205,18,cs),
(248,18,o),
(283,29,o),
(315,53,cs),
(319,56,o),
(323,58,o),
(327,58,cs),
(335,58,o),
(342,51,o),
(342,42,cs),
(342,36,o),
(339,32,o),
(329,25,cs),
(295,2,o),
(253,-10,o),
(203,-10,cs),
(100,-10,o),
(51,45,o),
(51,160,cs),
(51,214,ls),
(51,328,o),
(102,384,o),
(204,384,cs),
(254,384,o),
(290,371,o),
(314,344,cs),
(338,316,o),
(349,273,o),
(349,213,cs),
(349,199,o),
(340,192,o),
(325,192,cs),
(83,192,l)
);
},
{
closed = 1;
nodes = (
(313,317,o),
(281,356,o),
(203,356,cs),
(123,356,o),
(87,315,o),
(83,220,c),
(316,220,l)
);
},
{
closed = 1;
nodes = (
(289,522,ls),
(300,522,o),
(306,517,o),
(306,508,cs),
(306,499,o),
(300,494,o),
(289,494,cs),
(113,494,ls),
(103,494,o),
(96,499,o),
(96,508,cs),
(96,517,o),
(103,522,o),
(113,522,cs)
);
}
);
width = 397;
}
);
note = emacron;
unicode = 275;
},
{
glyphname = Ebreve;
layers = (
{
layerId = m01;
shapes = (
{
closed = 1;
nodes = (
(123,327,l),
(348,327,ls),
(359,327,o),
(365,322,o),
(365,313,cs),
(365,304,o),
(359,299,o),
(348,299,cs),
(123,299,l),
(123,28,l),
(396,28,ls),
(407,28,o),
(413,23,o),
(413,14,cs),
(413,5,o),
(407,0,o),
(396,0,cs),
(115,0,ls),
(98,0,o),
(91,7,o),
(91,24,cs),
(91,572,ls),
(91,589,o),
(98,596,o),
(115,596,cs),
(384,596,ls),
(395,596,o),
(401,591,o),
(401,582,cs),
(401,573,o),
(395,568,o),
(384,568,cs),
(123,568,l)
);
},
{
closed = 1;
nodes = (
(312,755,o),
(315,760,o),
(326,760,cs),
(333,760,o),
(339,754,o),
(339,746,cs),
(339,686,o),
(311,660,o),
(246,660,cs),
(181,660,o),
(153,686,o),
(153,746,cs),
(153,754,o),
(158,760,o),
(166,760,cs),
(176,760,o),
(180,754,o),
(181,739,cs),
(184,702,o),
(202,688,o),
(246,688,cs),
(290,688,o),
(306,701,o),
(310,739,cs)
);
}
);
width = 445;
}
);
note = Ebreve;
unicode = 276;
},
{
glyphname = ebreve;
kernLeft = c;
kernRight = e;
layers = (
{
layerId = m01;
shapes = (
{
closed = 1;
nodes = (
(83,165,ls),
(83,63,o),
(120,18,o),
(205,18,cs),
(248,18,o),
(283,29,o),
(315,53,cs),
(319,56,o),
(323,58,o),
(327,58,cs),
(335,58,o),
(342,51,o),
(342,42,cs),
(342,36,o),
(339,32,o),
(329,25,cs),
(295,2,o),
(253,-10,o),
(203,-10,cs),
(100,-10,o),
(51,45,o),
(51,160,cs),
(51,214,ls),
(51,328,o),
(102,384,o),
(204,384,cs),
(254,384,o),
(290,371,o),
(314,344,cs),
(338,316,o),
(349,273,o),
(349,213,cs),
(349,199,o),
(340,192,o),
(325,192,cs),
(83,192,l)
);
},
{
closed = 1;
nodes = (
(313,317,o),
(281,356,o),
(203,356,cs),
(123,356,o),
(87,315,o),
(83,220,c),
(316,220,l)
);
},
{
closed = 1;
nodes = (
(270,555,o),
(273,560,o),
(283,560,cs),
(291,560,o),
(297,554,o),
(297,546,cs),
(297,486,o),
(269,460,o),
(204,460,cs),
(138,460,o),
(111,486,o),
(111,546,cs),
(111,554,o),
(116,560,o),
(124,560,cs),
(134,560,o),
(138,554,o),
(139,539,cs),
(142,502,o),
(160,488,o),
(204,488,cs),
(248,488,o),
(264,501,o),
(268,539,cs)
);
}
);
width = 397;
}
);
note = ebreve;
unicode = 277;
},
{
glyphname = Edotaccent;
layers = (
{
layerId = m01;
shapes = (
{
closed = 1;
nodes = (
(123,327,l),
(348,327,ls),
(359,327,o),
(365,322,o),
(365,313,cs),
(365,304,o),
(359,299,o),
(348,299,cs),
(123,299,l),
(123,28,l),
(396,28,ls),
(407,28,o),
(413,23,o),
(413,14,cs),
(413,5,o),
(407,0,o),
(396,0,cs),
(115,0,ls),
(98,0,o),
(91,7,o),
(91,24,cs),
(91,572,ls),
(91,589,o),
(98,596,o),
(115,596,cs),
(384,596,ls),
(395,596,o),
(401,591,o),
(401,582,cs),
(401,573,o),
(395,568,o),
(384,568,cs),
(123,568,l)
);
},
{
closed = 1;
nodes = (
(270,741,o),
(278,729,o),
(278,707,cs),
(278,684,o),
(270,672,o),
(255,672,cs),
(240,672,o),
(232,684,o),
(232,707,cs),
(232,729,o),
(240,741,o),
(255,741,cs)
);
}
);
width = 445;
}
);
note = Edotaccent;
unicode = 278;
},
{
glyphname = edotaccent;
kernLeft = c;
kernRight = e;
layers = (
{
layerId = m01;
shapes = (
{
closed = 1;
nodes = (
(83,165,ls),
(83,63,o),
(120,18,o),
(205,18,cs),
(248,18,o),
(283,29,o),
(315,53,cs),
(319,56,o),
(323,58,o),
(327,58,cs),
(335,58,o),
(342,51,o),
(342,42,cs),
(342,36,o),
(339,32,o),
(329,25,cs),
(295,2,o),
(253,-10,o),
(203,-10,cs),
(100,-10,o),
(51,45,o),
(51,160,cs),
(51,214,ls),
(51,328,o),
(102,384,o),
(204,384,cs),
(254,384,o),
(290,371,o),
(314,344,cs),
(338,316,o),
(349,273,o),
(349,213,cs),
(349,199,o),
(340,192,o),
(325,192,cs),
(83,192,l)
);
},
{
closed = 1;
nodes = (
(313,317,o),
(281,356,o),
(203,356,cs),
(123,356,o),
(87,315,o),
(83,220,c),
(316,220,l)
);
},
{
closed = 1;
nodes = (
(221,541,o),
(229,529,o),
(229,507,cs),
(229,484,o),
(221,472,o),
(206,472,cs),
(190,472,o),
(183,484,o),
(183,507,cs),
(183,529,o),
(190,541,o),
(206,541,cs)
);
}
);
width = 397;
}
);
note = edotaccent;
unicode = 279;
},
{
glyphname = Eogonek;
layers = (
{
layerId = m01;
shapes = (
{
closed = 1;
nodes = (
(123,327,l),
(348,327,ls),
(359,327,o),
(365,322,o),
(365,313,cs),
(365,304,o),
(359,299,o),
(348,299,cs),
(123,299,l),
(123,28,l),
(396,28,ls),
(407,28,o),
(413,23,o),
(413,14,cs),
(413,5,o),
(407,0,o),
(396,0,cs),
(115,0,ls),
(98,0,o),
(91,7,o),
(91,24,cs),
(91,572,ls),
(91,589,o),
(98,596,o),
(115,596,cs),
(384,596,ls),
(395,596,o),
(401,591,o),
(401,582,cs),
(401,573,o),
(395,568,o),
(384,568,cs),
(123,568,l)
);
},
{
closed = 1;
nodes = (
(350,-23,o),
(289,-44,o),
(289,-107,cs),
(289,-145,o),
(308,-160,o),
(355,-160,cs),
(367,-160,o),
(379,-159,o),
(392,-157,c),
(394,-156,o),
(395,-156,o),
(397,-156,cs),
(404,-156,o),
(409,-161,o),
(409,-167,cs),
(409,-179,o),
(390,-184,o),
(346,-184,cs),
(286,-184,o),
(259,-160,o),
(259,-108,cs),
(259,-57,o),
(284,-29,o),
(358,0,c),
(397,0,l)
);
}
);
width = 445;
}
);
note = Eogonek;
unicode = 280;
},
{
glyphname = eogonek;
kernLeft = c;
kernRight = e;
layers = (
{
layerId = m01;
shapes = (
{
closed = 1;
nodes = (
(83,165,ls),
(83,63,o),
(120,18,o),
(205,18,cs),
(248,18,o),
(283,29,o),
(315,53,cs),
(319,56,o),
(323,58,o),
(327,58,cs),
(335,58,o),
(342,51,o),
(342,42,cs),
(342,36,o),
(339,32,o),
(329,25,cs),
(295,2,o),
(253,-10,o),
(203,-10,cs),
(100,-10,o),
(51,45,o),
(51,160,cs),
(51,214,ls),
(51,328,o),
(102,384,o),
(204,384,cs),
(254,384,o),
(290,371,o),
(314,344,cs),
(338,316,o),
(349,273,o),
(349,213,cs),
(349,199,o),
(340,192,o),
(325,192,cs),
(83,192,l)
);
},
{
closed = 1;
nodes = (
(313,317,o),
(281,356,o),
(203,356,cs),
(123,356,o),
(87,315,o),
(83,220,c),
(316,220,l)
);
},
{
closed = 1;
nodes = (
(243,-18,o),
(181,-40,o),
(181,-107,cs),
(181,-145,o),
(200,-160,o),
(247,-160,cs),
(259,-160,o),
(271,-159,o),
(284,-157,c),
(286,-156,o),
(287,-156,o),
(289,-156,cs),
(296,-156,o),
(301,-161,o),
(301,-167,cs),
(301,-179,o),
(282,-184,o),
(238,-184,cs),
(178,-184,o),
(151,-160,o),
(151,-108,cs),
(151,-54,o),
(177,-24,o),
(253,6,c),
(292,6,l)
);
}
);
width = 397;
}
);
note = eogonek;
unicode = 281;
},
{
glyphname = Ecaron;
layers = (
{
layerId = m01;
shapes = (
{
closed = 1;
nodes = (
(123,327,l),
(348,327,ls),
(359,327,o),
(365,322,o),
(365,313,cs),
(365,304,o),
(359,299,o),
(348,299,cs),
(123,299,l),
(123,28,l),
(396,28,ls),
(407,28,o),
(413,23,o),
(413,14,cs),
(413,5,o),
(407,0,o),
(396,0,cs),
(115,0,ls),
(98,0,o),
(91,7,o),
(91,24,cs),
(91,572,ls),
(91,589,o),
(98,596,o),
(115,596,cs),
(384,596,ls),
(395,596,o),
(401,591,o),
(401,582,cs),
(401,573,o),
(395,568,o),
(384,568,cs),
(123,568,l)
);
},
{
closed = 1;
nodes = (
(321,758,ls),
(324,761,o),
(327,762,o),
(330,762,cs),
(336,762,o),
(342,757,o),
(342,751,cs),
(342,748,o),
(340,745,o),
(337,741,cs),
(284,678,ls),
(270,662,o),
(261,657,o),
(247,657,cs),
(233,657,o),
(225,662,o),
(211,678,cs),
(157,742,ls),
(154,745,o),
(153,748,o),
(153,751,cs),
(153,757,o),
(158,762,o),
(164,762,cs),
(167,762,o),
(170,761,o),
(174,758,cs),
(247,694,l)
);
}
);
width = 445;
}
);
note = Ecaron;
unicode = 282;
},
{
glyphname = ecaron;
kernLeft = c;
kernRight = e;
layers = (
{
layerId = m01;
shapes = (
{
closed = 1;
nodes = (
(83,165,ls),
(83,63,o),
(120,18,o),
(205,18,cs),
(248,18,o),
(283,29,o),
(315,53,cs),
(319,56,o),
(323,58,o),
(327,58,cs),
(335,58,o),
(342,51,o),
(342,42,cs),
(342,36,o),
(339,32,o),
(329,25,cs),
(295,2,o),
(253,-10,o),
(203,-10,cs),
(100,-10,o),
(51,45,o),
(51,160,cs),
(51,214,ls),
(51,328,o),
(102,384,o),
(204,384,cs),
(254,384,o),
(290,371,o),
(314,344,cs),
(338,316,o),
(349,273,o),
(349,213,cs),
(349,199,o),
(340,192,o),
(325,192,cs),
(83,192,l)
);
},
{
closed = 1;
nodes = (
(313,317,o),
(281,356,o),
(203,356,cs),
(123,356,o),
(87,315,o),
(83,220,c),
(316,220,l)
);
},
{
closed = 1;
nodes = (
(278,558,ls),
(282,561,o),
(285,562,o),
(288,562,cs),
(294,562,o),
(299,557,o),
(299,551,cs),
(299,548,o),
(298,545,o),
(295,541,cs),
(241,478,ls),
(228,462,o),
(219,457,o),
(205,457,cs),
(191,457,o),
(183,462,o),
(169,478,cs),
(115,542,ls),
(112,545,o),
(110,548,o),
(110,551,cs),
(110,557,o),
(116,562,o),
(122,562,cs),
(125,562,o),
(128,561,o),
(131,558,cs),
(205,494,l)
);
}
);
width = 397;
}
);
note = ecaron;
unicode = 283;
},
{
glyphname = Gcircumflex;
kernLeft = C;
layers = (
{
layerId = m01;
shapes = (
{
closed = 1;
nodes = (
(395,251,l),
(283,251,ls),
(272,251,o),
(266,256,o),
(266,265,cs),
(266,274,o),
(272,279,o),
(283,279,cs),
(403,279,ls),
(411,279,o),
(418,277,o),
(422,273,cs),
(425,269,o),
(427,263,o),
(427,255,cs),
(427,35,ls),
(427,21,o),
(423,14,o),
(413,10,cs),
(388,-1,o),
(323,-10,o),
(265,-10,cs),
(177,-10,o),
(120,18,o),
(88,78,cs),
(70,113,o),
(58,184,o),
(58,260,cs),
(58,336,ls),
(58,424,o),
(72,496,o),
(97,532,cs),
(130,580,o),
(185,606,o),
(257,606,cs),
(315,606,o),
(362,591,o),
(401,560,cs),
(406,556,o),
(408,551,o),
(408,546,cs),
(408,537,o),
(400,529,o),
(391,529,cs),
(386,529,o),
(383,531,o),
(373,539,cs),
(339,566,o),
(304,578,o),
(256,578,cs),
(189,578,o),
(141,550,o),
(115,496,cs),
(101,467,o),
(90,397,o),
(90,339,cs),
(90,257,ls),
(90,232,o),
(93,195,o),
(98,163,cs),
(114,60,o),
(164,18,o),
(272,18,cs),
(320,18,o),
(353,23,o),
(395,35,c)
);
},
{
closed = 1;
nodes = (
(185,662,ls),
(182,659,o),
(179,658,o),
(176,658,cs),
(169,658,o),
(164,663,o),
(164,669,cs),
(164,672,o),
(166,675,o),
(169,679,cs),
(222,742,ls),
(236,758,o),
(244,763,o),
(258,763,cs),
(273,763,o),
(281,758,o),
(295,742,cs),
(349,678,ls),
(352,675,o),
(353,672,o),
(353,669,cs),
(353,663,o),
(348,658,o),
(342,658,cs),
(339,658,o),
(336,659,o),
(332,662,cs),
(259,726,l)
);
}
);
width = 496;
}
);
note = Gcircumflex;
unicode = 284;
},
{
glyphname = gcircumflex;
kernLeft = c;
layers = (
{
layerId = m01;
shapes = (
{
closed = 1;
nodes = (
(288,7,o),
(252,-10,o),
(194,-10,cs),
(94,-10,o),
(51,44,o),
(51,170,cs),
(51,206,ls),
(51,326,o),
(98,384,o),
(196,384,cs),
(252,384,o),
(291,365,o),
(312,326,c),
(314,376,o),
(320,382,o),
(329,382,cs),
(338,382,o),
(344,375,o),
(344,364,cs),
(344,11,ls),
(344,-81,o),
(337,-120,o),
(315,-151,cs),
(288,-189,o),
(243,-208,o),
(181,-208,cs),
(130,-208,o),
(91,-195,o),
(59,-167,cs),
(55,-164,o),
(53,-160,o),
(53,-155,cs),
(53,-147,o),
(60,-140,o),
(68,-140,cs),
(72,-140,o),
(76,-142,o),
(80,-145,cs),
(106,-168,o),
(141,-180,o),
(183,-180,cs),
(307,-180,o),
(312,-87,o),
(312,11,cs),
(312,46,l)
);
},
{
closed = 1;
nodes = (
(309,288,o),
(293,356,o),
(197,356,cs),
(119,356,o),
(83,307,o),
(83,201,cs),
(83,163,ls),
(83,62,o),
(117,18,o),
(195,18,cs),
(275,18,o),
(312,64,o),
(312,165,cs),
(312,209,ls)
);
},
{
closed = 1;
nodes = (
(136,462,ls),
(133,459,o),
(130,458,o),
(127,458,cs),
(121,458,o),
(115,463,o),
(115,469,cs),
(115,472,o),
(117,475,o),
(120,479,cs),
(174,542,ls),
(187,558,o),
(196,563,o),
(210,563,cs),
(224,563,o),
(232,558,o),
(246,542,cs),
(300,478,ls),
(303,475,o),
(304,472,o),
(304,469,cs),
(304,463,o),
(299,458,o),
(293,458,cs),
(290,458,o),
(287,459,o),
(284,462,cs),
(210,526,l)
);
}
);
width = 421;
}
);
note = gcircumflex;
unicode = 285;
},
{
glyphname = Gbreve;
kernLeft = C;
layers = (
{
layerId = m01;
shapes = (
{
closed = 1;
nodes = (
(395,251,l),
(283,251,ls),
(272,251,o),
(266,256,o),
(266,265,cs),
(266,274,o),
(272,279,o),
(283,279,cs),
(403,279,ls),
(411,279,o),
(418,277,o),
(422,273,cs),
(425,269,o),
(427,263,o),
(427,255,cs),
(427,35,ls),
(427,21,o),
(423,14,o),
(413,10,cs),
(388,-1,o),
(323,-10,o),
(265,-10,cs),
(177,-10,o),
(120,18,o),
(88,78,cs),
(70,113,o),
(58,184,o),
(58,260,cs),
(58,336,ls),
(58,424,o),
(72,496,o),
(97,532,cs),
(130,580,o),
(185,606,o),
(257,606,cs),
(315,606,o),
(362,591,o),
(401,560,cs),
(406,556,o),
(408,551,o),
(408,546,cs),
(408,537,o),
(400,529,o),
(391,529,cs),
(386,529,o),
(383,531,o),
(373,539,cs),
(339,566,o),
(304,578,o),
(256,578,cs),
(189,578,o),
(141,550,o),
(115,496,cs),
(101,467,o),
(90,397,o),
(90,339,cs),
(90,257,ls),
(90,232,o),
(93,195,o),
(98,163,cs),
(114,60,o),
(164,18,o),
(272,18,cs),
(320,18,o),
(353,23,o),
(395,35,c)
);
},
{
closed = 1;
nodes = (
(325,755,o),
(328,760,o),
(338,760,cs),
(346,760,o),
(352,754,o),
(352,746,cs),
(352,686,o),
(324,660,o),
(259,660,cs),
(194,660,o),
(166,686,o),
(166,746,cs),
(166,754,o),
(171,760,o),
(179,760,cs),
(189,760,o),
(193,754,o),
(194,739,cs),
(197,702,o),
(215,688,o),
(259,688,cs),
(303,688,o),
(319,701,o),
(323,739,cs)
);
}
);
width = 496;
}
);
note = Gbreve;
unicode = 286;
},
{
glyphname = gbreve;
kernLeft = c;
layers = (
{
layerId = m01;
shapes = (
{
closed = 1;
nodes = (
(288,7,o),
(252,-10,o),
(194,-10,cs),
(94,-10,o),
(51,44,o),
(51,170,cs),
(51,206,ls),
(51,326,o),
(98,384,o),
(196,384,cs),
(252,384,o),
(291,365,o),
(312,326,c),
(314,376,o),
(320,382,o),
(329,382,cs),
(338,382,o),
(344,375,o),
(344,364,cs),
(344,11,ls),
(344,-81,o),
(337,-120,o),
(315,-151,cs),
(288,-189,o),
(243,-208,o),
(181,-208,cs),
(130,-208,o),
(91,-195,o),
(59,-167,cs),
(55,-164,o),
(53,-160,o),
(53,-155,cs),
(53,-147,o),
(60,-140,o),
(68,-140,cs),
(72,-140,o),
(76,-142,o),
(80,-145,cs),
(106,-168,o),
(141,-180,o),
(183,-180,cs),
(307,-180,o),
(312,-87,o),
(312,11,cs),
(312,46,l)
);
},
{
closed = 1;
nodes = (
(309,288,o),
(293,356,o),
(197,356,cs),
(119,356,o),
(83,307,o),
(83,201,cs),
(83,163,ls),
(83,62,o),
(117,18,o),
(195,18,cs),
(275,18,o),
(312,64,o),
(312,165,cs),
(312,209,ls)
);
},
{
closed = 1;
nodes = (
(276,555,o),
(280,560,o),
(290,560,cs),
(298,560,o),
(303,554,o),
(303,546,cs),
(303,486,o),
(275,460,o),
(210,460,cs),
(145,460,o),
(117,486,o),
(117,546,cs),
(117,554,o),
(122,560,o),
(130,560,cs),
(140,560,o),
(144,554,o),
(145,539,cs),
(149,502,o),
(166,488,o),
(210,488,cs),
(254,488,o),
(271,501,o),
(275,539,cs)
);
}
);
width = 421;
}
);
note = gbreve;
unicode = 287;
},
{
glyphname = Gdotaccent;
kernLeft = C;
layers = (
{
layerId = m01;
shapes = (
{
closed = 1;
nodes = (
(395,251,l),
(283,251,ls),
(272,251,o),
(266,256,o),
(266,265,cs),
(266,274,o),
(272,279,o),
(283,279,cs),
(403,279,ls),
(411,279,o),
(418,277,o),
(422,273,cs),
(425,269,o),
(427,263,o),
(427,255,cs),
(427,35,ls),
(427,21,o),
(423,14,o),
(413,10,cs),
(388,-1,o),
(323,-10,o),
(265,-10,cs),
(177,-10,o),
(120,18,o),
(88,78,cs),
(70,113,o),
(58,184,o),
(58,260,cs),
(58,336,ls),
(58,424,o),
(72,496,o),
(97,532,cs),
(130,580,o),
(185,606,o),
(257,606,cs),
(315,606,o),
(362,591,o),
(401,560,cs),
(406,556,o),
(408,551,o),
(408,546,cs),
(408,537,o),
(400,529,o),
(391,529,cs),
(386,529,o),
(383,531,o),
(373,539,cs),
(339,566,o),
(304,578,o),
(256,578,cs),
(189,578,o),
(141,550,o),
(115,496,cs),
(101,467,o),
(90,397,o),
(90,339,cs),
(90,257,ls),
(90,232,o),
(93,195,o),
(98,163,cs),
(114,60,o),
(164,18,o),
(272,18,cs),
(320,18,o),
(353,23,o),
(395,35,c)
);
},
{
closed = 1;
nodes = (
(278,741,o),
(286,729,o),
(286,707,cs),
(286,684,o),
(278,672,o),
(263,672,cs),
(248,672,o),
(240,684,o),
(240,707,cs),
(240,729,o),
(248,741,o),
(263,741,cs)
);
}
);
width = 496;
}
);
note = Gdotaccent;
unicode = 288;
},
{
glyphname = gdotaccent;
kernLeft = c;
layers = (
{
layerId = m01;
shapes = (
{
closed = 1;
nodes = (
(288,7,o),
(252,-10,o),
(194,-10,cs),
(94,-10,o),
(51,44,o),
(51,170,cs),
(51,206,ls),
(51,326,o),
(98,384,o),
(196,384,cs),
(252,384,o),
(291,365,o),
(312,326,c),
(314,376,o),
(320,382,o),
(329,382,cs),
(338,382,o),
(344,375,o),
(344,364,cs),
(344,11,ls),
(344,-81,o),
(337,-120,o),
(315,-151,cs),
(288,-189,o),
(243,-208,o),
(181,-208,cs),
(130,-208,o),
(91,-195,o),
(59,-167,cs),
(55,-164,o),
(53,-160,o),
(53,-155,cs),
(53,-147,o),
(60,-140,o),
(68,-140,cs),
(72,-140,o),
(76,-142,o),
(80,-145,cs),
(106,-168,o),
(141,-180,o),
(183,-180,cs),
(307,-180,o),
(312,-87,o),
(312,11,cs),
(312,46,l)
);
},
{
closed = 1;
nodes = (
(309,288,o),
(293,356,o),
(197,356,cs),
(119,356,o),
(83,307,o),
(83,201,cs),
(83,163,ls),
(83,62,o),
(117,18,o),
(195,18,cs),
(275,18,o),
(312,64,o),
(312,165,cs),
(312,209,ls)
);
},
{
closed = 1;
nodes = (
(226,541,o),
(234,529,o),
(234,507,cs),
(234,484,o),
(226,472,o),
(211,472,cs),
(195,472,o),
(188,484,o),
(188,507,cs),
(188,529,o),
(195,541,o),
(211,541,cs)
);
}
);
width = 421;
}
);
note = gdotaccent;
unicode = 289;
},
{
glyphname = Gcommaaccent;
kernLeft = C;
layers = (
{
layerId = m01;
shapes = (
{
closed = 1;
nodes = (
(395,251,l),
(283,251,ls),
(272,251,o),
(266,256,o),
(266,265,cs),
(266,274,o),
(272,279,o),
(283,279,cs),
(403,279,ls),
(411,279,o),
(418,277,o),
(422,273,cs),
(425,269,o),
(427,263,o),
(427,255,cs),
(427,35,ls),
(427,21,o),
(423,14,o),
(413,10,cs),
(388,-1,o),
(323,-10,o),
(265,-10,cs),
(177,-10,o),
(120,18,o),
(88,78,cs),
(70,113,o),
(58,184,o),
(58,260,cs),
(58,336,ls),
(58,424,o),
(72,496,o),
(97,532,cs),
(130,580,o),
(185,606,o),
(257,606,cs),
(315,606,o),
(362,591,o),
(401,560,cs),
(406,556,o),
(408,551,o),
(408,546,cs),
(408,537,o),
(400,529,o),
(391,529,cs),
(386,529,o),
(383,531,o),
(373,539,cs),
(339,566,o),
(304,578,o),
(256,578,cs),
(189,578,o),
(141,550,o),
(115,496,cs),
(101,467,o),
(90,397,o),
(90,339,cs),
(90,257,ls),
(90,232,o),
(93,195,o),
(98,163,cs),
(114,60,o),
(164,18,o),
(272,18,cs),
(320,18,o),
(353,23,o),
(395,35,c)
);
},
{
closed = 1;
nodes = (
(237,-52,o),
(243,-46,o),
(253,-46,cs),
(263,-46,o),
(271,-54,o),
(271,-63,cs),
(271,-66,o),
(270,-69,o),
(269,-72,cs),
(240,-193,ls),
(237,-202,o),
(233,-206,o),
(226,-206,cs),
(218,-206,o),
(213,-200,o),
(213,-193,cs),
(213,-191,o),
(213,-189,o),
(213,-187,cs),
(235,-65,ls)
);
}
);
width = 496;
}
);
note = Gcommaaccent;
unicode = 290;
},
{
glyphname = gcommaaccent;
kernLeft = c;
layers = (
{
layerId = m01;
shapes = (
{
closed = 1;
nodes = (
(288,7,o),
(252,-10,o),
(194,-10,cs),
(94,-10,o),
(51,44,o),
(51,170,cs),
(51,206,ls),
(51,326,o),
(98,384,o),
(196,384,cs),
(252,384,o),
(291,365,o),
(312,326,c),
(314,376,o),
(320,382,o),
(329,382,cs),
(338,382,o),
(344,375,o),
(344,364,cs),
(344,11,ls),
(344,-81,o),
(337,-120,o),
(315,-151,cs),
(288,-189,o),
(243,-208,o),
(181,-208,cs),
(130,-208,o),
(91,-195,o),
(59,-167,cs),
(55,-164,o),
(53,-160,o),
(53,-155,cs),
(53,-147,o),
(60,-140,o),
(68,-140,cs),
(72,-140,o),
(76,-142,o),
(80,-145,cs),
(106,-168,o),
(141,-180,o),
(183,-180,cs),
(307,-180,o),
(312,-87,o),
(312,11,cs),
(312,46,l)
);
},
{
closed = 1;
nodes = (
(309,288,o),
(293,356,o),
(197,356,cs),
(119,356,o),
(83,307,o),
(83,201,cs),
(83,163,ls),
(83,62,o),
(117,18,o),
(195,18,cs),
(275,18,o),
(312,64,o),
(312,165,cs),
(312,209,ls)
);
},
{
closed = 1;
nodes = (
(187,482,o),
(191,488,o),
(196,494,cs),
(251,558,ls),
(255,562,o),
(258,564,o),
(261,564,cs),
(268,564,o),
(273,559,o),
(273,553,cs),
(273,551,o),
(272,548,o),
(270,545,cs),
(227,471,ls),
(222,461,o),
(216,457,o),
(208,457,cs),
(197,457,o),
(187,466,o),
(187,477,cs)
);
}
);
width = 421;
}
);
note = gcommaaccent;
unicode = 291;
},
{
glyphname = Hcircumflex;
layers = (
{
layerId = m01;
shapes = (
{
closed = 1;
nodes = (
(428,327,l),
(428,584,ls),
(428,597,o),
(434,604,o),
(444,604,cs),
(454,604,o),
(460,597,o),
(460,584,cs),
(460,12,ls),
(460,-1,o),
(454,-8,o),
(444,-8,cs),
(434,-8,o),
(428,-1,o),
(428,12,cs),
(428,299,l),
(123,299,l),
(123,12,ls),
(123,-1,o),
(117,-8,o),
(107,-8,cs),
(97,-8,o),
(91,-1,o),
(91,12,cs),
(91,584,ls),
(91,597,o),
(97,604,o),
(107,604,cs),
(117,604,o),
(123,597,o),
(123,584,cs),
(123,327,l)
);
},
{
closed = 1;
nodes = (
(201,662,ls),
(198,659,o),
(195,658,o),
(192,658,cs),
(186,658,o),
(180,663,o),
(180,669,cs),
(180,672,o),
(182,675,o),
(185,679,cs),
(239,742,ls),
(252,758,o),
(261,763,o),
(275,763,cs),
(289,763,o),
(297,758,o),
(311,742,cs),
(365,678,ls),
(368,675,o),
(369,672,o),
(369,669,cs),
(369,663,o),
(364,658,o),
(358,658,cs),
(355,658,o),
(352,659,o),
(349,662,cs),
(275,726,l)
);
}
);
width = 551;
}
);
note = Hcircumflex;
unicode = 292;
},
{
glyphname = hcircumflex;
layers = (
{
layerId = m01;
shapes = (
{
closed = 1;
nodes = (
(134,367,o),
(173,384,o),
(231,384,cs),
(302,384,o),
(343,356,o),
(358,298,cs),
(362,280,o),
(365,247,o),
(365,205,cs),
(365,12,ls),
(365,-1,o),
(359,-8,o),
(349,-8,cs),
(339,-8,o),
(333,-1,o),
(333,12,cs),
(333,202,ls),
(333,250,o),
(329,285,o),
(321,303,cs),
(306,338,o),
(275,356,o),
(232,356,cs),
(188,356,o),
(149,341,o),
(130,316,cs),
(115,295,o),
(109,264,o),
(109,202,cs),
(109,12,ls),
(109,-1,o),
(103,-8,o),
(93,-8,cs),
(83,-8,o),
(77,-1,o),
(77,12,cs),
(77,609,ls),
(77,622,o),
(83,629,o),
(93,629,cs),
(103,629,o),
(109,622,o),
(109,609,cs),
(109,331,l)
);
},
{
closed = 1;
nodes = (
(67,682,ls),
(64,679,o),
(60,678,o),
(58,678,cs),
(51,678,o),
(46,683,o),
(46,689,cs),
(46,692,o),
(48,695,o),
(50,699,c),
(104,762,ls),
(118,778,o),
(126,783,o),
(140,783,cs),
(155,783,o),
(163,778,o),
(177,762,cs),
(231,698,ls),
(234,695,o),
(235,692,o),
(235,689,cs),
(235,683,o),
(230,678,o),
(224,678,cs),
(221,678,o),
(218,679,o),
(214,682,cs),
(141,746,l)
);
}
);
width = 439;
}
);
note = hcircumflex;
unicode = 293;
},
{
glyphname = Hbar;
layers = (
{
layerId = m01;
shapes = (
{
closed = 1;
nodes = (
(43,442,ls),
(32,442,o),
(26,447,o),
(26,456,cs),
(26,465,o),
(32,470,o),
(43,470,cs),
(91,470,l),
(91,584,ls),
(91,597,o),
(97,604,o),
(107,604,cs),
(117,604,o),
(123,597,o),
(123,584,cs),
(123,470,l),
(428,470,l),
(428,584,ls),
(428,597,o),
(434,604,o),
(444,604,cs),
(454,604,o),
(460,597,o),
(460,584,cs),
(460,470,l),
(508,470,ls),
(519,470,o),
(525,465,o),
(525,456,cs),
(525,447,o),
(519,442,o),
(508,442,cs),
(460,442,l),
(460,12,ls),
(460,-1,o),
(454,-8,o),
(444,-8,cs),
(434,-8,o),
(428,-1,o),
(428,12,cs),
(428,299,l),
(123,299,l),
(123,12,ls),
(123,-1,o),
(117,-8,o),
(107,-8,cs),
(97,-8,o),
(91,-1,o),
(91,12,cs),
(91,442,l)
);
},
{
closed = 1;
nodes = (
(428,327,l),
(428,442,l),
(123,442,l),
(123,327,l)
);
}
);
width = 551;
}
);
note = Hbar;
unicode = 294;
},
{
glyphname = hbar;
kernLeft = h;
layers = (
{
layerId = m01;
shapes = (
{
closed = 1;
nodes = (
(36,487,ls),
(25,487,o),
(19,492,o),
(19,501,cs),
(19,510,o),
(25,515,o),
(36,515,cs),
(212,515,ls),
(223,515,o),
(229,510,o),
(229,501,cs),
(229,492,o),
(223,487,o),
(212,487,cs)
);
},
{
closed = 1;
nodes = (
(135,367,o),
(173,384,o),
(230,384,cs),
(301,384,o),
(342,356,o),
(357,298,cs),
(362,279,o),
(364,249,o),
(364,205,cs),
(364,12,ls),
(364,-1,o),
(358,-8,o),
(348,-8,cs),
(338,-8,o),
(332,-1,o),
(332,12,cs),
(332,202,ls),
(332,250,o),
(328,285,o),
(320,303,cs),
(305,338,o),
(274,356,o),
(231,356,cs),
(187,356,o),
(149,341,o),
(131,316,cs),
(115,294,o),
(109,263,o),
(109,202,cs),
(109,12,ls),
(109,-1,o),
(103,-8,o),
(93,-8,cs),
(83,-8,o),
(77,-1,o),
(77,12,cs),
(77,609,ls),
(77,622,o),
(83,629,o),
(93,629,cs),
(103,629,o),
(109,622,o),
(109,609,cs),
(109,331,l)
);
}
);
width = 438;
}
);
note = hbar;
unicode = 295;
},
{
glyphname = Itilde;
layers = (
{
layerId = m01;
shapes = (
{
closed = 1;
nodes = (
(98,584,ls),
(98,597,o),
(103,604,o),
(114,604,cs),
(124,604,o),
(130,597,o),
(130,584,cs),
(130,12,ls),
(130,-1,o),
(124,-8,o),
(114,-8,cs),
(103,-8,o),
(98,-1,o),
(98,12,cs)
);
},
{
closed = 1;
nodes = (
(223,741,o),
(218,722,o),
(215,711,cs),
(206,682,o),
(185,665,o),
(157,665,cs),
(136,665,o),
(126,671,o),
(97,701,cs),
(80,720,o),
(74,724,o),
(65,724,cs),
(51,724,o),
(38,707,o),
(29,676,cs),
(26,668,o),
(23,665,o),
(16,665,cs),
(10,665,o),
(5,670,o),
(5,676,cs),
(5,681,o),
(9,696,o),
(15,708,cs),
(27,738,o),
(45,752,o),
(70,752,cs),
(90,752,o),
(100,746,o),
(125,720,cs),
(149,695,o),
(151,693,o),
(163,693,cs),
(179,693,o),
(191,708,o),
(199,740,cs),
(201,749,o),
(205,753,o),
(212,753,cs),
(213,753,ls),
(219,753,o),
(223,749,o),
(223,743,cs)
);
}
);
width = 228;
}
);
note = Itilde;
unicode = 296;
},
{
glyphname = itilde;
layers = (
{
layerId = m01;
shapes = (
{
closed = 1;
nodes = (
(84,362,ls),
(84,375,o),
(89,382,o),
(100,382,cs),
(110,382,o),
(116,375,o),
(116,362,cs),
(116,12,ls),
(116,-1,o),
(110,-8,o),
(100,-8,cs),
(89,-8,o),
(84,-1,o),
(84,12,cs)
);
},
{
closed = 1;
nodes = (
(209,541,o),
(204,522,o),
(201,511,cs),
(192,482,o),
(171,465,o),
(143,465,cs),
(122,465,o),
(112,471,o),
(83,501,cs),
(66,520,o),
(60,524,o),
(51,524,cs),
(37,524,o),
(24,507,o),
(15,476,cs),
(12,468,o),
(9,465,o),
(2,465,cs),
(-4,465,o),
(-9,470,o),
(-9,476,cs),
(-9,481,o),
(-5,496,o),
(1,508,cs),
(13,538,o),
(31,552,o),
(56,552,cs),
(76,552,o),
(86,546,o),
(111,520,cs),
(135,495,o),
(137,493,o),
(149,493,cs),
(165,493,o),
(177,508,o),
(185,540,cs),
(187,549,o),
(191,553,o),
(198,553,cs),
(199,553,ls),
(205,553,o),
(209,549,o),
(209,543,cs)
);
}
);
width = 200;
}
);
note = itilde;
unicode = 297;
},
{
glyphname = Imacron;
layers = (
{
layerId = m01;
shapes = (
{
closed = 1;
nodes = (
(98,584,ls),
(98,597,o),
(104,604,o),
(114,604,cs),
(124,604,o),
(130,597,o),
(130,584,cs),
(130,12,ls),
(130,-1,o),
(124,-8,o),
(114,-8,cs),
(104,-8,o),
(98,-1,o),
(98,12,cs)
);
},
{
closed = 1;
nodes = (
(202,722,ls),
(213,722,o),
(219,717,o),
(219,708,cs),
(219,699,o),
(213,694,o),
(202,694,cs),
(26,694,ls),
(15,694,o),
(9,699,o),
(9,708,cs),
(9,717,o),
(15,722,o),
(26,722,cs)
);
}
);
width = 228;
}
);
note = Imacron;
unicode = 298;
},
{
glyphname = imacron;
layers = (
{
layerId = m01;
shapes = (
{
closed = 1;
nodes = (
(84,362,ls),
(84,375,o),
(90,382,o),
(100,382,cs),
(110,382,o),
(116,375,o),
(116,362,cs),
(116,12,ls),
(116,-1,o),
(110,-8,o),
(100,-8,cs),
(90,-8,o),
(84,-1,o),
(84,12,cs)
);
},
{
closed = 1;
nodes = (
(188,522,ls),
(199,522,o),
(205,517,o),
(205,508,cs),
(205,499,o),
(199,494,o),
(188,494,cs),
(12,494,ls),
(1,494,o),
(-5,499,o),
(-5,508,cs),
(-5,517,o),
(1,522,o),
(12,522,cs)
);
}
);
width = 200;
}
);
note = imacron;
unicode = 299;
},
{
glyphname = Ibreve;
layers = (
{
layerId = m01;
shapes = (
{
closed = 1;
nodes = (
(98,584,ls),
(98,597,o),
(103,604,o),
(114,604,cs),
(124,604,o),
(130,597,o),
(130,584,cs),
(130,12,ls),
(130,-1,o),
(124,-8,o),
(114,-8,cs),
(103,-8,o),
(98,-1,o),
(98,12,cs)
);
},
{
closed = 1;
nodes = (
(179,755,o),
(183,760,o),
(193,760,cs),
(201,760,o),
(206,754,o),
(206,746,cs),
(206,686,o),
(178,660,o),
(113,660,cs),
(48,660,o),
(20,686,o),
(20,746,cs),
(20,754,o),
(25,760,o),
(33,760,cs),
(43,760,o),
(47,754,o),
(48,739,cs),
(52,702,o),
(69,688,o),
(113,688,cs),
(157,688,o),
(174,701,o),
(178,739,cs)
);
}
);
width = 228;
}
);
note = Ibreve;
unicode = 300;
},
{
glyphname = ibreve;
layers = (
{
layerId = m01;
shapes = (
{
closed = 1;
nodes = (
(84,362,ls),
(84,375,o),
(89,382,o),
(100,382,cs),
(110,382,o),
(116,375,o),
(116,362,cs),
(116,12,ls),
(116,-1,o),
(110,-8,o),
(100,-8,cs),
(89,-8,o),
(84,-1,o),
(84,12,cs)
);
},
{
closed = 1;
nodes = (
(165,555,o),
(169,560,o),
(179,560,cs),
(187,560,o),
(192,554,o),
(192,546,cs),
(192,486,o),
(164,460,o),
(99,460,cs),
(34,460,o),
(6,486,o),
(6,546,cs),
(6,554,o),
(11,560,o),
(19,560,cs),
(29,560,o),
(33,554,o),
(34,539,cs),
(38,502,o),
(55,488,o),
(99,488,cs),
(143,488,o),
(160,501,o),
(164,539,cs)
);
}
);
width = 200;
}
);
note = ibreve;
unicode = 301;
},
{
glyphname = Iogonek;
layers = (
{
layerId = m01;
shapes = (
{
closed = 1;
nodes = (
(98,584,ls),
(98,597,o),
(104,604,o),
(114,604,cs),
(124,604,o),
(130,597,o),
(130,584,cs),
(130,12,ls),
(130,-1,o),
(124,-8,o),
(114,-8,cs),
(104,-8,o),
(98,-1,o),
(98,12,cs)
);
},
{
closed = 1;
nodes = (
(74,-30,o),
(26,-44,o),
(26,-107,cs),
(26,-145,o),
(45,-160,o),
(92,-160,cs),
(104,-160,o),
(117,-159,o),
(129,-157,c),
(131,-156,o),
(132,-156,o),
(134,-156,cs),
(141,-156,o),
(146,-161,o),
(146,-167,cs),
(146,-179,o),
(127,-184,o),
(83,-184,cs),
(23,-184,o),
(-4,-160,o),
(-4,-108,cs),
(-4,-57,o),
(27,-26,o),
(101,3,c),
(121,-6,l)
);
}
);
width = 228;
}
);
note = Iogonek;
unicode = 302;
},
{
glyphname = iogonek;
layers = (
{
layerId = m01;
shapes = (
{
closed = 1;
nodes = (
(115,541,o),
(123,529,o),
(123,507,cs),
(123,484,o),
(115,472,o),
(100,472,cs),
(85,472,o),
(77,484,o),
(77,507,cs),
(77,529,o),
(85,541,o),
(100,541,cs)
);
},
{
closed = 1;
nodes = (
(84,362,ls),
(84,375,o),
(90,382,o),
(100,382,cs),
(110,382,o),
(116,375,o),
(116,362,cs),
(116,12,ls),
(116,-1,o),
(110,-8,o),
(100,-8,cs),
(90,-8,o),
(84,-1,o),
(84,12,cs)
);
},
{
closed = 1;
nodes = (
(107,-7,l),
(71,-28,o),
(24,-48,o),
(24,-107,cs),
(24,-145,o),
(40,-160,o),
(78,-160,cs),
(90,-160,o),
(103,-159,o),
(115,-157,c),
(117,-156,o),
(118,-156,o),
(120,-156,cs),
(127,-156,o),
(132,-161,o),
(132,-167,cs),
(132,-179,o),
(113,-184,o),
(69,-184,cs),
(17,-184,o),
(-6,-160,o),
(-6,-108,cs),
(-6,-56,o),
(18,-27,o),
(88,2,c)
);
}
);
width = 200;
}
);
note = iogonek;
unicode = 303;
},
{
glyphname = Idotaccent;
layers = (
{
layerId = m01;
shapes = (
{
closed = 1;
nodes = (
(98,584,ls),
(98,597,o),
(104,604,o),
(114,604,cs),
(124,604,o),
(130,597,o),
(130,584,cs),
(130,12,ls),
(130,-1,o),
(124,-8,o),
(114,-8,cs),
(104,-8,o),
(98,-1,o),
(98,12,cs)
);
},
{
closed = 1;
nodes = (
(129,741,o),
(137,729,o),
(137,707,cs),
(137,684,o),
(129,672,o),
(114,672,cs),
(99,672,o),
(91,684,o),
(91,707,cs),
(91,729,o),
(99,741,o),
(114,741,cs)
);
}
);
width = 228;
}
);
note = Idotaccent;
unicode = 304;
},
{
glyphname = dotlessi;
kernLeft = m;
layers = (
{
layerId = m01;
shapes = (
{
closed = 1;
nodes = (
(84,362,ls),
(84,375,o),
(90,382,o),
(100,382,cs),
(110,382,o),
(116,375,o),
(116,362,cs),
(116,12,ls),
(116,-1,o),
(110,-8,o),
(100,-8,cs),
(90,-8,o),
(84,-1,o),
(84,12,cs)
);
}
);
width = 200;
}
);
note = dotlessi;
unicode = 305;
},
{
glyphname = IJ;
layers = (
{
layerId = m01;
shapes = (
{
closed = 1;
nodes = (
(98,584,ls),
(98,597,o),
(104,604,o),
(114,604,cs),
(124,604,o),
(130,597,o),
(130,584,cs),
(130,12,ls),
(130,-1,o),
(124,-8,o),
(114,-8,cs),
(104,-8,o),
(98,-1,o),
(98,12,cs)
);
},
{
closed = 1;
nodes = (
(349,93,ls),
(349,-12,o),
(342,-60,o),
(324,-91,cs),
(311,-113,o),
(289,-125,o),
(249,-134,cs),
(246,-135,o),
(244,-135,o),
(242,-135,cs),
(233,-135,o),
(227,-129,o),
(227,-120,cs),
(227,-111,o),
(231,-108,o),
(248,-104,cs),
(303,-92,o),
(317,-52,o),
(317,94,cs),
(317,584,ls),
(317,597,o),
(323,604,o),
(333,604,cs),
(343,604,o),
(349,597,o),
(349,584,cs)
);
}
);
width = 445;
}
);
note = IJ;
unicode = 306;
},
